26F Galaxy Sans-Hairline.ufo
<glyph name="exclam" format="2">
	<advance width="245"/>
	<unicode hex="0021"/>
	<outline>
		<contour>
			<point x="122" y="0" type="curve" smooth="yes"/>
			<point x="143" y="0"/>
			<point x="160" y="17"/>
			<point x="160" y="38" type="curve" smooth="yes"/>
			<point x="160" y="58"/>
			<point x="143" y="75"/>
			<point x="122" y="75" type="curve" smooth="yes"/>
			<point x="102" y="75"/>
			<point x="85" y="58"/>
			<point x="85" y="38" type="curve" smooth="yes"/>
			<point x="85" y="17"/>
			<point x="102" y="0"/>
		</contour>
		<contour>
			<point x="97" y="1374.5" type="curve"/>
			<point x="97" y="381.5" type="line"/>
			<point x="97" y="367.693"/>
			<point x="108.193" y="356.5"/>
			<point x="122" y="356.5" type="curve"/>
			<point x="135.807" y="356.5"/>
			<point x="147" y="367.693"/>
			<point x="147" y="381.5" type="curve"/>
			<point x="147" y="1374.5" type="line"/>
			<point x="147" y="1388.307"/>
			<point x="135.807" y="1399.5"/>
			<point x="122" y="1399.5" type="curve"/>
			<point x="108.193" y="1399.5"/>
			<point x="97" y="1388.307"/>
		</contour>
	</outline>
</glyph>
<glyph name="numbersign" format="2">
	<advance width="1125"/>
	<unicode hex="0023"/>
	<outline>
		<contour>
			<point x="1015" y="928" type="curve" smooth="yes"/>
			<point x="1029" y="928"/>
			<point x="1040" y="939"/>
			<point x="1040" y="953" type="curve" smooth="yes"/>
			<point x="1040" y="967"/>
			<point x="1029" y="978"/>
			<point x="1015" y="978" type="curve" smooth="yes"/>
			<point x="1001" y="978"/>
			<point x="990" y="967"/>
			<point x="990" y="953" type="curve" smooth="yes"/>
			<point x="990" y="939"/>
			<point x="1001" y="928"/>
		</contour>
		<contour>
			<point x="110" y="422" type="curve" smooth="yes"/>
			<point x="124" y="422"/>
			<point x="135" y="433"/>
			<point x="135" y="447" type="curve" smooth="yes"/>
			<point x="135" y="461"/>
			<point x="124" y="472"/>
			<point x="110" y="472" type="curve" smooth="yes"/>
			<point x="96" y="472"/>
			<point x="85" y="461"/>
			<point x="85" y="447" type="curve" smooth="yes"/>
			<point x="85" y="433"/>
			<point x="96" y="422"/>
		</contour>
		<contour>
			<point x="379" y="26" type="curve" smooth="yes"/>
			<point x="379" y="1375" type="line" smooth="yes"/>
			<point x="379" y="1388"/>
			<point x="368" y="1400"/>
			<point x="354" y="1400" type="curve" smooth="yes"/>
			<point x="340" y="1400"/>
			<point x="329" y="1388"/>
			<point x="329" y="1375" type="curve" smooth="yes"/>
			<point x="329" y="26" type="line" smooth="yes"/>
			<point x="329" y="12"/>
			<point x="340" y="1"/>
			<point x="354" y="1" type="curve" smooth="yes"/>
			<point x="368" y="1"/>
			<point x="379" y="12"/>
		</contour>
		<contour>
			<point x="110" y="928" type="curve" smooth="yes"/>
			<point x="124" y="928"/>
			<point x="135" y="939"/>
			<point x="135" y="953" type="curve" smooth="yes"/>
			<point x="135" y="967"/>
			<point x="124" y="978"/>
			<point x="110" y="978" type="curve" smooth="yes"/>
			<point x="96" y="978"/>
			<point x="85" y="967"/>
			<point x="85" y="953" type="curve" smooth="yes"/>
			<point x="85" y="939"/>
			<point x="96" y="928"/>
		</contour>
		<contour>
			<point x="1015" y="422" type="curve" smooth="yes"/>
			<point x="1029" y="422"/>
			<point x="1040" y="433"/>
			<point x="1040" y="447" type="curve" smooth="yes"/>
			<point x="1040" y="461"/>
			<point x="1029" y="472"/>
			<point x="1015" y="472" type="curve" smooth="yes"/>
			<point x="1001" y="472"/>
			<point x="990" y="461"/>
			<point x="990" y="447" type="curve" smooth="yes"/>
			<point x="990" y="433"/>
			<point x="1001" y="422"/>
		</contour>
		<contour>
			<point x="797" y="26" type="curve" smooth="yes"/>
			<point x="797" y="1375" type="line" smooth="yes"/>
			<point x="797" y="1388"/>
			<point x="786" y="1400"/>
			<point x="772" y="1400" type="curve" smooth="yes"/>
			<point x="758" y="1400"/>
			<point x="747" y="1388"/>
			<point x="747" y="1375" type="curve" smooth="yes"/>
			<point x="747" y="26" type="line" smooth="yes"/>
			<point x="747" y="12"/>
			<point x="758" y="1"/>
			<point x="772" y="1" type="curve" smooth="yes"/>
			<point x="786" y="1"/>
			<point x="797" y="12"/>
		</contour>
	</outline>
</glyph>
<glyph name="dollar" format="2">
	<advance width="1088"/>
	<unicode hex="0024"/>
	<outline>
		<contour>
			<point x="569" y="-324" type="curve" smooth="yes"/>
			<point x="569" y="-121" type="line" smooth="yes"/>
			<point x="569" y="-107"/>
			<point x="558" y="-96"/>
			<point x="544" y="-96" type="curve" smooth="yes"/>
			<point x="530" y="-96"/>
			<point x="519" y="-107"/>
			<point x="519" y="-121" type="curve" smooth="yes"/>
			<point x="519" y="-324" type="line" smooth="yes"/>
			<point x="519" y="-337"/>
			<point x="530" y="-349"/>
			<point x="544" y="-349" type="curve" smooth="yes"/>
			<point x="558" y="-349"/>
			<point x="569" y="-337"/>
		</contour>
		<component base="S"/>
		<contour>
			<point x="569" y="1521" type="curve" smooth="yes"/>
			<point x="569" y="1724" type="line" smooth="yes"/>
			<point x="569" y="1737"/>
			<point x="558" y="1749"/>
			<point x="544" y="1749" type="curve" smooth="yes"/>
			<point x="530" y="1749"/>
			<point x="519" y="1737"/>
			<point x="519" y="1724" type="curve" smooth="yes"/>
			<point x="519" y="1521" type="line" smooth="yes"/>
			<point x="519" y="1507"/>
			<point x="530" y="1496"/>
			<point x="544" y="1496" type="curve" smooth="yes"/>
			<point x="558" y="1496"/>
			<point x="569" y="1507"/>
		</contour>
	</outline>
</glyph>
<glyph name="percent" format="2">
	<advance width="1309"/>
	<unicode hex="0025"/>
	<outline>
		<contour>
			<point x="399" y="820" type="curve"/>
			<point x="253" y="820"/>
			<point x="135" y="939"/>
			<point x="135" y="1085" type="curve"/>
			<point x="135" y="1231"/>
			<point x="253" y="1350"/>
			<point x="399" y="1350" type="curve"/>
			<point x="412.807" y="1350"/>
			<point x="424" y="1361.193"/>
			<point x="424" y="1375" type="curve"/>
			<point x="424" y="1388.807"/>
			<point x="412.807" y="1400"/>
			<point x="399" y="1400" type="curve"/>
			<point x="225.366" y="1400"/>
			<point x="85" y="1258.387"/>
			<point x="85" y="1085" type="curve"/>
			<point x="85" y="911.613"/>
			<point x="225.366" y="770"/>
			<point x="399" y="770" type="curve"/>
			<point x="412.807" y="770"/>
			<point x="424" y="781.193"/>
			<point x="424" y="795" type="curve"/>
			<point x="424" y="808.807"/>
			<point x="412.807" y="820"/>
		</contour>
		<contour>
			<point x="1114.756" y="1389.415" type="curve"/>
			<point x="153.673" y="39.813" type="line"/>
			<point x="150.763" y="35.727"/>
			<point x="149.052" y="30.727"/>
			<point x="149.052" y="25.328" type="curve"/>
			<point x="149.052" y="11.52"/>
			<point x="160.244" y="0.328"/>
			<point x="174.052" y="0.328" type="curve"/>
			<point x="182.345" y="0.328"/>
			<point x="189.695" y="4.366"/>
			<point x="194.243" y="10.583" type="curve"/>
			<point x="1155.327" y="1360.187" type="line"/>
			<point x="1158.237" y="1364.273"/>
			<point x="1159.948" y="1369.273"/>
			<point x="1159.948" y="1374.672" type="curve"/>
			<point x="1159.948" y="1388.48"/>
			<point x="1148.756" y="1399.672"/>
			<point x="1134.948" y="1399.672" type="curve"/>
			<point x="1126.654" y="1399.672"/>
			<point x="1119.304" y="1395.633"/>
		</contour>
		<contour>
			<point x="910" y="580" type="curve"/>
			<point x="1056" y="580"/>
			<point x="1174" y="461"/>
			<point x="1174" y="315" type="curve"/>
			<point x="1174" y="169"/>
			<point x="1056" y="50"/>
			<point x="910" y="50" type="curve"/>
			<point x="896.193" y="50"/>
			<point x="885" y="38.807"/>
			<point x="885" y="25" type="curve"/>
			<point x="885" y="11.193"/>
			<point x="896.193" y="0"/>
			<point x="910" y="0" type="curve"/>
			<point x="1083.634" y="0"/>
			<point x="1224" y="141.613"/>
			<point x="1224" y="315" type="curve"/>
			<point x="1224" y="488.387"/>
			<point x="1083.634" y="630"/>
			<point x="910" y="630" type="curve"/>
			<point x="896.193" y="630"/>
			<point x="885" y="618.807"/>
			<point x="885" y="605" type="curve"/>
			<point x="885" y="591.193"/>
			<point x="896.193" y="580"/>
		</contour>
	</outline>
</glyph>
<glyph name="ampersand" format="2">
	<advance width="1058"/>
	<unicode hex="0026"/>
	<outline>
		<contour>
			<point x="613" y="50" type="curve" smooth="yes"/>
			<point x="405" y="50" type="line" smooth="yes"/>
			<point x="233" y="50"/>
			<point x="93" y="190"/>
			<point x="93" y="348" type="curve" smooth="yes"/>
			<point x="93" y="507"/>
			<point x="233" y="675"/>
			<point x="405" y="675" type="curve" smooth="yes"/>
			<point x="575" y="675" type="line"/>
			<point x="575" y="725" type="line"/>
			<point x="405" y="725" type="line" smooth="yes"/>
			<point x="203" y="725"/>
			<point x="43" y="532"/>
			<point x="43" y="348" type="curve" smooth="yes"/>
			<point x="43" y="162"/>
			<point x="205" y="0"/>
			<point x="405" y="0" type="curve" smooth="yes"/>
			<point x="613" y="0" type="line" smooth="yes"/>
			<point x="626" y="0"/>
			<point x="638" y="11"/>
			<point x="638" y="25" type="curve" smooth="yes"/>
			<point x="638" y="39"/>
			<point x="626" y="50"/>
		</contour>
		<contour>
			<point x="950" y="26" type="curve" smooth="yes"/>
			<point x="950" y="701" type="line" smooth="yes"/>
			<point x="950" y="714"/>
			<point x="939" y="726"/>
			<point x="925" y="726" type="curve" smooth="yes"/>
			<point x="911" y="726"/>
			<point x="900" y="714"/>
			<point x="900" y="701" type="curve" smooth="yes"/>
			<point x="900" y="26" type="line" smooth="yes"/>
			<point x="900" y="12"/>
			<point x="911" y="1"/>
			<point x="925" y="1" type="curve" smooth="yes"/>
			<point x="939" y="1"/>
			<point x="950" y="12"/>
		</contour>
		<contour>
			<point x="948" y="1400" type="curve" smooth="yes"/>
			<point x="525" y="1400" type="line" smooth="yes"/>
			<point x="326" y="1400"/>
			<point x="163" y="1239"/>
			<point x="163" y="1038" type="curve" smooth="yes"/>
			<point x="163" y="837"/>
			<point x="325" y="675"/>
			<point x="525" y="675" type="curve" smooth="yes"/>
			<point x="715" y="675" type="line" smooth="yes"/>
			<point x="729" y="675"/>
			<point x="740" y="686"/>
			<point x="740" y="700" type="curve" smooth="yes"/>
			<point x="740" y="714"/>
			<point x="729" y="725"/>
			<point x="715" y="725" type="curve" smooth="yes"/>
			<point x="525" y="725" type="line" smooth="yes"/>
			<point x="353" y="725"/>
			<point x="213" y="865"/>
			<point x="213" y="1038" type="curve" smooth="yes"/>
			<point x="213" y="1211"/>
			<point x="353" y="1350"/>
			<point x="525" y="1350" type="curve" smooth="yes"/>
			<point x="948" y="1350" type="line" smooth="yes"/>
			<point x="961" y="1350"/>
			<point x="973" y="1361"/>
			<point x="973" y="1375" type="curve" smooth="yes"/>
			<point x="973" y="1389"/>
			<point x="961" y="1400"/>
		</contour>
	</outline>
</glyph>
<glyph name="quotesingle" format="2">
	<advance width="220"/>
	<unicode hex="0027"/>
	<outline>
		<contour>
			<point x="85" y="1572" type="curve" smooth="yes"/>
			<point x="85" y="1194" type="line" smooth="yes"/>
			<point x="85" y="1180"/>
			<point x="96" y="1169"/>
			<point x="110" y="1169" type="curve" smooth="yes"/>
			<point x="124" y="1169"/>
			<point x="135" y="1180"/>
			<point x="135" y="1194" type="curve" smooth="yes"/>
			<point x="135" y="1572" type="line" smooth="yes"/>
			<point x="135" y="1585"/>
			<point x="124" y="1597"/>
			<point x="110" y="1597" type="curve" smooth="yes"/>
			<point x="96" y="1597"/>
			<point x="85" y="1585"/>
		</contour>
	</outline>
</glyph>
<glyph name="parenleft" format="2">
	<advance width="372"/>
	<unicode hex="0028"/>
	<outline>
		<contour>
			<point x="280" y="42" type="curve" smooth="yes"/>
			<point x="60" y="269"/>
			<point x="60" y="1131"/>
			<point x="280" y="1358" type="curve" smooth="yes"/>
			<point x="285" y="1363"/>
			<point x="287" y="1369"/>
			<point x="287" y="1375" type="curve" smooth="yes"/>
			<point x="287" y="1389"/>
			<point x="276" y="1400"/>
			<point x="262" y="1400" type="curve" smooth="yes"/>
			<point x="255" y="1400"/>
			<point x="249" y="1398"/>
			<point x="244" y="1393" type="curve" smooth="yes"/>
			<point x="4" y="1144"/>
			<point x="4" y="256"/>
			<point x="244" y="7" type="curve" smooth="yes"/>
			<point x="249" y="2"/>
			<point x="255" y="0"/>
			<point x="262" y="0" type="curve" smooth="yes"/>
			<point x="276" y="0"/>
			<point x="287" y="11"/>
			<point x="287" y="25" type="curve" smooth="yes"/>
			<point x="287" y="31"/>
			<point x="285" y="37"/>
		</contour>
	</outline>
</glyph>
<glyph name="asterisk" format="2">
	<advance width="691"/>
	<unicode hex="002A"/>
	<outline>
		<contour>
			<point x="568" y="1196" type="curve" smooth="yes"/>
			<point x="589" y="1196"/>
			<point x="606" y="1212"/>
			<point x="606" y="1233" type="curve" smooth="yes"/>
			<point x="606" y="1254"/>
			<point x="589" y="1271"/>
			<point x="568" y="1271" type="curve" smooth="yes"/>
			<point x="547" y="1271"/>
			<point x="531" y="1254"/>
			<point x="531" y="1233" type="curve" smooth="yes"/>
			<point x="531" y="1212"/>
			<point x="547" y="1196"/>
		</contour>
		<contour>
			<point x="122" y="938" type="curve" smooth="yes"/>
			<point x="143" y="938"/>
			<point x="160" y="954"/>
			<point x="160" y="975" type="curve" smooth="yes"/>
			<point x="160" y="996"/>
			<point x="143" y="1013"/>
			<point x="122" y="1013" type="curve" smooth="yes"/>
			<point x="101" y="1013"/>
			<point x="85" y="996"/>
			<point x="85" y="975" type="curve" smooth="yes"/>
			<point x="85" y="954"/>
			<point x="101" y="938"/>
		</contour>
		<contour>
			<point x="344" y="810" type="curve" smooth="yes"/>
			<point x="365" y="810"/>
			<point x="382" y="826"/>
			<point x="382" y="847" type="curve" smooth="yes"/>
			<point x="382" y="868"/>
			<point x="365" y="885"/>
			<point x="344" y="885" type="curve" smooth="yes"/>
			<point x="323" y="885"/>
			<point x="307" y="868"/>
			<point x="307" y="847" type="curve" smooth="yes"/>
			<point x="307" y="826"/>
			<point x="323" y="810"/>
		</contour>
		<contour>
			<point x="98" y="1218" type="curve" smooth="yes"/>
			<point x="567" y="947" type="line" smooth="yes"/>
			<point x="570" y="945"/>
			<point x="575" y="943"/>
			<point x="580" y="943" type="curve" smooth="yes"/>
			<point x="593" y="943"/>
			<point x="605" y="954"/>
			<point x="605" y="968" type="curve" smooth="yes"/>
			<point x="605" y="977"/>
			<point x="600" y="985"/>
			<point x="592" y="990" type="curve" smooth="yes"/>
			<point x="123" y="1261" type="line" smooth="yes"/>
			<point x="120" y="1263"/>
			<point x="115" y="1265"/>
			<point x="110" y="1265" type="curve" smooth="yes"/>
			<point x="97" y="1265"/>
			<point x="85" y="1254"/>
			<point x="85" y="1240" type="curve" smooth="yes"/>
			<point x="85" y="1231"/>
			<point x="90" y="1223"/>
		</contour>
		<contour>
			<point x="345" y="1325" type="curve" smooth="yes"/>
			<point x="366" y="1325"/>
			<point x="383" y="1341"/>
			<point x="383" y="1362" type="curve" smooth="yes"/>
			<point x="383" y="1383"/>
			<point x="366" y="1400"/>
			<point x="345" y="1400" type="curve" smooth="yes"/>
			<point x="324" y="1400"/>
			<point x="308" y="1383"/>
			<point x="308" y="1362" type="curve" smooth="yes"/>
			<point x="308" y="1341"/>
			<point x="324" y="1325"/>
		</contour>
	</outline>
</glyph>
<glyph name="plus" format="2">
	<advance width="981"/>
	<unicode hex="002B"/>
	<outline>
		<contour>
			<point x="74.5" y="675" type="curve"/>
			<point x="292.5" y="675" type="line"/>
			<point x="306.307" y="675"/>
			<point x="317.5" y="686.193"/>
			<point x="317.5" y="700" type="curve"/>
			<point x="317.5" y="713.807"/>
			<point x="306.307" y="725"/>
			<point x="292.5" y="725" type="curve"/>
			<point x="74.5" y="725" type="line"/>
			<point x="60.693" y="725"/>
			<point x="49.5" y="713.807"/>
			<point x="49.5" y="700" type="curve"/>
			<point x="49.5" y="686.193"/>
			<point x="60.693" y="675"/>
		</contour>
		<contour>
			<point x="515" y="285.5" type="curve"/>
			<point x="515" y="1115.5" type="line"/>
			<point x="515" y="1129.307"/>
			<point x="503.807" y="1140.5"/>
			<point x="490" y="1140.5" type="curve"/>
			<point x="476.193" y="1140.5"/>
			<point x="465" y="1129.307"/>
			<point x="465" y="1115.5" type="curve"/>
			<point x="465" y="285.5" type="line"/>
			<point x="465" y="271.693"/>
			<point x="476.193" y="260.5"/>
			<point x="490" y="260.5" type="curve"/>
			<point x="503.807" y="260.5"/>
			<point x="515" y="271.693"/>
		</contour>
		<contour>
			<point x="687.5" y="675" type="curve"/>
			<point x="905.5" y="675" type="line"/>
			<point x="919.307" y="675"/>
			<point x="930.5" y="686.193"/>
			<point x="930.5" y="700" type="curve"/>
			<point x="930.5" y="713.807"/>
			<point x="919.307" y="725"/>
			<point x="905.5" y="725" type="curve"/>
			<point x="687.5" y="725" type="line"/>
			<point x="673.693" y="725"/>
			<point x="662.5" y="713.807"/>
			<point x="662.5" y="700" type="curve"/>
			<point x="662.5" y="686.193"/>
			<point x="673.693" y="675"/>
		</contour>
	</outline>
</glyph>
<glyph name="hyphen" format="2">
	<advance width="624"/>
	<unicode hex="002D"/>
	<outline>
		<contour>
			<point x="514" y="725" type="curve" smooth="yes"/>
			<point x="110" y="725" type="line" smooth="yes"/>
			<point x="96" y="725"/>
			<point x="85" y="714"/>
			<point x="85" y="700" type="curve" smooth="yes"/>
			<point x="85" y="686"/>
			<point x="96" y="675"/>
			<point x="110" y="675" type="curve" smooth="yes"/>
			<point x="514" y="675" type="line" smooth="yes"/>
			<point x="527" y="675"/>
			<point x="539" y="686"/>
			<point x="539" y="700" type="curve" smooth="yes"/>
			<point x="539" y="714"/>
			<point x="527" y="725"/>
		</contour>
	</outline>
</glyph>
<glyph name="slash" format="2">
	<advance width="666"/>
	<unicode hex="002F"/>
	<outline>
		<contour>
			<point x="110" y="0" type="curve" smooth="yes"/>
			<point x="121" y="0"/>
			<point x="131" y="8"/>
			<point x="134" y="18" type="curve" smooth="yes"/>
			<point x="580" y="1367" type="line" smooth="yes"/>
			<point x="584" y="1382"/>
			<point x="574" y="1400"/>
			<point x="556" y="1400" type="curve" smooth="yes"/>
			<point x="545" y="1400"/>
			<point x="535" y="1392"/>
			<point x="532" y="1382" type="curve" smooth="yes"/>
			<point x="86" y="33" type="line" smooth="yes"/>
			<point x="82" y="18"/>
			<point x="92" y="0"/>
		</contour>
	</outline>
</glyph>
<glyph name="zero" format="2">
	<advance width="774"/>
	<unicode hex="0030"/>
	<outline>
		<contour>
			<point x="644" y="588" type="curve" smooth="yes"/>
			<point x="644" y="307" type="line" smooth="yes"/>
			<point x="644" y="165"/>
			<point x="529" y="50"/>
			<point x="387" y="50" type="curve" smooth="yes"/>
			<point x="245" y="50"/>
			<point x="130" y="165"/>
			<point x="130" y="307" type="curve" smooth="yes"/>
			<point x="130" y="321"/>
			<point x="119" y="332"/>
			<point x="105" y="332" type="curve" smooth="yes"/>
			<point x="91" y="332"/>
			<point x="80" y="321"/>
			<point x="80" y="307" type="curve" smooth="yes"/>
			<point x="80" y="137"/>
			<point x="217" y="0"/>
			<point x="387" y="0" type="curve" smooth="yes"/>
			<point x="557" y="0"/>
			<point x="694" y="137"/>
			<point x="694" y="307" type="curve" smooth="yes"/>
			<point x="694" y="588" type="line" smooth="yes"/>
			<point x="694" y="602"/>
			<point x="683" y="613"/>
			<point x="669" y="613" type="curve" smooth="yes"/>
			<point x="655" y="613"/>
			<point x="644" y="602"/>
		</contour>
		<contour>
			<point x="541" y="833" type="curve"/>
			<point x="205" y="609" type="line" smooth="yes"/>
			<point x="198" y="604"/>
			<point x="194" y="597"/>
			<point x="194" y="588" type="curve" smooth="yes"/>
			<point x="194" y="574"/>
			<point x="205" y="563"/>
			<point x="219" y="563" type="curve" smooth="yes"/>
			<point x="224" y="563"/>
			<point x="229" y="565"/>
			<point x="233" y="567" type="curve"/>
			<point x="569" y="791" type="line" smooth="yes"/>
			<point x="576" y="796"/>
			<point x="580" y="803"/>
			<point x="580" y="812" type="curve" smooth="yes"/>
			<point x="580" y="826"/>
			<point x="569" y="837"/>
			<point x="555" y="837" type="curve" smooth="yes"/>
			<point x="550" y="837"/>
			<point x="545" y="835"/>
		</contour>
		<contour>
			<point x="130" y="812" type="curve" smooth="yes"/>
			<point x="130" y="1093" type="line" smooth="yes"/>
			<point x="130" y="1235"/>
			<point x="245" y="1350"/>
			<point x="387" y="1350" type="curve" smooth="yes"/>
			<point x="529" y="1350"/>
			<point x="644" y="1235"/>
			<point x="644" y="1093" type="curve" smooth="yes"/>
			<point x="644" y="1079"/>
			<point x="655" y="1068"/>
			<point x="669" y="1068" type="curve" smooth="yes"/>
			<point x="683" y="1068"/>
			<point x="694" y="1079"/>
			<point x="694" y="1093" type="curve" smooth="yes"/>
			<point x="694" y="1263"/>
			<point x="557" y="1400"/>
			<point x="387" y="1400" type="curve" smooth="yes"/>
			<point x="217" y="1400"/>
			<point x="80" y="1263"/>
			<point x="80" y="1093" type="curve" smooth="yes"/>
			<point x="80" y="812" type="line" smooth="yes"/>
			<point x="80" y="798"/>
			<point x="91" y="787"/>
			<point x="105" y="787" type="curve" smooth="yes"/>
			<point x="119" y="787"/>
			<point x="130" y="798"/>
		</contour>
	</outline>
</glyph>
<glyph name="one" format="2">
	<advance width="774"/>
	<unicode hex="0031"/>
	<outline>
		<contour>
			<point x="497" y="26" type="curve" smooth="yes"/>
			<point x="497" y="440" type="line" smooth="yes"/>
			<point x="497" y="454"/>
			<point x="486" y="465"/>
			<point x="472" y="465" type="curve" smooth="yes"/>
			<point x="458" y="465"/>
			<point x="447" y="454"/>
			<point x="447" y="440" type="curve" smooth="yes"/>
			<point x="447" y="26" type="line" smooth="yes"/>
			<point x="447" y="12"/>
			<point x="458" y="1"/>
			<point x="472" y="1" type="curve" smooth="yes"/>
			<point x="486" y="1"/>
			<point x="497" y="12"/>
		</contour>
		<contour>
			<point x="456" y="1394" type="curve"/>
			<point x="159" y="1158" type="line"/>
			<point x="154" y="1153"/>
			<point x="150" y="1146"/>
			<point x="150" y="1138" type="curve" smooth="yes"/>
			<point x="150" y="1124"/>
			<point x="161" y="1113"/>
			<point x="175" y="1113" type="curve" smooth="yes"/>
			<point x="181" y="1113"/>
			<point x="186" y="1115"/>
			<point x="191" y="1118" type="curve"/>
			<point x="488" y="1354" type="line"/>
			<point x="493" y="1359"/>
			<point x="497" y="1366"/>
			<point x="497" y="1374" type="curve" smooth="yes"/>
			<point x="497" y="1388"/>
			<point x="486" y="1399"/>
			<point x="472" y="1399" type="curve" smooth="yes"/>
			<point x="466" y="1399"/>
			<point x="461" y="1397"/>
		</contour>
		<contour>
			<point x="497" y="840" type="curve" smooth="yes"/>
			<point x="497" y="1375" type="line" smooth="yes"/>
			<point x="497" y="1388"/>
			<point x="486" y="1400"/>
			<point x="472" y="1400" type="curve" smooth="yes"/>
			<point x="458" y="1400"/>
			<point x="447" y="1388"/>
			<point x="447" y="1375" type="curve" smooth="yes"/>
			<point x="447" y="840" type="line" smooth="yes"/>
			<point x="447" y="826"/>
			<point x="458" y="815"/>
			<point x="472" y="815" type="curve" smooth="yes"/>
			<point x="486" y="815"/>
			<point x="497" y="826"/>
		</contour>
	</outline>
</glyph>
<glyph name="two" format="2">
	<advance width="774"/>
	<unicode hex="0032"/>
	<outline>
		<contour>
			<point x="103.5" y="0" type="curve"/>
			<point x="669.5" y="0" type="line"/>
			<point x="683.307" y="0"/>
			<point x="694.5" y="11.193"/>
			<point x="694.5" y="25" type="curve"/>
			<point x="694.5" y="38.807"/>
			<point x="683.307" y="50"/>
			<point x="669.5" y="50" type="curve"/>
			<point x="103.5" y="50" type="line"/>
			<point x="89.693" y="50"/>
			<point x="78.5" y="38.807"/>
			<point x="78.5" y="25" type="curve"/>
			<point x="78.5" y="11.193"/>
			<point x="89.693" y="0"/>
		</contour>
		<contour>
			<point x="128.925" y="25.486" type="curve"/>
			<point x="418.194" y="487.737" type="line"/>
			<point x="420.606" y="491.581"/>
			<point x="422" y="496.128"/>
			<point x="422" y="501" type="curve"/>
			<point x="422" y="514.807"/>
			<point x="410.807" y="526"/>
			<point x="397" y="526" type="curve"/>
			<point x="388.065" y="526"/>
			<point x="380.225" y="521.313"/>
			<point x="375.806" y="514.263" type="curve"/>
			<point x="86.947" y="52.66" type="line"/>
			<point x="84.409" y="48.749"/>
			<point x="82.936" y="44.083"/>
			<point x="82.936" y="39.073" type="curve"/>
			<point x="82.936" y="25.266"/>
			<point x="94.128" y="14.073"/>
			<point x="107.936" y="14.073" type="curve"/>
			<point x="116.733" y="14.073"/>
			<point x="124.469" y="18.617"/>
		</contour>
		<contour>
			<point x="130" y="1093" type="curve"/>
			<point x="130" y="1235"/>
			<point x="245" y="1350"/>
			<point x="387" y="1350" type="curve"/>
			<point x="529" y="1350"/>
			<point x="644" y="1235"/>
			<point x="644" y="1093" type="curve"/>
			<point x="644" y="1079.193"/>
			<point x="655.193" y="1068"/>
			<point x="669" y="1068" type="curve"/>
			<point x="682.807" y="1068"/>
			<point x="694" y="1079.193"/>
			<point x="694" y="1093" type="curve"/>
			<point x="694" y="1262.511"/>
			<point x="556.511" y="1400"/>
			<point x="387" y="1400" type="curve"/>
			<point x="217.489" y="1400"/>
			<point x="80" y="1262.511"/>
			<point x="80" y="1093" type="curve"/>
			<point x="80" y="1079.193"/>
			<point x="91.193" y="1068"/>
			<point x="105" y="1068" type="curve"/>
			<point x="118.807" y="1068"/>
			<point x="130" y="1079.193"/>
		</contour>
	</outline>
</glyph>
<glyph name="three" format="2">
	<advance width="774"/>
	<unicode hex="0033"/>
	<outline>
		<contour>
			<point x="644" y="307" type="curve"/>
			<point x="644" y="165"/>
			<point x="529" y="50"/>
			<point x="387" y="50" type="curve"/>
			<point x="245" y="50"/>
			<point x="130" y="165"/>
			<point x="130" y="307" type="curve"/>
			<point x="130" y="320.807"/>
			<point x="118.807" y="332"/>
			<point x="105" y="332" type="curve"/>
			<point x="91.193" y="332"/>
			<point x="80" y="320.807"/>
			<point x="80" y="307" type="curve"/>
			<point x="80" y="137.489"/>
			<point x="217.489" y="0"/>
			<point x="387" y="0" type="curve"/>
			<point x="556.511" y="0"/>
			<point x="694" y="137.489"/>
			<point x="694" y="307" type="curve"/>
			<point x="694" y="320.807"/>
			<point x="682.807" y="332"/>
			<point x="669" y="332" type="curve"/>
			<point x="655.193" y="332"/>
			<point x="644" y="320.807"/>
		</contour>
		<contour>
			<point x="130" y="1093" type="curve"/>
			<point x="130" y="1235"/>
			<point x="245" y="1350"/>
			<point x="387" y="1350" type="curve"/>
			<point x="529" y="1350"/>
			<point x="644" y="1235"/>
			<point x="644" y="1093" type="curve"/>
			<point x="644" y="951"/>
			<point x="529" y="836"/>
			<point x="387" y="836" type="curve"/>
			<point x="373.193" y="836"/>
			<point x="362" y="824.807"/>
			<point x="362" y="811" type="curve"/>
			<point x="362" y="797.193"/>
			<point x="373.193" y="786"/>
			<point x="387" y="786" type="curve"/>
			<point x="556.511" y="786"/>
			<point x="694" y="923.489"/>
			<point x="694" y="1093" type="curve"/>
			<point x="694" y="1262.511"/>
			<point x="556.511" y="1400"/>
			<point x="387" y="1400" type="curve"/>
			<point x="217.489" y="1400"/>
			<point x="80" y="1262.511"/>
			<point x="80" y="1093" type="curve"/>
			<point x="80" y="1079.193"/>
			<point x="91.193" y="1068"/>
			<point x="105" y="1068" type="curve"/>
			<point x="118.807" y="1068"/>
			<point x="130" y="1079.193"/>
		</contour>
	</outline>
</glyph>
<glyph name="four" format="2">
	<advance width="774"/>
	<unicode hex="0034"/>
	<outline>
		<contour>
			<point x="435" y="425" type="curve"/>
			<point x="68.5" y="425" type="line"/>
			<point x="54.693" y="425"/>
			<point x="43.5" y="413.807"/>
			<point x="43.5" y="400" type="curve"/>
			<point x="43.5" y="386.193"/>
			<point x="54.693" y="375"/>
			<point x="68.5" y="375" type="curve"/>
			<point x="435" y="375" type="line"/>
			<point x="448.807" y="375"/>
			<point x="460" y="386.193"/>
			<point x="460" y="400" type="curve"/>
			<point x="460" y="413.807"/>
			<point x="448.807" y="425"/>
		</contour>
		<contour>
			<point x="670" y="1000" type="curve"/>
			<point x="670" y="25.5" type="line"/>
			<point x="670" y="11.693"/>
			<point x="681.193" y="0.5"/>
			<point x="695" y="0.5" type="curve"/>
			<point x="708.807" y="0.5"/>
			<point x="720" y="11.693"/>
			<point x="720" y="25.5" type="curve"/>
			<point x="720" y="1000" type="line"/>
			<point x="720" y="1013.807"/>
			<point x="708.807" y="1025"/>
			<point x="695" y="1025" type="curve"/>
			<point x="681.193" y="1025"/>
			<point x="670" y="1013.807"/>
		</contour>
		<contour>
			<point x="90.651" y="389.414" type="curve"/>
			<point x="546.135" y="1364.044" type="line"/>
			<point x="547.636" y="1367.255"/>
			<point x="548.474" y="1370.838"/>
			<point x="548.474" y="1374.616" type="curve"/>
			<point x="548.474" y="1388.423"/>
			<point x="537.281" y="1399.616"/>
			<point x="523.474" y="1399.616" type="curve"/>
			<point x="513.639" y="1399.616"/>
			<point x="505.131" y="1393.938"/>
			<point x="501.049" y="1385.681" type="curve"/>
			<point x="45.349" y="410.586" type="line"/>
			<point x="43.841" y="407.372"/>
			<point x="43" y="403.784"/>
			<point x="43" y="400" type="curve"/>
			<point x="43" y="386.193"/>
			<point x="54.193" y="375"/>
			<point x="68" y="375" type="curve"/>
			<point x="78.023" y="375"/>
			<point x="86.668" y="380.898"/>
		</contour>
	</outline>
</glyph>
<glyph name="five" format="2">
	<advance width="774"/>
	<unicode hex="0035"/>
	<outline>
		<contour>
			<point x="398" y="758" type="curve"/>
			<point x="559" y="758"/>
			<point x="689" y="628"/>
			<point x="689" y="467" type="curve"/>
			<point x="689" y="341" type="line"/>
			<point x="689" y="180"/>
			<point x="559" y="50"/>
			<point x="398" y="50" type="curve"/>
			<point x="237" y="50"/>
			<point x="107" y="180"/>
			<point x="107" y="341" type="curve"/>
			<point x="107" y="354.807"/>
			<point x="95.807" y="366"/>
			<point x="82" y="366" type="curve"/>
			<point x="68.193" y="366"/>
			<point x="57" y="354.807"/>
			<point x="57" y="341" type="curve"/>
			<point x="57" y="152.489"/>
			<point x="209.489" y="0"/>
			<point x="398" y="0" type="curve"/>
			<point x="586.511" y="0"/>
			<point x="739" y="152.489"/>
			<point x="739" y="341" type="curve"/>
			<point x="739" y="467" type="line"/>
			<point x="739" y="655.511"/>
			<point x="586.511" y="808"/>
			<point x="398" y="808" type="curve"/>
			<point x="384.193" y="808"/>
			<point x="373" y="796.807"/>
			<point x="373" y="783" type="curve"/>
			<point x="373" y="769.193"/>
			<point x="384.193" y="758"/>
		</contour>
		<contour>
			<point x="106" y="880" type="curve"/>
			<point x="106" y="1378" type="line"/>
			<point x="56" y="1378" type="line"/>
			<point x="56" y="880" type="line"/>
			<point x="56" y="866.193"/>
			<point x="67.193" y="855"/>
			<point x="81" y="855" type="curve"/>
			<point x="94.807" y="855"/>
			<point x="106" y="866.193"/>
		</contour>
		<contour>
			<point x="80.5" y="1350" type="curve"/>
			<point x="713.5" y="1350" type="line"/>
			<point x="727.307" y="1350"/>
			<point x="738.5" y="1361.193"/>
			<point x="738.5" y="1375" type="curve"/>
			<point x="738.5" y="1388.807"/>
			<point x="727.307" y="1400"/>
			<point x="713.5" y="1400" type="curve"/>
			<point x="80.5" y="1400" type="line"/>
			<point x="66.693" y="1400"/>
			<point x="55.5" y="1388.807"/>
			<point x="55.5" y="1375" type="curve"/>
			<point x="55.5" y="1361.193"/>
			<point x="66.693" y="1350"/>
		</contour>
	</outline>
</glyph>
<glyph name="six" format="2">
	<advance width="774"/>
	<unicode hex="0036"/>
	<outline>
		<contour>
			<point x="387" y="50" type="curve"/>
			<point x="231" y="50"/>
			<point x="103" y="176"/>
			<point x="103" y="334" type="curve"/>
			<point x="103" y="490"/>
			<point x="231" y="618"/>
			<point x="387" y="618" type="curve"/>
			<point x="543" y="618"/>
			<point x="671" y="490"/>
			<point x="671" y="334" type="curve"/>
			<point x="671" y="176"/>
			<point x="543" y="50"/>
		</contour>
		<contour>
			<point x="387" y="0" type="curve"/>
			<point x="570.28" y="0"/>
			<point x="721" y="148.258"/>
			<point x="721" y="334" type="curve"/>
			<point x="721" y="517.511"/>
			<point x="570.511" y="668"/>
			<point x="387" y="668" type="curve"/>
			<point x="203.489" y="668"/>
			<point x="53" y="517.511"/>
			<point x="53" y="334" type="curve"/>
			<point x="53" y="148.258"/>
			<point x="203.72" y="0"/>
		</contour>
		<contour>
			<point x="519.624" y="1387.142" type="curve"/>
			<point x="274.87" y="921.635" type="line"/>
			<point x="273.036" y="918.161"/>
			<point x="272" y="914.202"/>
			<point x="272" y="910" type="curve"/>
			<point x="272" y="896.193"/>
			<point x="283.193" y="885"/>
			<point x="297" y="885" type="curve"/>
			<point x="306.606" y="885"/>
			<point x="314.946" y="890.417"/>
			<point x="319.13" y="898.365" type="curve"/>
			<point x="563.435" y="1363.028" type="line"/>
			<point x="565.407" y="1366.603"/>
			<point x="566.529" y="1370.713"/>
			<point x="566.529" y="1375.085" type="curve"/>
			<point x="566.529" y="1388.892"/>
			<point x="555.336" y="1400.085"/>
			<point x="541.529" y="1400.085" type="curve"/>
			<point x="532.094" y="1400.085"/>
			<point x="523.88" y="1394.858"/>
		</contour>
	</outline>
</glyph>
<glyph name="seven" format="2">
	<advance width="774"/>
	<unicode hex="0037"/>
	<outline>
		<contour>
			<point x="220" y="0" type="curve" smooth="yes"/>
			<point x="230" y="0"/>
			<point x="240" y="7"/>
			<point x="243" y="16" type="curve" smooth="yes"/>
			<point x="729" y="1366" type="line" smooth="yes"/>
			<point x="734" y="1380"/>
			<point x="725" y="1400"/>
			<point x="705" y="1400" type="curve" smooth="yes"/>
			<point x="695" y="1400"/>
			<point x="685" y="1393"/>
			<point x="682" y="1384" type="curve" smooth="yes"/>
			<point x="196" y="34" type="line" smooth="yes"/>
			<point x="191" y="20"/>
			<point x="200" y="0"/>
		</contour>
		<contour>
			<point x="418.5" y="1400" type="curve"/>
			<point x="83.5" y="1400" type="line"/>
			<point x="69.693" y="1400"/>
			<point x="58.5" y="1388.807"/>
			<point x="58.5" y="1375" type="curve"/>
			<point x="58.5" y="1361.193"/>
			<point x="69.693" y="1350"/>
			<point x="83.5" y="1350" type="curve"/>
			<point x="418.5" y="1350" type="line"/>
			<point x="432.307" y="1350"/>
			<point x="443.5" y="1361.193"/>
			<point x="443.5" y="1375" type="curve"/>
			<point x="443.5" y="1388.807"/>
			<point x="432.307" y="1400"/>
		</contour>
	</outline>
</glyph>
<glyph name="eight" format="2">
	<advance width="774"/>
	<unicode hex="0038"/>
	<outline>
		<contour>
			<point x="694" y="307" type="curve"/>
			<point x="694" y="165"/>
			<point x="579" y="50"/>
			<point x="437" y="50" type="curve"/>
			<point x="423.193" y="50"/>
			<point x="412" y="38.807"/>
			<point x="412" y="25" type="curve"/>
			<point x="412" y="11.193"/>
			<point x="423.193" y="0"/>
			<point x="437" y="0" type="curve"/>
			<point x="606.511" y="0"/>
			<point x="744" y="137.489"/>
			<point x="744" y="307" type="curve"/>
			<point x="744" y="320.807"/>
			<point x="732.807" y="332"/>
			<point x="719" y="332" type="curve"/>
			<point x="705.193" y="332"/>
			<point x="694" y="320.807"/>
		</contour>
		<contour>
			<point x="644" y="982" type="curve"/>
			<point x="644" y="836.355"/>
			<point x="532.645" y="725"/>
			<point x="387" y="725" type="curve"/>
			<point x="217.045" y="725"/>
			<point x="80" y="587.955"/>
			<point x="80" y="418" type="curve"/>
			<point x="80" y="404.193"/>
			<point x="91.193" y="393"/>
			<point x="105" y="393" type="curve"/>
			<point x="118.807" y="393"/>
			<point x="130" y="404.193"/>
			<point x="130" y="418" type="curve"/>
			<point x="130" y="563.645"/>
			<point x="241.355" y="675"/>
			<point x="387" y="675" type="curve"/>
			<point x="556.955" y="675"/>
			<point x="694" y="812.045"/>
			<point x="694" y="982" type="curve"/>
			<point x="694" y="995.807"/>
			<point x="682.807" y="1007"/>
			<point x="669" y="1007" type="curve"/>
			<point x="655.193" y="1007"/>
			<point x="644" y="995.807"/>
		</contour>
		<contour>
			<point x="130" y="1093" type="curve"/>
			<point x="130" y="1235"/>
			<point x="245" y="1350"/>
			<point x="387" y="1350" type="curve"/>
			<point x="400.807" y="1350"/>
			<point x="412" y="1361.193"/>
			<point x="412" y="1375" type="curve"/>
			<point x="412" y="1388.807"/>
			<point x="400.807" y="1400"/>
			<point x="387" y="1400" type="curve"/>
			<point x="217.489" y="1400"/>
			<point x="80" y="1262.511"/>
			<point x="80" y="1093" type="curve"/>
			<point x="80" y="1079.193"/>
			<point x="91.193" y="1068"/>
			<point x="105" y="1068" type="curve"/>
			<point x="118.807" y="1068"/>
			<point x="130" y="1079.193"/>
		</contour>
	</outline>
</glyph>
<glyph name="nine" format="2">
	<advance width="774"/>
	<unicode hex="0039"/>
	<outline>
		<contour>
			<point x="387" y="782" type="curve" smooth="yes"/>
			<point x="231" y="782"/>
			<point x="103" y="910"/>
			<point x="103" y="1066" type="curve" smooth="yes"/>
			<point x="103" y="1224"/>
			<point x="231" y="1350"/>
			<point x="387" y="1350" type="curve" smooth="yes"/>
			<point x="543" y="1350"/>
			<point x="671" y="1224"/>
			<point x="671" y="1066" type="curve" smooth="yes"/>
			<point x="671" y="910"/>
			<point x="543" y="782"/>
		</contour>
		<contour>
			<point x="387" y="732" type="curve" smooth="yes"/>
			<point x="571" y="732"/>
			<point x="721" y="882"/>
			<point x="721" y="1066" type="curve" smooth="yes"/>
			<point x="721" y="1252"/>
			<point x="570" y="1400"/>
			<point x="387" y="1400" type="curve" smooth="yes"/>
			<point x="204" y="1400"/>
			<point x="53" y="1252"/>
			<point x="53" y="1066" type="curve" smooth="yes"/>
			<point x="53" y="882"/>
			<point x="203" y="732"/>
		</contour>
		<contour>
			<point x="254" y="13" type="curve" smooth="yes"/>
			<point x="499" y="478" type="line" smooth="yes"/>
			<point x="501" y="482"/>
			<point x="502" y="486"/>
			<point x="502" y="490" type="curve" smooth="yes"/>
			<point x="502" y="504"/>
			<point x="491" y="515"/>
			<point x="477" y="515" type="curve" smooth="yes"/>
			<point x="467" y="515"/>
			<point x="459" y="510"/>
			<point x="455" y="502" type="curve" smooth="yes"/>
			<point x="211" y="37" type="line" smooth="yes"/>
			<point x="209" y="33"/>
			<point x="207" y="29"/>
			<point x="207" y="25" type="curve" smooth="yes"/>
			<point x="207" y="11"/>
			<point x="219" y="0"/>
			<point x="232" y="0" type="curve" smooth="yes"/>
			<point x="242" y="0"/>
			<point x="250" y="5"/>
		</contour>
	</outline>
</glyph>
<glyph name="colon" format="2">
	<advance width="235"/>
	<unicode hex="003A"/>
	<outline>
		<contour>
			<point x="117" y="983" type="curve" smooth="yes"/>
			<point x="138" y="983"/>
			<point x="155" y="1000"/>
			<point x="155" y="1020" type="curve" smooth="yes"/>
			<point x="155" y="1041"/>
			<point x="138" y="1058"/>
			<point x="117" y="1058" type="curve" smooth="yes"/>
			<point x="97" y="1058"/>
			<point x="80" y="1041"/>
			<point x="80" y="1020" type="curve" smooth="yes"/>
			<point x="80" y="1000"/>
			<point x="97" y="983"/>
		</contour>
		<contour>
			<point x="117" y="343" type="curve" smooth="yes"/>
			<point x="138" y="343"/>
			<point x="155" y="360"/>
			<point x="155" y="380" type="curve" smooth="yes"/>
			<point x="155" y="401"/>
			<point x="138" y="418"/>
			<point x="117" y="418" type="curve" smooth="yes"/>
			<point x="97" y="418"/>
			<point x="80" y="401"/>
			<point x="80" y="380" type="curve" smooth="yes"/>
			<point x="80" y="360"/>
			<point x="97" y="343"/>
		</contour>
	</outline>
</glyph>
<glyph name="semicolon" format="2">
	<advance width="319"/>
	<unicode hex="003B"/>
	<outline>
		<contour>
			<point x="201" y="785" type="curve" smooth="yes"/>
			<point x="222" y="785"/>
			<point x="239" y="802"/>
			<point x="239" y="822" type="curve" smooth="yes"/>
			<point x="239" y="843"/>
			<point x="222" y="860"/>
			<point x="201" y="860" type="curve" smooth="yes"/>
			<point x="181" y="860"/>
			<point x="164" y="843"/>
			<point x="164" y="822" type="curve" smooth="yes"/>
			<point x="164" y="802"/>
			<point x="181" y="785"/>
		</contour>
		<component base="comma"/>
	</outline>
</glyph>
<glyph name="less" format="2">
	<advance width="1207"/>
	<unicode hex="003C"/>
	<outline>
		<contour>
			<point x="1107.683" y="240.951" type="curve"/>
			<point x="626.45" y="465.896" type="line"/>
			<point x="623.114" y="467.545"/>
			<point x="619.357" y="468.472"/>
			<point x="615.383" y="468.472" type="curve"/>
			<point x="601.576" y="468.472"/>
			<point x="590.383" y="457.28"/>
			<point x="590.383" y="443.472" type="curve"/>
			<point x="590.383" y="433.638"/>
			<point x="596.061" y="425.131"/>
			<point x="604.317" y="421.049" type="curve"/>
			<point x="1085.55" y="196.104" type="line"/>
			<point x="1088.886" y="194.455"/>
			<point x="1092.643" y="193.528"/>
			<point x="1096.617" y="193.528" type="curve"/>
			<point x="1110.424" y="193.528"/>
			<point x="1121.617" y="204.72"/>
			<point x="1121.617" y="218.528" type="curve"/>
			<point x="1121.617" y="228.362"/>
			<point x="1115.939" y="236.869"/>
		</contour>
		<contour>
			<point x="1078.155" y="1200.248" type="curve"/>
			<point x="99.144" y="736.004" type="line"/>
			<point x="90.953" y="731.899"/>
			<point x="85.33" y="723.427"/>
			<point x="85.33" y="713.64" type="curve"/>
			<point x="85.33" y="699.833"/>
			<point x="96.523" y="688.64"/>
			<point x="110.33" y="688.64" type="curve"/>
			<point x="114.164" y="688.64"/>
			<point x="117.797" y="689.504"/>
			<point x="128.845" y="694.752" type="curve"/>
			<point x="1107.856" y="1158.996" type="line"/>
			<point x="1116.047" y="1163.101"/>
			<point x="1121.67" y="1171.573"/>
			<point x="1121.67" y="1181.36" type="curve"/>
			<point x="1121.67" y="1195.167"/>
			<point x="1110.477" y="1206.36"/>
			<point x="1096.67" y="1206.36" type="curve"/>
			<point x="1092.836" y="1206.36"/>
			<point x="1089.203" y="1205.496"/>
		</contour>
	</outline>
</glyph>
<glyph name="equal" format="2">
	<advance width="981"/>
	<unicode hex="003D"/>
	<outline>
		<contour>
			<point x="905.5" y="480" type="curve"/>
			<point x="75.5" y="480" type="line"/>
			<point x="61.693" y="480"/>
			<point x="50.5" y="468.807"/>
			<point x="50.5" y="455" type="curve"/>
			<point x="50.5" y="441.193"/>
			<point x="61.693" y="430"/>
			<point x="75.5" y="430" type="curve"/>
			<point x="905.5" y="430" type="line"/>
			<point x="919.307" y="430"/>
			<point x="930.5" y="441.193"/>
			<point x="930.5" y="455" type="curve"/>
			<point x="930.5" y="468.807"/>
			<point x="919.307" y="480"/>
		</contour>
		<contour>
			<point x="905.5" y="970" type="curve"/>
			<point x="75.5" y="970" type="line"/>
			<point x="61.693" y="970"/>
			<point x="50.5" y="958.807"/>
			<point x="50.5" y="945" type="curve"/>
			<point x="50.5" y="931.193"/>
			<point x="61.693" y="920"/>
			<point x="75.5" y="920" type="curve"/>
			<point x="905.5" y="920" type="line"/>
			<point x="919.307" y="920"/>
			<point x="930.5" y="931.193"/>
			<point x="930.5" y="945" type="curve"/>
			<point x="930.5" y="958.807"/>
			<point x="919.307" y="970"/>
		</contour>
	</outline>
</glyph>
<glyph name="question" format="2">
	<advance width="892"/>
	<unicode hex="003F"/>
	<outline>
		<contour>
			<point x="405" y="0" type="curve" smooth="yes"/>
			<point x="426" y="0"/>
			<point x="443" y="17"/>
			<point x="443" y="38" type="curve" smooth="yes"/>
			<point x="443" y="58"/>
			<point x="426" y="75"/>
			<point x="405" y="75" type="curve" smooth="yes"/>
			<point x="385" y="75"/>
			<point x="368" y="58"/>
			<point x="368" y="38" type="curve" smooth="yes"/>
			<point x="368" y="17"/>
			<point x="385" y="0"/>
		</contour>
		<contour>
			<point x="380" y="516" type="curve" smooth="yes"/>
			<point x="380" y="322" type="line" smooth="yes"/>
			<point x="380" y="308"/>
			<point x="391" y="297"/>
			<point x="405" y="297" type="curve" smooth="yes"/>
			<point x="419" y="297"/>
			<point x="430" y="308"/>
			<point x="430" y="322" type="curve" smooth="yes"/>
			<point x="430" y="516" type="line" smooth="yes"/>
			<point x="430" y="529"/>
			<point x="419" y="541"/>
			<point x="405" y="541" type="curve" smooth="yes"/>
			<point x="391" y="541"/>
			<point x="380" y="529"/>
		</contour>
		<contour>
			<point x="128" y="1242" type="curve" smooth="yes"/>
			<point x="272" y="1386"/>
			<point x="504" y="1386"/>
			<point x="648" y="1242" type="curve" smooth="yes"/>
			<point x="793" y="1097"/>
			<point x="793" y="865"/>
			<point x="648" y="721" type="curve" smooth="yes"/>
			<point x="643" y="716"/>
			<point x="641" y="710"/>
			<point x="641" y="703" type="curve" smooth="yes"/>
			<point x="641" y="689"/>
			<point x="652" y="678"/>
			<point x="666" y="678" type="curve" smooth="yes"/>
			<point x="672" y="678"/>
			<point x="679" y="681"/>
			<point x="683" y="686" type="curve"/>
			<point x="848" y="849"/>
			<point x="848" y="1113"/>
			<point x="683" y="1277" type="curve" smooth="yes"/>
			<point x="520" y="1441"/>
			<point x="256" y="1441"/>
			<point x="93" y="1277" type="curve"/>
			<point x="88" y="1273"/>
			<point x="85" y="1267"/>
			<point x="85" y="1260" type="curve" smooth="yes"/>
			<point x="85" y="1246"/>
			<point x="97" y="1235"/>
			<point x="110" y="1235" type="curve" smooth="yes"/>
			<point x="117" y="1235"/>
			<point x="123" y="1237"/>
		</contour>
	</outline>
</glyph>
<glyph name="at" format="2">
	<advance width="1356"/>
	<unicode hex="0040"/>
	<outline>
		<contour>
			<point x="747" y="471" type="curve"/>
			<point x="620" y="471"/>
			<point x="518" y="573"/>
			<point x="518" y="700" type="curve"/>
			<point x="518" y="827"/>
			<point x="620" y="929"/>
			<point x="747" y="929" type="curve"/>
			<point x="874" y="929"/>
			<point x="976" y="827"/>
			<point x="976" y="700" type="curve"/>
			<point x="976" y="573"/>
			<point x="874" y="471"/>
		</contour>
		<contour>
			<point x="747" y="421" type="curve"/>
			<point x="901.511" y="421"/>
			<point x="1026" y="545.489"/>
			<point x="1026" y="700" type="curve"/>
			<point x="1026" y="854.511"/>
			<point x="901.511" y="979"/>
			<point x="747" y="979" type="curve"/>
			<point x="592.489" y="979"/>
			<point x="468" y="854.511"/>
			<point x="468" y="700" type="curve"/>
			<point x="468" y="545.489"/>
			<point x="592.489" y="421"/>
		</contour>
		<contour>
			<point x="1245.5" y="43" type="curve"/>
			<point x="767" y="43" type="line"/>
			<point x="599" y="43"/>
			<point x="433" y="106"/>
			<point x="305" y="234" type="curve"/>
			<point x="50" y="489"/>
			<point x="50" y="904"/>
			<point x="305" y="1159" type="curve"/>
			<point x="554.889" y="1408.889"/>
			<point x="957.467" y="1413.898"/>
			<point x="1214.417" y="1173.086" type="curve"/>
			<point x="1218.888" y="1168.894"/>
			<point x="1224.901" y="1166.327"/>
			<point x="1231.513" y="1166.327" type="curve"/>
			<point x="1245.32" y="1166.327"/>
			<point x="1256.513" y="1177.52"/>
			<point x="1256.513" y="1191.327" type="curve"/>
			<point x="1256.513" y="1198.522"/>
			<point x="1253.474" y="1205.007"/>
			<point x="1248.609" y="1209.568" type="curve"/>
			<point x="972.12" y="1468.698"/>
			<point x="538.603" y="1463.314"/>
			<point x="269.645" y="1194.355" type="curve"/>
			<point x="-4.808" y="919.902"/>
			<point x="-4.808" y="473.098"/>
			<point x="269.645" y="198.645" type="curve"/>
			<point x="407.351" y="60.938"/>
			<point x="586.831" y="-7"/>
			<point x="767" y="-7" type="curve"/>
			<point x="1245.5" y="-7" type="line"/>
			<point x="1259.307" y="-7"/>
			<point x="1270.5" y="4.193"/>
			<point x="1270.5" y="18" type="curve"/>
			<point x="1270.5" y="31.807"/>
			<point x="1259.307" y="43"/>
		</contour>
	</outline>
</glyph>
<glyph name="A" format="2">
	<advance width="1352"/>
	<unicode hex="0041"/>
	<unicode hex="0061"/>
	<anchor x="676" y="0" name="bottom"/>
	<anchor x="1267" y="0" name="ogonek"/>
	<anchor x="676" y="1400" name="top"/>
	<outline>
		<contour>
			<point x="107.576" y="14.48" type="curve"/>
			<point x="389.272" y="680.547" type="line"/>
			<point x="390.537" y="683.537"/>
			<point x="391.236" y="686.826"/>
			<point x="391.236" y="690.277" type="curve"/>
			<point x="391.236" y="704.084"/>
			<point x="380.043" y="715.277"/>
			<point x="366.236" y="715.277" type="curve"/>
			<point x="356.082" y="715.277"/>
			<point x="347.342" y="709.223"/>
			<point x="343.428" y="700.528" type="curve"/>
			<point x="61.728" y="34.453" type="line"/>
			<point x="60.463" y="31.463"/>
			<point x="59.764" y="28.174"/>
			<point x="59.764" y="24.723" type="curve"/>
			<point x="59.764" y="10.916"/>
			<point x="70.957" y="-0.277"/>
			<point x="84.764" y="-0.277" type="curve"/>
			<point x="94.922" y="-0.277"/>
			<point x="103.664" y="5.78"/>
		</contour>
		<contour>
			<point x="1284.727" y="47.078" type="curve"/>
			<point x="710.626" y="1385.685" type="line"/>
			<point x="706.688" y="1394.32"/>
			<point x="697.979" y="1400.322"/>
			<point x="687.869" y="1400.322" type="curve"/>
			<point x="674.061" y="1400.322"/>
			<point x="662.869" y="1389.129"/>
			<point x="662.869" y="1375.322" type="curve"/>
			<point x="662.869" y="1371.821"/>
			<point x="663.588" y="1368.489"/>
			<point x="670.273" y="1352.921" type="curve"/>
			<point x="1244.374" y="14.315" type="line"/>
			<point x="1248.312" y="5.68"/>
			<point x="1257.021" y="-0.322"/>
			<point x="1267.131" y="-0.322" type="curve"/>
			<point x="1280.939" y="-0.322"/>
			<point x="1292.131" y="10.871"/>
			<point x="1292.131" y="24.678" type="curve"/>
			<point x="1292.131" y="28.179"/>
			<point x="1291.412" y="31.511"/>
		</contour>
	</outline>
</glyph>
<glyph name="B" format="2">
	<advance width="1200"/>
	<unicode hex="0042"/>
	<unicode hex="0062"/>
	<anchor x="594" y="0" name="bottom"/>
	<anchor x="594" y="700" name="center"/>
	<anchor x="594" y="1400" name="top"/>
	<outline>
		<contour>
			<point x="135" y="25.5" type="curve"/>
			<point x="135" y="977.5" type="line"/>
			<point x="135" y="991.307"/>
			<point x="123.807" y="1002.5"/>
			<point x="110" y="1002.5" type="curve"/>
			<point x="96.193" y="1002.5"/>
			<point x="85" y="991.307"/>
			<point x="85" y="977.5" type="curve"/>
			<point x="85" y="25.5" type="line"/>
			<point x="85" y="11.693"/>
			<point x="96.193" y="0.5"/>
			<point x="110" y="0.5" type="curve"/>
			<point x="123.807" y="0.5"/>
			<point x="135" y="11.693"/>
		</contour>
		<contour>
			<point x="615" y="675" type="line"/>
			<point x="795" y="675" type="line"/>
			<point x="967" y="675"/>
			<point x="1107" y="507"/>
			<point x="1107" y="348" type="curve"/>
			<point x="1107" y="190"/>
			<point x="967" y="50"/>
			<point x="795" y="50" type="curve"/>
			<point x="557.5" y="50" type="line"/>
			<point x="543.693" y="50"/>
			<point x="532.5" y="38.807"/>
			<point x="532.5" y="25" type="curve"/>
			<point x="532.5" y="11.193"/>
			<point x="543.693" y="0"/>
			<point x="557.5" y="0" type="curve"/>
			<point x="795" y="0" type="line"/>
			<point x="994.511" y="0"/>
			<point x="1157" y="162.489"/>
			<point x="1157" y="348" type="curve"/>
			<point x="1157" y="531.902"/>
			<point x="997.219" y="725"/>
			<point x="795" y="725" type="curve"/>
			<point x="615" y="725" type="line"/>
		</contour>
		<contour>
			<point x="447.5" y="675" type="curve"/>
			<point x="695" y="675" type="line"/>
			<point x="894.511" y="675"/>
			<point x="1057" y="837.489"/>
			<point x="1057" y="1038" type="curve"/>
			<point x="1057" y="1238.616"/>
			<point x="894.406" y="1400"/>
			<point x="695" y="1400" type="curve"/>
			<point x="110" y="1400" type="line"/>
			<point x="96.193" y="1400"/>
			<point x="85" y="1388.807"/>
			<point x="85" y="1375" type="curve"/>
			<point x="85" y="1361.193"/>
			<point x="96.193" y="1350"/>
			<point x="110" y="1350" type="curve"/>
			<point x="695" y="1350" type="line"/>
			<point x="867" y="1350"/>
			<point x="1007" y="1211"/>
			<point x="1007" y="1038" type="curve"/>
			<point x="1007" y="865"/>
			<point x="867" y="725"/>
			<point x="695" y="725" type="curve"/>
			<point x="447.5" y="725" type="line"/>
			<point x="433.693" y="725"/>
			<point x="422.5" y="713.807"/>
			<point x="422.5" y="700" type="curve"/>
			<point x="422.5" y="686.193"/>
			<point x="433.693" y="675"/>
		</contour>
	</outline>
</glyph>
<glyph name="D" format="2">
	<advance width="1270"/>
	<unicode hex="0044"/>
	<unicode hex="0064"/>
	<anchor x="623" y="0" name="bottom"/>
	<anchor x="623" y="700" name="center"/>
	<anchor x="573" y="1400" name="top"/>
	<outline>
		<contour>
			<point x="87" y="768.5" type="curve"/>
			<point x="87" y="25.5" type="line"/>
			<point x="87" y="11.693"/>
			<point x="98.193" y="0.5"/>
			<point x="112" y="0.5" type="curve"/>
			<point x="125.807" y="0.5"/>
			<point x="137" y="11.693"/>
			<point x="137" y="25.5" type="curve"/>
			<point x="137" y="768.5" type="line"/>
			<point x="137" y="782.307"/>
			<point x="125.807" y="793.5"/>
			<point x="112" y="793.5" type="curve"/>
			<point x="98.193" y="793.5"/>
			<point x="87" y="782.307"/>
		</contour>
		<contour>
			<point x="506" y="0" type="curve"/>
			<point x="892.511" y="0"/>
			<point x="1206" y="313.489"/>
			<point x="1206" y="700" type="curve"/>
			<point x="1206" y="1086.511"/>
			<point x="892.511" y="1400"/>
			<point x="506" y="1400" type="curve"/>
			<point x="109.5" y="1400" type="line"/>
			<point x="95.693" y="1400"/>
			<point x="84.5" y="1388.807"/>
			<point x="84.5" y="1375" type="curve"/>
			<point x="84.5" y="1361.193"/>
			<point x="95.693" y="1350"/>
			<point x="109.5" y="1350" type="curve"/>
			<point x="506" y="1350" type="line"/>
			<point x="865" y="1350"/>
			<point x="1156" y="1059"/>
			<point x="1156" y="700" type="curve"/>
			<point x="1156" y="341"/>
			<point x="865" y="50"/>
			<point x="506" y="50" type="curve"/>
			<point x="492.193" y="50"/>
			<point x="481" y="38.807"/>
			<point x="481" y="25" type="curve"/>
			<point x="481" y="11.193"/>
			<point x="492.193" y="0"/>
		</contour>
	</outline>
</glyph>
<glyph name="E" format="2">
	<advance width="1001"/>
	<unicode hex="0045"/>
	<unicode hex="0065"/>
	<anchor x="488" y="0" name="bottom"/>
	<anchor x="906" y="1" name="ogonek"/>
	<anchor x="488" y="1400" name="top"/>
	<anchor x="-5" y="1400" name="topleft"/>
	<outline>
		<contour>
			<point x="135" y="28" type="line"/>
			<point x="135" y="735.5" type="line"/>
			<point x="135" y="749.307"/>
			<point x="123.807" y="760.5"/>
			<point x="110" y="760.5" type="curve"/>
			<point x="96.193" y="760.5"/>
			<point x="85" y="749.307"/>
			<point x="85" y="735.5" type="curve"/>
			<point x="85" y="28" type="line"/>
		</contour>
		<contour>
			<point x="905.5" y="50" type="curve"/>
			<point x="110" y="50" type="line"/>
			<point x="96.193" y="50"/>
			<point x="85" y="38.807"/>
			<point x="85" y="25" type="curve"/>
			<point x="85" y="11.193"/>
			<point x="96.193" y="0"/>
			<point x="110" y="0" type="curve"/>
			<point x="905.5" y="0" type="line"/>
			<point x="919.307" y="0"/>
			<point x="930.5" y="11.193"/>
			<point x="930.5" y="25" type="curve"/>
			<point x="930.5" y="38.807"/>
			<point x="919.307" y="50"/>
		</contour>
		<contour>
			<point x="405.5" y="675" type="curve"/>
			<point x="905.5" y="675" type="line"/>
			<point x="919.307" y="675"/>
			<point x="930.5" y="686.193"/>
			<point x="930.5" y="700" type="curve"/>
			<point x="930.5" y="713.807"/>
			<point x="919.307" y="725"/>
			<point x="905.5" y="725" type="curve"/>
			<point x="405.5" y="725" type="line"/>
			<point x="391.693" y="725"/>
			<point x="380.5" y="713.807"/>
			<point x="380.5" y="700" type="curve"/>
			<point x="380.5" y="686.193"/>
			<point x="391.693" y="675"/>
		</contour>
		<contour>
			<point x="110" y="1350" type="curve"/>
			<point x="905.5" y="1350" type="line"/>
			<point x="919.307" y="1350"/>
			<point x="930.5" y="1361.193"/>
			<point x="930.5" y="1375" type="curve"/>
			<point x="930.5" y="1388.807"/>
			<point x="919.307" y="1400"/>
			<point x="905.5" y="1400" type="curve"/>
			<point x="110" y="1400" type="line"/>
			<point x="96.193" y="1400"/>
			<point x="85" y="1388.807"/>
			<point x="85" y="1375" type="curve"/>
			<point x="85" y="1361.193"/>
			<point x="96.193" y="1350"/>
		</contour>
	</outline>
</glyph>
<glyph name="F" format="2">
	<advance width="1001"/>
	<unicode hex="0046"/>
	<unicode hex="0066"/>
	<anchor x="488" y="0" name="bottom"/>
	<anchor x="488" y="1400" name="top"/>
	<outline>
		<contour>
			<point x="85" y="700" type="line"/>
			<point x="85" y="25" type="line"/>
			<point x="85" y="11.193"/>
			<point x="96.193" y="0"/>
			<point x="110" y="0" type="curve"/>
			<point x="123.807" y="0"/>
			<point x="135" y="11.193"/>
			<point x="135" y="25" type="curve"/>
			<point x="135" y="700" type="line"/>
		</contour>
		<contour>
			<point x="813.5" y="725" type="curve"/>
			<point x="110" y="725" type="line"/>
			<point x="96.193" y="725"/>
			<point x="85" y="713.807"/>
			<point x="85" y="700" type="curve"/>
			<point x="85" y="686.193"/>
			<point x="96.193" y="675"/>
			<point x="110" y="675" type="curve"/>
			<point x="813.5" y="675" type="line"/>
			<point x="827.307" y="675"/>
			<point x="838.5" y="686.193"/>
			<point x="838.5" y="700" type="curve"/>
			<point x="838.5" y="713.807"/>
			<point x="827.307" y="725"/>
		</contour>
		<contour>
			<point x="110" y="1350" type="curve"/>
			<point x="905.5" y="1350" type="line"/>
			<point x="919.307" y="1350"/>
			<point x="930.5" y="1361.193"/>
			<point x="930.5" y="1375" type="curve"/>
			<point x="930.5" y="1388.807"/>
			<point x="919.307" y="1400"/>
			<point x="905.5" y="1400" type="curve"/>
			<point x="110" y="1400" type="line"/>
			<point x="96.193" y="1400"/>
			<point x="85" y="1388.807"/>
			<point x="85" y="1375" type="curve"/>
			<point x="85" y="1361.193"/>
			<point x="96.193" y="1350"/>
		</contour>
	</outline>
</glyph>
<glyph name="G" format="2">
	<advance width="1346"/>
	<unicode hex="0047"/>
	<unicode hex="0067"/>
	<anchor x="686" y="0" name="bottom"/>
	<anchor x="776" y="1400" name="top"/>
	<outline>
		<contour>
			<point x="764" y="50" type="curve"/>
			<point x="405" y="50"/>
			<point x="114" y="341"/>
			<point x="114" y="700" type="curve"/>
			<point x="114" y="1059"/>
			<point x="405" y="1350"/>
			<point x="764" y="1350" type="curve"/>
			<point x="1235.5" y="1350" type="line"/>
			<point x="1249.307" y="1350"/>
			<point x="1260.5" y="1361.193"/>
			<point x="1260.5" y="1375" type="curve"/>
			<point x="1260.5" y="1388.807"/>
			<point x="1249.307" y="1400"/>
			<point x="1235.5" y="1400" type="curve"/>
			<point x="764" y="1400" type="line"/>
			<point x="377.489" y="1400"/>
			<point x="64" y="1086.511"/>
			<point x="64" y="700" type="curve"/>
			<point x="64" y="313.489"/>
			<point x="377.489" y="0"/>
			<point x="764" y="0" type="curve"/>
			<point x="777.807" y="0"/>
			<point x="789" y="11.193"/>
			<point x="789" y="25" type="curve"/>
			<point x="789" y="38.807"/>
			<point x="777.807" y="50"/>
		</contour>
		<contour>
			<point x="1258" y="25" type="curve"/>
			<point x="1258" y="608" type="line"/>
			<point x="1258" y="621.807"/>
			<point x="1246.807" y="633"/>
			<point x="1233" y="633" type="curve"/>
			<point x="1219.193" y="633"/>
			<point x="1208" y="621.807"/>
			<point x="1208" y="608" type="curve"/>
			<point x="1208" y="25" type="line"/>
			<point x="1208" y="11.193"/>
			<point x="1219.193" y="0"/>
			<point x="1233" y="0" type="curve"/>
			<point x="1246.807" y="0"/>
			<point x="1258" y="11.193"/>
		</contour>
	</outline>
</glyph>
<glyph name="H" format="2">
	<advance width="1226"/>
	<unicode hex="0048"/>
	<unicode hex="0068"/>
	<anchor x="613" y="0" name="bottom"/>
	<anchor x="613" y="700" name="center"/>
	<anchor x="613" y="1400" name="top"/>
	<anchor x="5" y="1400" name="topleft"/>
	<outline>
		<contour>
			<point x="135" y="25.5" type="curve"/>
			<point x="135" y="382.5" type="line"/>
			<point x="135" y="396.307"/>
			<point x="123.807" y="407.5"/>
			<point x="110" y="407.5" type="curve"/>
			<point x="96.193" y="407.5"/>
			<point x="85" y="396.307"/>
			<point x="85" y="382.5" type="curve"/>
			<point x="85" y="25.5" type="line"/>
			<point x="85" y="11.693"/>
			<point x="96.193" y="0.5"/>
			<point x="110" y="0.5" type="curve"/>
			<point x="123.807" y="0.5"/>
			<point x="135" y="11.693"/>
		</contour>
		<contour>
			<point x="85" y="1374.5" type="curve"/>
			<point x="85" y="700" type="line"/>
			<point x="85" y="686.193"/>
			<point x="96.193" y="675"/>
			<point x="110" y="675" type="curve"/>
			<point x="123.807" y="675"/>
			<point x="135" y="686.193"/>
			<point x="135" y="700" type="curve"/>
			<point x="135" y="1374.5" type="line"/>
			<point x="135" y="1388.307"/>
			<point x="123.807" y="1399.5"/>
			<point x="110" y="1399.5" type="curve"/>
			<point x="96.193" y="1399.5"/>
			<point x="85" y="1388.307"/>
		</contour>
		<contour>
			<point x="1116" y="725" type="line"/>
			<point x="110" y="725" type="line"/>
			<point x="110" y="675" type="line"/>
			<point x="1116" y="675" type="line"/>
		</contour>
		<contour>
			<point x="1091" y="700" type="curve"/>
			<point x="1091" y="25.5" type="line"/>
			<point x="1091" y="11.693"/>
			<point x="1102.193" y="0.5"/>
			<point x="1116" y="0.5" type="curve"/>
			<point x="1129.807" y="0.5"/>
			<point x="1141" y="11.693"/>
			<point x="1141" y="25.5" type="curve"/>
			<point x="1141" y="700" type="line"/>
			<point x="1141" y="713.807"/>
			<point x="1129.807" y="725"/>
			<point x="1116" y="725" type="curve"/>
			<point x="1102.193" y="725"/>
			<point x="1091" y="713.807"/>
		</contour>
		<contour>
			<point x="1141" y="1017.5" type="curve"/>
			<point x="1141" y="1374.5" type="line"/>
			<point x="1141" y="1388.307"/>
			<point x="1129.807" y="1399.5"/>
			<point x="1116" y="1399.5" type="curve"/>
			<point x="1102.193" y="1399.5"/>
			<point x="1091" y="1388.307"/>
			<point x="1091" y="1374.5" type="curve"/>
			<point x="1091" y="1017.5" type="line"/>
			<point x="1091" y="1003.693"/>
			<point x="1102.193" y="992.5"/>
			<point x="1116" y="992.5" type="curve"/>
			<point x="1129.807" y="992.5"/>
			<point x="1141" y="1003.693"/>
		</contour>
	</outline>
</glyph>
<glyph name="I" format="2">
	<advance width="220"/>
	<unicode hex="0049"/>
	<unicode hex="0131"/>
	<anchor x="110" y="0" name="bottom"/>
	<anchor x="109" y="0" name="ogonek"/>
	<anchor x="110" y="1400" name="top"/>
	<anchor x="-5" y="1400" name="topleft"/>
	<outline>
		<contour>
			<point x="135" y="25.5" type="curve"/>
			<point x="135" y="500" type="line"/>
			<point x="135" y="513.807"/>
			<point x="123.807" y="525"/>
			<point x="110" y="525" type="curve"/>
			<point x="96.193" y="525"/>
			<point x="85" y="513.807"/>
			<point x="85" y="500" type="curve"/>
			<point x="85" y="25.5" type="line"/>
			<point x="85" y="11.693"/>
			<point x="96.193" y="0.5"/>
			<point x="110" y="0.5" type="curve"/>
			<point x="123.807" y="0.5"/>
			<point x="135" y="11.693"/>
		</contour>
		<contour>
			<point x="135" y="900" type="curve"/>
			<point x="135" y="1374.5" type="line"/>
			<point x="135" y="1388.307"/>
			<point x="123.807" y="1399.5"/>
			<point x="110" y="1399.5" type="curve"/>
			<point x="96.193" y="1399.5"/>
			<point x="85" y="1388.307"/>
			<point x="85" y="1374.5" type="curve"/>
			<point x="85" y="900" type="line"/>
			<point x="85" y="886.193"/>
			<point x="96.193" y="875"/>
			<point x="110" y="875" type="curve"/>
			<point x="123.807" y="875"/>
			<point x="135" y="886.193"/>
		</contour>
	</outline>
</glyph>
<glyph name="J" format="2">
	<advance width="1133"/>
	<unicode hex="004A"/>
	<unicode hex="006A"/>
	<unicode hex="0237"/>
	<anchor x="559" y="0" name="bottom"/>
	<anchor x="1031" y="1399" name="top"/>
	<outline>
		<contour>
			<point x="1005" y="498" type="curve"/>
			<point x="1005" y="250"/>
			<point x="805" y="50"/>
			<point x="558" y="50" type="curve"/>
			<point x="310" y="50"/>
			<point x="110" y="250"/>
			<point x="110" y="498" type="curve"/>
			<point x="110" y="511.807"/>
			<point x="98.807" y="523"/>
			<point x="85" y="523" type="curve"/>
			<point x="71.193" y="523"/>
			<point x="60" y="511.807"/>
			<point x="60" y="498" type="curve"/>
			<point x="60" y="222.489"/>
			<point x="282.489" y="0"/>
			<point x="558" y="0" type="curve"/>
			<point x="832.511" y="0"/>
			<point x="1055" y="222.489"/>
			<point x="1055" y="498" type="curve"/>
			<point x="1055" y="511.807"/>
			<point x="1043.807" y="523"/>
			<point x="1030" y="523" type="curve"/>
			<point x="1016.193" y="523"/>
			<point x="1005" y="511.807"/>
		</contour>
		<contour>
			<point x="1056" y="900" type="curve"/>
			<point x="1056" y="1374.5" type="line"/>
			<point x="1056" y="1388.307"/>
			<point x="1044.807" y="1399.5"/>
			<point x="1031" y="1399.5" type="curve"/>
			<point x="1017.193" y="1399.5"/>
			<point x="1006" y="1388.307"/>
			<point x="1006" y="1374.5" type="curve"/>
			<point x="1006" y="900" type="line"/>
			<point x="1006" y="886.193"/>
			<point x="1017.193" y="875"/>
			<point x="1031" y="875" type="curve"/>
			<point x="1044.807" y="875"/>
			<point x="1056" y="886.193"/>
		</contour>
	</outline>
</glyph>
<glyph name="K" format="2">
	<advance width="1204"/>
	<unicode hex="004B"/>
	<unicode hex="006B"/>
	<anchor x="590" y="0" name="bottom"/>
	<anchor x="590" y="1400" name="top"/>
	<outline>
		<contour>
			<point x="135" y="25.5" type="curve"/>
			<point x="135" y="1374.5" type="line"/>
			<point x="135" y="1388.307"/>
			<point x="123.807" y="1399.5"/>
			<point x="110" y="1399.5" type="curve"/>
			<point x="96.193" y="1399.5"/>
			<point x="85" y="1388.307"/>
			<point x="85" y="1374.5" type="curve"/>
			<point x="85" y="25.5" type="line"/>
			<point x="85" y="11.693"/>
			<point x="96.193" y="0.5"/>
			<point x="110" y="0.5" type="curve"/>
			<point x="123.807" y="0.5"/>
			<point x="135" y="11.693"/>
		</contour>
		<contour>
			<point x="1136.768" y="42.588" type="curve"/>
			<point x="461.678" y="717.678" type="line"/>
			<point x="457.154" y="722.202"/>
			<point x="450.904" y="725"/>
			<point x="444" y="725" type="curve"/>
			<point x="430.193" y="725"/>
			<point x="419" y="713.807"/>
			<point x="419" y="700" type="curve"/>
			<point x="419" y="693.096"/>
			<point x="421.798" y="686.846"/>
			<point x="426.322" y="682.322" type="curve"/>
			<point x="1101.412" y="7.232" type="line"/>
			<point x="1105.936" y="2.708"/>
			<point x="1112.186" y="-0.09"/>
			<point x="1119.09" y="-0.09" type="curve"/>
			<point x="1132.897" y="-0.09"/>
			<point x="1144.09" y="11.103"/>
			<point x="1144.09" y="24.91" type="curve"/>
			<point x="1144.09" y="31.814"/>
			<point x="1141.292" y="38.064"/>
		</contour>
		<contour>
			<point x="1101.412" y="1392.768" type="curve"/>
			<point x="724.322" y="1015.678" type="line"/>
			<point x="719.798" y="1011.154"/>
			<point x="717" y="1004.904"/>
			<point x="717" y="998" type="curve"/>
			<point x="717" y="984.193"/>
			<point x="728.193" y="973"/>
			<point x="742" y="973" type="curve"/>
			<point x="748.904" y="973"/>
			<point x="755.154" y="975.798"/>
			<point x="759.678" y="980.322" type="curve"/>
			<point x="1136.768" y="1357.412" type="line"/>
			<point x="1141.292" y="1361.936"/>
			<point x="1144.09" y="1368.186"/>
			<point x="1144.09" y="1375.09" type="curve"/>
			<point x="1144.09" y="1388.897"/>
			<point x="1132.897" y="1400.09"/>
			<point x="1119.09" y="1400.09" type="curve"/>
			<point x="1112.186" y="1400.09"/>
			<point x="1105.936" y="1397.292"/>
		</contour>
	</outline>
</glyph>
<glyph name="L" format="2">
	<advance width="1165"/>
	<unicode hex="004C"/>
	<unicode hex="006C"/>
	<anchor x="570" y="0" name="bottom"/>
	<anchor x="570" y="700" name="center"/>
	<anchor x="112" y="1400" name="top"/>
	<anchor x="1145" y="1400" name="topright"/>
	<outline>
		<contour>
			<point x="1080" y="50" type="curve" smooth="yes"/>
			<point x="110" y="50" type="line" smooth="yes"/>
			<point x="96" y="50"/>
			<point x="85" y="39"/>
			<point x="85" y="25" type="curve" smooth="yes"/>
			<point x="85" y="11"/>
			<point x="96" y="0"/>
			<point x="110" y="0" type="curve" smooth="yes"/>
			<point x="1080" y="0" type="line" smooth="yes"/>
			<point x="1093" y="0"/>
			<point x="1105" y="11"/>
			<point x="1105" y="25" type="curve" smooth="yes"/>
			<point x="1105" y="39"/>
			<point x="1093" y="50"/>
		</contour>
		<contour>
			<point x="137" y="402" type="curve" smooth="yes"/>
			<point x="137" y="1375" type="line" smooth="yes"/>
			<point x="137" y="1388"/>
			<point x="126" y="1400"/>
			<point x="112" y="1400" type="curve" smooth="yes"/>
			<point x="98" y="1400"/>
			<point x="87" y="1388"/>
			<point x="87" y="1375" type="curve" smooth="yes"/>
			<point x="87" y="402" type="line" smooth="yes"/>
			<point x="87" y="388"/>
			<point x="98" y="377"/>
			<point x="112" y="377" type="curve" smooth="yes"/>
			<point x="126" y="377"/>
			<point x="137" y="388"/>
		</contour>
	</outline>
</glyph>
<glyph name="M" format="2">
	<advance width="1490"/>
	<unicode hex="004D"/>
	<unicode hex="006D"/>
	<anchor x="745" y="0" name="bottom"/>
	<anchor x="745" y="1400" name="top"/>
	<outline>
		<contour>
			<point x="85" y="1374.5" type="curve"/>
			<point x="85" y="25.5" type="line"/>
			<point x="85" y="11.693"/>
			<point x="96.193" y="0.5"/>
			<point x="110" y="0.5" type="curve"/>
			<point x="123.807" y="0.5"/>
			<point x="135" y="11.693"/>
			<point x="135" y="25.5" type="curve"/>
			<point x="135" y="1374.5" type="line"/>
			<point x="135" y="1388.307"/>
			<point x="123.807" y="1399.5"/>
			<point x="110" y="1399.5" type="curve"/>
			<point x="96.193" y="1399.5"/>
			<point x="85" y="1388.307"/>
		</contour>
		<contour>
			<point x="763.223" y="715.115" type="curve"/>
			<point x="129.63" y="1389.711" type="line"/>
			<point x="125.069" y="1394.567"/>
			<point x="118.591" y="1397.599"/>
			<point x="111.404" y="1397.599" type="curve"/>
			<point x="97.596" y="1397.599"/>
			<point x="86.404" y="1386.407"/>
			<point x="86.404" y="1372.599" type="curve"/>
			<point x="86.404" y="1365.978"/>
			<point x="88.978" y="1359.957"/>
			<point x="93.696" y="1354.935" type="curve"/>
			<point x="726.777" y="680.885" type="line"/>
			<point x="731.337" y="676.031"/>
			<point x="737.815" y="673"/>
			<point x="745" y="673" type="curve"/>
			<point x="758.807" y="673"/>
			<point x="770" y="684.193"/>
			<point x="770" y="698" type="curve"/>
			<point x="770" y="704.622"/>
			<point x="767.426" y="710.642"/>
		</contour>
		<contour>
			<point x="1355" y="1374.5" type="curve"/>
			<point x="1355" y="25.5" type="line"/>
			<point x="1355" y="11.693"/>
			<point x="1366.193" y="0.5"/>
			<point x="1380" y="0.5" type="curve"/>
			<point x="1393.807" y="0.5"/>
			<point x="1405" y="11.693"/>
			<point x="1405" y="25.5" type="curve"/>
			<point x="1405" y="1374.5" type="line"/>
			<point x="1405" y="1388.307"/>
			<point x="1393.807" y="1399.5"/>
			<point x="1380" y="1399.5" type="curve"/>
			<point x="1366.193" y="1399.5"/>
			<point x="1355" y="1388.307"/>
		</contour>
	</outline>
</glyph>
<glyph name="N" format="2">
	<advance width="1383"/>
	<unicode hex="004E"/>
	<unicode hex="006E"/>
	<anchor x="692" y="0" name="bottom"/>
	<anchor x="692" y="1400" name="top"/>
	<outline>
		<contour>
			<point x="135" y="25.5" type="curve"/>
			<point x="135" y="1374.5" type="line"/>
			<point x="135" y="1388.307"/>
			<point x="123.807" y="1399.5"/>
			<point x="110" y="1399.5" type="curve"/>
			<point x="96.193" y="1399.5"/>
			<point x="85" y="1388.307"/>
			<point x="85" y="1374.5" type="curve"/>
			<point x="85" y="25.5" type="line"/>
			<point x="85" y="11.693"/>
			<point x="96.193" y="0.5"/>
			<point x="110" y="0.5" type="curve"/>
			<point x="123.807" y="0.5"/>
			<point x="135" y="11.693"/>
		</contour>
		<contour>
			<point x="522.985" y="985.019" type="curve"/>
			<point x="1251.985" y="11.02" type="line"/>
			<point x="1292.015" y="40.98" type="line"/>
			<point x="563.015" y="1014.981" type="line"/>
			<point x="558.456" y="1021.064"/>
			<point x="551.188" y="1025"/>
			<point x="543" y="1025" type="curve"/>
			<point x="529.193" y="1025"/>
			<point x="518" y="1013.807"/>
			<point x="518" y="1000" type="curve"/>
			<point x="518" y="994.38"/>
			<point x="519.854" y="989.194"/>
		</contour>
		<contour>
			<point x="1298" y="25.5" type="curve"/>
			<point x="1298" y="1374.5" type="line"/>
			<point x="1298" y="1388.307"/>
			<point x="1286.807" y="1399.5"/>
			<point x="1273" y="1399.5" type="curve"/>
			<point x="1259.193" y="1399.5"/>
			<point x="1248" y="1388.307"/>
			<point x="1248" y="1374.5" type="curve"/>
			<point x="1248" y="25.5" type="line"/>
			<point x="1248" y="11.693"/>
			<point x="1259.193" y="0.5"/>
			<point x="1273" y="0.5" type="curve"/>
			<point x="1286.807" y="0.5"/>
			<point x="1298" y="11.693"/>
		</contour>
	</outline>
</glyph>
<glyph name="O" format="2">
	<advance width="1528"/>
	<unicode hex="004F"/>
	<unicode hex="006F"/>
	<anchor x="764" y="0" name="bottom"/>
	<anchor x="764" y="700" name="center"/>
	<anchor x="1375" y="10" name="ogonek"/>
	<anchor x="764" y="1400" name="top"/>
	<anchor x="20" y="1400" name="topleft"/>
	<anchor x="1223" y="1196" name="topright"/>
	<outline>
		<contour>
			<point x="269" y="1171" type="curve" smooth="yes"/>
			<point x="283" y="1171"/>
			<point x="294" y="1182"/>
			<point x="294" y="1196" type="curve" smooth="yes"/>
			<point x="294" y="1210"/>
			<point x="283" y="1221"/>
			<point x="269" y="1221" type="curve" smooth="yes"/>
			<point x="255" y="1221"/>
			<point x="244" y="1210"/>
			<point x="244" y="1196" type="curve" smooth="yes"/>
			<point x="244" y="1182"/>
			<point x="255" y="1171"/>
		</contour>
		<contour>
			<point x="764" y="1350" type="curve"/>
			<point x="1123" y="1350"/>
			<point x="1414" y="1059"/>
			<point x="1414" y="700" type="curve"/>
			<point x="1414" y="341"/>
			<point x="1123" y="50"/>
			<point x="764" y="50" type="curve"/>
			<point x="405" y="50"/>
			<point x="114" y="341"/>
			<point x="114" y="700" type="curve"/>
			<point x="114" y="713.807"/>
			<point x="102.807" y="725"/>
			<point x="89" y="725" type="curve"/>
			<point x="75.193" y="725"/>
			<point x="64" y="713.807"/>
			<point x="64" y="700" type="curve"/>
			<point x="64" y="313.489"/>
			<point x="377.489" y="0"/>
			<point x="764" y="0" type="curve"/>
			<point x="1150.511" y="0"/>
			<point x="1464" y="313.489"/>
			<point x="1464" y="700" type="curve"/>
			<point x="1464" y="1086.511"/>
			<point x="1150.511" y="1400"/>
			<point x="764" y="1400" type="curve"/>
			<point x="750.193" y="1400"/>
			<point x="739" y="1388.807"/>
			<point x="739" y="1375" type="curve"/>
			<point x="739" y="1361.193"/>
			<point x="750.193" y="1350"/>
		</contour>
	</outline>
</glyph>
<glyph name="P" format="2">
	<advance width="1175"/>
	<unicode hex="0050"/>
	<unicode hex="0070"/>
	<anchor x="575" y="0" name="bottom"/>
	<anchor x="575" y="1400" name="top"/>
	<outline>
		<contour>
			<point x="136" y="25.5" type="curve"/>
			<point x="136" y="661" type="line"/>
			<point x="136" y="674.807"/>
			<point x="124.807" y="686"/>
			<point x="111" y="686" type="curve"/>
			<point x="97.193" y="686"/>
			<point x="86" y="674.807"/>
			<point x="86" y="661" type="curve"/>
			<point x="86" y="25.5" type="line"/>
			<point x="86" y="11.693"/>
			<point x="97.193" y="0.5"/>
			<point x="111" y="0.5" type="curve"/>
			<point x="124.807" y="0.5"/>
			<point x="136" y="11.693"/>
		</contour>
		<contour>
			<point x="552" y="636" type="curve"/>
			<point x="727" y="636" type="line"/>
			<point x="937.511" y="636"/>
			<point x="1109" y="807.489"/>
			<point x="1109" y="1019" type="curve"/>
			<point x="1109" y="1229.609"/>
			<point x="937.412" y="1400"/>
			<point x="727" y="1400" type="curve"/>
			<point x="110" y="1400" type="line"/>
			<point x="96.193" y="1400"/>
			<point x="85" y="1388.807"/>
			<point x="85" y="1375" type="curve"/>
			<point x="85" y="1361.193"/>
			<point x="96.193" y="1350"/>
			<point x="110" y="1350" type="curve"/>
			<point x="727" y="1350" type="line"/>
			<point x="910" y="1350"/>
			<point x="1059" y="1202"/>
			<point x="1059" y="1019" type="curve"/>
			<point x="1059" y="835"/>
			<point x="910" y="686"/>
			<point x="727" y="686" type="curve"/>
			<point x="552" y="686" type="line"/>
			<point x="538.193" y="686"/>
			<point x="527" y="674.807"/>
			<point x="527" y="661" type="curve"/>
			<point x="527" y="647.193"/>
			<point x="538.193" y="636"/>
		</contour>
	</outline>
</glyph>
<glyph name="Q" format="2">
	<advance width="1528"/>
	<unicode hex="0051"/>
	<unicode hex="0071"/>
	<anchor x="764" y="0" name="bottom"/>
	<anchor x="764" y="1400" name="top"/>
	<outline>
		<contour>
			<point x="1455.678" y="42.678" type="curve"/>
			<point x="982.588" y="515.768" type="line"/>
			<point x="978.064" y="520.292"/>
			<point x="971.814" y="523.09"/>
			<point x="964.91" y="523.09" type="curve"/>
			<point x="951.103" y="523.09"/>
			<point x="939.91" y="511.897"/>
			<point x="939.91" y="498.09" type="curve"/>
			<point x="939.91" y="491.186"/>
			<point x="942.708" y="484.936"/>
			<point x="947.232" y="480.412" type="curve"/>
			<point x="1420.322" y="7.322" type="line"/>
			<point x="1424.846" y="2.798"/>
			<point x="1431.096" y="0"/>
			<point x="1438" y="0" type="curve"/>
			<point x="1451.807" y="0"/>
			<point x="1463" y="11.193"/>
			<point x="1463" y="25" type="curve"/>
			<point x="1463" y="31.904"/>
			<point x="1460.202" y="38.154"/>
		</contour>
		<contour>
			<point x="764" y="50" type="curve"/>
			<point x="405" y="50"/>
			<point x="114" y="341"/>
			<point x="114" y="700" type="curve"/>
			<point x="114" y="1059"/>
			<point x="405" y="1350"/>
			<point x="764" y="1350" type="curve"/>
			<point x="1123" y="1350"/>
			<point x="1414" y="1059"/>
			<point x="1414" y="700" type="curve"/>
			<point x="1414" y="686.193"/>
			<point x="1425.193" y="675"/>
			<point x="1439" y="675" type="curve"/>
			<point x="1452.807" y="675"/>
			<point x="1464" y="686.193"/>
			<point x="1464" y="700" type="curve"/>
			<point x="1464" y="1086.511"/>
			<point x="1150.511" y="1400"/>
			<point x="764" y="1400" type="curve"/>
			<point x="377.489" y="1400"/>
			<point x="64" y="1086.511"/>
			<point x="64" y="700" type="curve"/>
			<point x="64" y="313.489"/>
			<point x="377.489" y="0"/>
			<point x="764" y="0" type="curve"/>
			<point x="777.807" y="0"/>
			<point x="789" y="11.193"/>
			<point x="789" y="25" type="curve"/>
			<point x="789" y="38.807"/>
			<point x="777.807" y="50"/>
		</contour>
	</outline>
</glyph>
<glyph name="R" format="2">
	<advance width="1110"/>
	<unicode hex="0052"/>
	<unicode hex="0072"/>
	<anchor x="543" y="0" name="bottom"/>
	<anchor x="543" y="1400" name="top"/>
	<outline>
		<contour>
			<point x="137" y="25.5" type="curve"/>
			<point x="137" y="700" type="line"/>
			<point x="137" y="713.807"/>
			<point x="125.807" y="725"/>
			<point x="112" y="725" type="curve"/>
			<point x="98.193" y="725"/>
			<point x="87" y="713.807"/>
			<point x="87" y="700" type="curve"/>
			<point x="87" y="25.5" type="line"/>
			<point x="87" y="11.693"/>
			<point x="98.193" y="0.5"/>
			<point x="112" y="0.5" type="curve"/>
			<point x="125.807" y="0.5"/>
			<point x="137" y="11.693"/>
		</contour>
		<contour>
			<point x="1045.142" y="40.236" type="curve"/>
			<point x="561.905" y="676.127" type="line"/>
			<point x="557.339" y="682.127"/>
			<point x="550.122" y="686"/>
			<point x="542" y="686" type="curve"/>
			<point x="528.193" y="686"/>
			<point x="517" y="674.807"/>
			<point x="517" y="661" type="curve"/>
			<point x="517" y="655.315"/>
			<point x="518.898" y="650.073"/>
			<point x="522.095" y="645.873" type="curve"/>
			<point x="1005.631" y="9.592" type="line"/>
			<point x="1010.204" y="3.703"/>
			<point x="1017.353" y="-0.086"/>
			<point x="1025.386" y="-0.086" type="curve"/>
			<point x="1039.194" y="-0.086"/>
			<point x="1050.386" y="11.107"/>
			<point x="1050.386" y="24.914" type="curve"/>
			<point x="1050.386" y="30.688"/>
			<point x="1048.429" y="36.004"/>
		</contour>
		<contour>
			<point x="542" y="636" type="curve"/>
			<point x="628" y="636" type="line"/>
			<point x="838.511" y="636"/>
			<point x="1010" y="807.489"/>
			<point x="1010" y="1019" type="curve"/>
			<point x="1010" y="1229.609"/>
			<point x="838.412" y="1400"/>
			<point x="628" y="1400" type="curve"/>
			<point x="110" y="1400" type="line"/>
			<point x="96.193" y="1400"/>
			<point x="85" y="1388.807"/>
			<point x="85" y="1375" type="curve"/>
			<point x="85" y="1361.193"/>
			<point x="96.193" y="1350"/>
			<point x="110" y="1350" type="curve"/>
			<point x="628" y="1350" type="line"/>
			<point x="811" y="1350"/>
			<point x="960" y="1202"/>
			<point x="960" y="1019" type="curve"/>
			<point x="960" y="835"/>
			<point x="811" y="686"/>
			<point x="628" y="686" type="curve"/>
			<point x="542" y="686" type="line"/>
			<point x="528.193" y="686"/>
			<point x="517" y="674.807"/>
			<point x="517" y="661" type="curve"/>
			<point x="517" y="647.193"/>
			<point x="528.193" y="636"/>
		</contour>
	</outline>
</glyph>
<glyph name="S" format="2">
	<advance width="1088"/>
	<unicode hex="0053"/>
	<unicode hex="0073"/>
	<anchor x="544" y="0" name="bottom"/>
	<anchor x="544" y="1400" name="top"/>
	<outline>
		<contour>
			<point x="966" y="305" type="curve" smooth="yes"/>
			<point x="966" y="164"/>
			<point x="852" y="50"/>
			<point x="711" y="50" type="curve" smooth="yes"/>
			<point x="95" y="50" type="line" smooth="yes"/>
			<point x="81" y="50"/>
			<point x="70" y="39"/>
			<point x="70" y="25" type="curve" smooth="yes"/>
			<point x="70" y="11"/>
			<point x="81" y="0"/>
			<point x="95" y="0" type="curve" smooth="yes"/>
			<point x="711" y="0" type="line" smooth="yes"/>
			<point x="880" y="0"/>
			<point x="1016" y="136"/>
			<point x="1016" y="305" type="curve" smooth="yes"/>
			<point x="1016" y="319"/>
			<point x="1005" y="330"/>
			<point x="991" y="330" type="curve" smooth="yes"/>
			<point x="977" y="330"/>
			<point x="966" y="319"/>
		</contour>
		<contour>
			<point x="652" y="725" type="curve" smooth="yes"/>
			<point x="435" y="725" type="line" smooth="yes"/>
			<point x="421" y="725"/>
			<point x="410" y="714"/>
			<point x="410" y="700" type="curve" smooth="yes"/>
			<point x="410" y="686"/>
			<point x="421" y="675"/>
			<point x="435" y="675" type="curve" smooth="yes"/>
			<point x="652" y="675" type="line" smooth="yes"/>
			<point x="666" y="675"/>
			<point x="677" y="686"/>
			<point x="677" y="700" type="curve" smooth="yes"/>
			<point x="677" y="714"/>
			<point x="666" y="725"/>
		</contour>
		<contour>
			<point x="121" y="1095" type="curve" smooth="yes"/>
			<point x="121" y="1236"/>
			<point x="235" y="1350"/>
			<point x="376" y="1350" type="curve" smooth="yes"/>
			<point x="993" y="1350" type="line" smooth="yes"/>
			<point x="1006" y="1350"/>
			<point x="1018" y="1361"/>
			<point x="1018" y="1375" type="curve" smooth="yes"/>
			<point x="1018" y="1389"/>
			<point x="1006" y="1400"/>
			<point x="993" y="1400" type="curve" smooth="yes"/>
			<point x="376" y="1400" type="line" smooth="yes"/>
			<point x="207" y="1400"/>
			<point x="71" y="1264"/>
			<point x="71" y="1095" type="curve" smooth="yes"/>
			<point x="71" y="1081"/>
			<point x="82" y="1070"/>
			<point x="96" y="1070" type="curve" smooth="yes"/>
			<point x="110" y="1070"/>
			<point x="121" y="1081"/>
		</contour>
	</outline>
</glyph>
<glyph name="T" format="2">
	<advance width="1223"/>
	<unicode hex="0054"/>
	<unicode hex="0074"/>
	<anchor x="542" y="0" name="bottom"/>
	<anchor x="612" y="700" name="center"/>
	<anchor x="612" y="1400" name="top"/>
	<outline>
		<contour>
			<point x="586" y="1375" type="line"/>
			<point x="586" y="25.5" type="line"/>
			<point x="586" y="11.693"/>
			<point x="597.193" y="0.5"/>
			<point x="611" y="0.5" type="curve"/>
			<point x="624.807" y="0.5"/>
			<point x="636" y="11.693"/>
			<point x="636" y="25.5" type="curve"/>
			<point x="636" y="1375" type="line"/>
		</contour>
		<contour>
			<point x="84.5" y="1350" type="curve"/>
			<point x="610.5" y="1350" type="line"/>
			<point x="624.307" y="1350"/>
			<point x="635.5" y="1361.193"/>
			<point x="635.5" y="1375" type="curve"/>
			<point x="635.5" y="1388.807"/>
			<point x="624.307" y="1400"/>
			<point x="610.5" y="1400" type="curve"/>
			<point x="84.5" y="1400" type="line"/>
			<point x="70.693" y="1400"/>
			<point x="59.5" y="1388.807"/>
			<point x="59.5" y="1375" type="curve"/>
			<point x="59.5" y="1361.193"/>
			<point x="70.693" y="1350"/>
		</contour>
		<contour>
			<point x="869.5" y="1350" type="curve"/>
			<point x="1137.5" y="1350" type="line"/>
			<point x="1151.307" y="1350"/>
			<point x="1162.5" y="1361.193"/>
			<point x="1162.5" y="1375" type="curve"/>
			<point x="1162.5" y="1388.807"/>
			<point x="1151.307" y="1400"/>
			<point x="1137.5" y="1400" type="curve"/>
			<point x="869.5" y="1400" type="line"/>
			<point x="855.693" y="1400"/>
			<point x="844.5" y="1388.807"/>
			<point x="844.5" y="1375" type="curve"/>
			<point x="844.5" y="1361.193"/>
			<point x="855.693" y="1350"/>
		</contour>
	</outline>
</glyph>
<glyph name="U" format="2">
	<advance width="1165"/>
	<unicode hex="0055"/>
	<unicode hex="0075"/>
	<anchor x="583" y="0" name="bottom"/>
	<anchor x="583" y="0" name="ogonek"/>
	<anchor x="583" y="1400" name="top"/>
	<anchor x="1030" y="1374" name="topright"/>
	<outline>
		<contour>
			<point x="135" y="899" type="curve"/>
			<point x="135" y="1374.5" type="line"/>
			<point x="135" y="1388.307"/>
			<point x="123.807" y="1399.5"/>
			<point x="110" y="1399.5" type="curve"/>
			<point x="96.193" y="1399.5"/>
			<point x="85" y="1388.307"/>
			<point x="85" y="1374.5" type="curve"/>
			<point x="85" y="899" type="line"/>
			<point x="85" y="885.193"/>
			<point x="96.193" y="874"/>
			<point x="110" y="874" type="curve"/>
			<point x="123.807" y="874"/>
			<point x="135" y="885.193"/>
		</contour>
		<contour>
			<point x="1030" y="1374.5" type="curve"/>
			<point x="1030" y="498" type="line"/>
			<point x="1030" y="250"/>
			<point x="830" y="50"/>
			<point x="583" y="50" type="curve"/>
			<point x="342.151" y="50"/>
			<point x="146.574" y="238.632"/>
			<point x="135.495" y="476.67" type="curve"/>
			<point x="134.889" y="489.938"/>
			<point x="123.94" y="500.508"/>
			<point x="110.522" y="500.508" type="curve"/>
			<point x="95.606" y="500.508"/>
			<point x="84.949" y="487.449"/>
			<point x="85.549" y="474.347" type="curve"/>
			<point x="97.851" y="209.866"/>
			<point x="315.419" y="0"/>
			<point x="583" y="0" type="curve"/>
			<point x="857.511" y="0"/>
			<point x="1080" y="222.489"/>
			<point x="1080" y="498" type="curve"/>
			<point x="1080" y="1374.5" type="line"/>
			<point x="1080" y="1388.307"/>
			<point x="1068.807" y="1399.5"/>
			<point x="1055" y="1399.5" type="curve"/>
			<point x="1041.193" y="1399.5"/>
			<point x="1030" y="1388.307"/>
		</contour>
	</outline>
</glyph>
<glyph name="V" format="2">
	<advance width="1352"/>
	<unicode hex="0056"/>
	<unicode hex="0076"/>
	<anchor x="676" y="0" name="bottom"/>
	<anchor x="676" y="1400" name="top"/>
	<outline>
		<contour>
			<point x="384" y="733" type="curve" smooth="yes"/>
			<point x="108" y="1386" type="line" smooth="yes"/>
			<point x="104" y="1394"/>
			<point x="95" y="1400"/>
			<point x="85" y="1400" type="curve" smooth="yes"/>
			<point x="71" y="1400"/>
			<point x="60" y="1389"/>
			<point x="60" y="1375" type="curve" smooth="yes"/>
			<point x="60" y="1372"/>
			<point x="60" y="1369"/>
			<point x="67" y="1352" type="curve" smooth="yes"/>
			<point x="343" y="699" type="line" smooth="yes"/>
			<point x="347" y="691"/>
			<point x="356" y="685"/>
			<point x="366" y="685" type="curve" smooth="yes"/>
			<point x="380" y="685"/>
			<point x="391" y="696"/>
			<point x="391" y="710" type="curve" smooth="yes"/>
			<point x="391" y="713"/>
			<point x="391" y="716"/>
		</contour>
		<contour>
			<point x="711" y="14" type="curve" smooth="yes"/>
			<point x="1290" y="1365" type="line" smooth="yes"/>
			<point x="1291" y="1368"/>
			<point x="1292" y="1372"/>
			<point x="1292" y="1375" type="curve" smooth="yes"/>
			<point x="1292" y="1389"/>
			<point x="1281" y="1400"/>
			<point x="1267" y="1400" type="curve" smooth="yes"/>
			<point x="1257" y="1400"/>
			<point x="1248" y="1394"/>
			<point x="1244" y="1386" type="curve" smooth="yes"/>
			<point x="665" y="35" type="line" smooth="yes"/>
			<point x="664" y="32"/>
			<point x="663" y="28"/>
			<point x="663" y="25" type="curve" smooth="yes"/>
			<point x="663" y="11"/>
			<point x="674" y="0"/>
			<point x="688" y="0" type="curve" smooth="yes"/>
			<point x="698" y="0"/>
			<point x="707" y="6"/>
		</contour>
	</outline>
</glyph>
<glyph name="X" format="2">
	<advance width="1231"/>
	<unicode hex="0058"/>
	<unicode hex="0078"/>
	<anchor x="616" y="0" name="bottom"/>
	<anchor x="616" y="1400" name="top"/>
	<outline>
		<contour>
			<point x="361.333" y="417.435" type="curve"/>
			<point x="65.362" y="40.309" type="line"/>
			<point x="61.938" y="36.032"/>
			<point x="59.891" y="30.605"/>
			<point x="59.891" y="24.7" type="curve"/>
			<point x="59.891" y="10.893"/>
			<point x="71.084" y="-0.3"/>
			<point x="84.891" y="-0.3" type="curve"/>
			<point x="92.793" y="-0.3"/>
			<point x="99.839" y="3.366"/>
			<point x="104.42" y="9.09" type="curve"/>
			<point x="400.667" y="386.565" type="line"/>
			<point x="404.008" y="390.815"/>
			<point x="406" y="396.175"/>
			<point x="406" y="402" type="curve"/>
			<point x="406" y="415.807"/>
			<point x="394.807" y="427"/>
			<point x="381" y="427" type="curve"/>
			<point x="373.018" y="427"/>
			<point x="365.91" y="423.259"/>
		</contour>
		<contour>
			<point x="66.279" y="1358.544" type="curve"/>
			<point x="1126.578" y="9.072" type="line"/>
			<point x="1131.159" y="3.354"/>
			<point x="1138.202" y="-0.308"/>
			<point x="1146.099" y="-0.308" type="curve"/>
			<point x="1159.906" y="-0.308"/>
			<point x="1171.099" y="10.885"/>
			<point x="1171.099" y="24.692" type="curve"/>
			<point x="1171.099" y="30.522"/>
			<point x="1169.103" y="35.886"/>
			<point x="1164.722" y="41.455" type="curve"/>
			<point x="104.422" y="1390.927" type="line"/>
			<point x="99.841" y="1396.646"/>
			<point x="92.799" y="1400.308"/>
			<point x="84.901" y="1400.308" type="curve"/>
			<point x="71.094" y="1400.308"/>
			<point x="59.901" y="1389.115"/>
			<point x="59.901" y="1375.308" type="curve"/>
			<point x="59.901" y="1369.478"/>
			<point x="61.897" y="1364.114"/>
		</contour>
		<contour>
			<point x="1125.583" y="1390.857" type="curve"/>
			<point x="830.309" y="1013.404" type="line"/>
			<point x="826.983" y="1009.159"/>
			<point x="825" y="1003.811"/>
			<point x="825" y="998" type="curve"/>
			<point x="825" y="984.193"/>
			<point x="836.193" y="973"/>
			<point x="850" y="973" type="curve"/>
			<point x="857.996" y="973"/>
			<point x="865.115" y="976.754"/>
			<point x="869.691" y="982.596" type="curve"/>
			<point x="1164.691" y="1359.7" type="line"/>
			<point x="1168.099" y="1363.973"/>
			<point x="1170.137" y="1369.388"/>
			<point x="1170.137" y="1375.278" type="curve"/>
			<point x="1170.137" y="1389.086"/>
			<point x="1158.944" y="1400.278"/>
			<point x="1145.137" y="1400.278" type="curve"/>
			<point x="1137.22" y="1400.278"/>
			<point x="1130.163" y="1396.599"/>
		</contour>
	</outline>
</glyph>
<glyph name="Y" format="2">
	<advance width="1231"/>
	<unicode hex="0059"/>
	<unicode hex="0079"/>
	<anchor x="616" y="0" name="bottom"/>
	<anchor x="616" y="1400" name="top"/>
	<anchor x="20" y="1400" name="topleft"/>
	<outline>
		<contour>
			<point x="591" y="696.5" type="curve"/>
			<point x="591" y="25.5" type="line"/>
			<point x="591" y="11.693"/>
			<point x="602.193" y="0.5"/>
			<point x="616" y="0.5" type="curve"/>
			<point x="629.807" y="0.5"/>
			<point x="641" y="11.693"/>
			<point x="641" y="25.5" type="curve"/>
			<point x="641" y="696.5" type="line"/>
			<point x="641" y="710.307"/>
			<point x="629.807" y="721.5"/>
			<point x="616" y="721.5" type="curve"/>
			<point x="602.193" y="721.5"/>
			<point x="591" y="710.307"/>
		</contour>
		<contour>
			<point x="400.667" y="1013.435" type="curve"/>
			<point x="104.42" y="1390.91" type="line"/>
			<point x="99.839" y="1396.634"/>
			<point x="92.793" y="1400.3"/>
			<point x="84.891" y="1400.3" type="curve"/>
			<point x="71.084" y="1400.3"/>
			<point x="59.891" y="1389.107"/>
			<point x="59.891" y="1375.3" type="curve"/>
			<point x="59.891" y="1369.395"/>
			<point x="61.938" y="1363.968"/>
			<point x="65.362" y="1359.691" type="curve"/>
			<point x="361.333" y="982.565" type="line"/>
			<point x="365.91" y="976.741"/>
			<point x="373.018" y="973"/>
			<point x="381" y="973" type="curve"/>
			<point x="394.807" y="973"/>
			<point x="406" y="984.193"/>
			<point x="406" y="998" type="curve"/>
			<point x="406" y="1003.825"/>
			<point x="404.008" y="1009.185"/>
		</contour>
		<contour>
			<point x="1126.58" y="1390.889" type="curve"/>
			<point x="596.324" y="714.423" type="line"/>
			<point x="592.989" y="710.175"/>
			<point x="591" y="704.82"/>
			<point x="591" y="699" type="curve"/>
			<point x="591" y="685.193"/>
			<point x="602.193" y="674"/>
			<point x="616" y="674" type="curve"/>
			<point x="623.987" y="674"/>
			<point x="631.1" y="677.746"/>
			<point x="635.676" y="683.577" type="curve"/>
			<point x="1165.658" y="1359.695" type="line"/>
			<point x="1169.076" y="1363.97"/>
			<point x="1171.119" y="1369.392"/>
			<point x="1171.119" y="1375.292" type="curve"/>
			<point x="1171.119" y="1389.099"/>
			<point x="1159.927" y="1400.292"/>
			<point x="1146.119" y="1400.292" type="curve"/>
			<point x="1138.212" y="1400.292"/>
			<point x="1131.161" y="1396.621"/>
		</contour>
	</outline>
</glyph>
<glyph name="Z" format="2">
	<advance width="1219"/>
	<unicode hex="005A"/>
	<unicode hex="007A"/>
	<anchor x="610" y="0" name="bottom"/>
	<anchor x="610" y="700" name="center"/>
	<anchor x="610" y="1400" name="top"/>
	<outline>
		<contour>
			<point x="1134" y="50" type="curve" smooth="yes"/>
			<point x="85" y="50" type="line" smooth="yes"/>
			<point x="71" y="50"/>
			<point x="60" y="39"/>
			<point x="60" y="25" type="curve" smooth="yes"/>
			<point x="60" y="11"/>
			<point x="71" y="0"/>
			<point x="85" y="0" type="curve" smooth="yes"/>
			<point x="1134" y="0" type="line" smooth="yes"/>
			<point x="1147" y="0"/>
			<point x="1159" y="11"/>
			<point x="1159" y="25" type="curve" smooth="yes"/>
			<point x="1159" y="39"/>
			<point x="1147" y="50"/>
		</contour>
		<contour>
			<point x="109" y="16" type="curve" smooth="yes"/>
			<point x="692" y="762" type="line" smooth="yes"/>
			<point x="695" y="766"/>
			<point x="697" y="771"/>
			<point x="697" y="777" type="curve" smooth="yes"/>
			<point x="697" y="791"/>
			<point x="686" y="802"/>
			<point x="672" y="802" type="curve" smooth="yes"/>
			<point x="664" y="802"/>
			<point x="657" y="799"/>
			<point x="653" y="793" type="curve" smooth="yes"/>
			<point x="70" y="47" type="line" smooth="yes"/>
			<point x="67" y="43"/>
			<point x="65" y="38"/>
			<point x="65" y="32" type="curve" smooth="yes"/>
			<point x="65" y="18"/>
			<point x="76" y="7"/>
			<point x="90" y="7" type="curve" smooth="yes"/>
			<point x="98" y="7"/>
			<point x="105" y="10"/>
		</contour>
		<contour>
			<point x="1134" y="1396" type="curve" smooth="yes"/>
			<point x="85" y="1396" type="line" smooth="yes"/>
			<point x="71" y="1396"/>
			<point x="60" y="1385"/>
			<point x="60" y="1371" type="curve" smooth="yes"/>
			<point x="60" y="1357"/>
			<point x="71" y="1346"/>
			<point x="85" y="1346" type="curve" smooth="yes"/>
			<point x="1134" y="1346" type="line" smooth="yes"/>
			<point x="1147" y="1346"/>
			<point x="1159" y="1357"/>
			<point x="1159" y="1371" type="curve" smooth="yes"/>
			<point x="1159" y="1385"/>
			<point x="1147" y="1396"/>
		</contour>
	</outline>
</glyph>
<glyph name="bracketleft" format="2">
	<advance width="510"/>
	<unicode hex="005B"/>
	<outline>
		<contour>
			<point x="400" y="50" type="curve" smooth="yes"/>
			<point x="105" y="50" type="line" smooth="yes"/>
			<point x="91" y="50"/>
			<point x="80" y="39"/>
			<point x="80" y="25" type="curve" smooth="yes"/>
			<point x="80" y="11"/>
			<point x="91" y="0"/>
			<point x="105" y="0" type="curve" smooth="yes"/>
			<point x="400" y="0" type="line" smooth="yes"/>
			<point x="414" y="0"/>
			<point x="425" y="11"/>
			<point x="425" y="25" type="curve" smooth="yes"/>
			<point x="425" y="39"/>
			<point x="414" y="50"/>
		</contour>
		<contour>
			<point x="130" y="29" type="curve" smooth="yes"/>
			<point x="130" y="1062" type="line" smooth="yes"/>
			<point x="130" y="1075"/>
			<point x="119" y="1087"/>
			<point x="105" y="1087" type="curve" smooth="yes"/>
			<point x="91" y="1087"/>
			<point x="80" y="1075"/>
			<point x="80" y="1062" type="curve" smooth="yes"/>
			<point x="80" y="29" type="line" smooth="yes"/>
			<point x="80" y="15"/>
			<point x="91" y="4"/>
			<point x="105" y="4" type="curve" smooth="yes"/>
			<point x="119" y="4"/>
			<point x="130" y="15"/>
		</contour>
		<contour>
			<point x="400" y="1400" type="curve" smooth="yes"/>
			<point x="105" y="1400" type="line" smooth="yes"/>
			<point x="91" y="1400"/>
			<point x="80" y="1389"/>
			<point x="80" y="1375" type="curve" smooth="yes"/>
			<point x="80" y="1361"/>
			<point x="91" y="1350"/>
			<point x="105" y="1350" type="curve" smooth="yes"/>
			<point x="400" y="1350" type="line" smooth="yes"/>
			<point x="414" y="1350"/>
			<point x="425" y="1361"/>
			<point x="425" y="1375" type="curve" smooth="yes"/>
			<point x="425" y="1389"/>
			<point x="414" y="1400"/>
		</contour>
	</outline>
</glyph>
<glyph name="asciicircum" format="2">
	<advance width="760"/>
	<unicode hex="005E"/>
	<outline>
		<contour>
			<point x="360.525" y="1390.529" type="curve"/>
			<point x="90.984" y="1060.387" type="line"/>
			<point x="87.39" y="1056.057"/>
			<point x="85.23" y="1050.496"/>
			<point x="85.23" y="1044.429" type="curve"/>
			<point x="85.23" y="1030.622"/>
			<point x="96.422" y="1019.429"/>
			<point x="110.23" y="1019.429" type="curve"/>
			<point x="117.97" y="1019.429"/>
			<point x="124.889" y="1022.947"/>
			<point x="129.475" y="1028.471" type="curve"/>
			<point x="399.016" y="1358.613" type="line"/>
			<point x="402.61" y="1362.943"/>
			<point x="404.77" y="1368.504"/>
			<point x="404.77" y="1374.571" type="curve"/>
			<point x="404.77" y="1388.378"/>
			<point x="393.578" y="1399.571"/>
			<point x="379.77" y="1399.571" type="curve"/>
			<point x="372.03" y="1399.571"/>
			<point x="365.111" y="1396.053"/>
		</contour>
		<contour>
			<point x="360.984" y="1358.613" type="curve"/>
			<point x="630.525" y="1028.471" type="line"/>
			<point x="635.111" y="1022.947"/>
			<point x="642.03" y="1019.429"/>
			<point x="649.77" y="1019.429" type="curve"/>
			<point x="663.578" y="1019.429"/>
			<point x="674.77" y="1030.622"/>
			<point x="674.77" y="1044.429" type="curve"/>
			<point x="674.77" y="1050.496"/>
			<point x="672.61" y="1056.057"/>
			<point x="669.016" y="1060.387" type="curve"/>
			<point x="399.475" y="1390.529" type="line"/>
			<point x="394.889" y="1396.053"/>
			<point x="387.97" y="1399.571"/>
			<point x="380.23" y="1399.571" type="curve"/>
			<point x="366.422" y="1399.571"/>
			<point x="355.23" y="1388.378"/>
			<point x="355.23" y="1374.571" type="curve"/>
			<point x="355.23" y="1368.504"/>
			<point x="357.39" y="1362.943"/>
		</contour>
	</outline>
</glyph>
<glyph name="underscore" format="2">
	<advance width="1270"/>
	<unicode hex="005F"/>
	<outline>
		<contour>
			<point x="1159.5" y="0" type="curve"/>
			<point x="109.5" y="0" type="line"/>
			<point x="95.693" y="0"/>
			<point x="84.5" y="-11.193"/>
			<point x="84.5" y="-25" type="curve"/>
			<point x="84.5" y="-38.807"/>
			<point x="95.693" y="-50"/>
			<point x="109.5" y="-50" type="curve"/>
			<point x="1159.5" y="-50" type="line"/>
			<point x="1173.307" y="-50"/>
			<point x="1184.5" y="-38.807"/>
			<point x="1184.5" y="-25" type="curve"/>
			<point x="1184.5" y="-11.193"/>
			<point x="1173.307" y="0"/>
		</contour>
	</outline>
</glyph>
<glyph name="grave" format="2">
	<advance width="420"/>
	<unicode hex="0060"/>
	<outline>
		<contour>
			<point x="56" y="1359" type="curve" smooth="yes"/>
			<point x="326" y="1028" type="line" smooth="yes"/>
			<point x="330" y="1023"/>
			<point x="337" y="1019"/>
			<point x="345" y="1019" type="curve" smooth="yes"/>
			<point x="359" y="1019"/>
			<point x="370" y="1031"/>
			<point x="370" y="1044" type="curve" smooth="yes"/>
			<point x="370" y="1050"/>
			<point x="368" y="1056"/>
			<point x="364" y="1060" type="curve" smooth="yes"/>
			<point x="94" y="1391" type="line" smooth="yes"/>
			<point x="90" y="1396"/>
			<point x="83" y="1400"/>
			<point x="75" y="1400" type="curve" smooth="yes"/>
			<point x="61" y="1400"/>
			<point x="50" y="1388"/>
			<point x="50" y="1375" type="curve" smooth="yes"/>
			<point x="50" y="1369"/>
			<point x="52" y="1363"/>
		</contour>
	</outline>
</glyph>
<glyph name="braceleft" format="2">
	<advance width="606"/>
	<unicode hex="007B"/>
	<outline>
		<contour>
			<point x="110" y="675" type="curve" smooth="yes"/>
			<point x="124" y="675"/>
			<point x="135" y="686"/>
			<point x="135" y="700" type="curve" smooth="yes"/>
			<point x="135" y="714"/>
			<point x="124" y="725"/>
			<point x="110" y="725" type="curve" smooth="yes"/>
			<point x="96" y="725"/>
			<point x="85" y="714"/>
			<point x="85" y="700" type="curve" smooth="yes"/>
			<point x="85" y="686"/>
			<point x="96" y="675"/>
		</contour>
		<contour>
			<point x="496" y="50" type="curve"/>
			<point x="387" y="50"/>
			<point x="300" y="137"/>
			<point x="300" y="244" type="curve"/>
			<point x="300" y="501" type="line"/>
			<point x="300" y="514.807"/>
			<point x="288.807" y="526"/>
			<point x="275" y="526" type="curve"/>
			<point x="261.193" y="526"/>
			<point x="250" y="514.807"/>
			<point x="250" y="501" type="curve"/>
			<point x="250" y="244" type="line"/>
			<point x="250" y="109.489"/>
			<point x="359.489" y="0"/>
			<point x="496" y="0" type="curve"/>
			<point x="509.807" y="0"/>
			<point x="521" y="11.193"/>
			<point x="521" y="25" type="curve"/>
			<point x="521" y="38.807"/>
			<point x="509.807" y="50"/>
		</contour>
		<contour>
			<point x="300" y="899" type="curve"/>
			<point x="300" y="1156" type="line"/>
			<point x="300" y="1263"/>
			<point x="387" y="1350"/>
			<point x="496" y="1350" type="curve"/>
			<point x="509.807" y="1350"/>
			<point x="521" y="1361.193"/>
			<point x="521" y="1375" type="curve"/>
			<point x="521" y="1388.807"/>
			<point x="509.807" y="1400"/>
			<point x="496" y="1400" type="curve"/>
			<point x="359.489" y="1400"/>
			<point x="250" y="1290.511"/>
			<point x="250" y="1156" type="curve"/>
			<point x="250" y="899" type="line"/>
			<point x="250" y="885.193"/>
			<point x="261.193" y="874"/>
			<point x="275" y="874" type="curve"/>
			<point x="288.807" y="874"/>
			<point x="300" y="885.193"/>
		</contour>
	</outline>
</glyph>
<glyph name="bar" format="2">
	<advance width="220"/>
	<unicode hex="007C"/>
	<outline>
		<contour>
			<point x="135" y="3" type="curve"/>
			<point x="135" y="1374.5" type="line"/>
			<point x="135" y="1388.307"/>
			<point x="123.807" y="1399.5"/>
			<point x="110" y="1399.5" type="curve"/>
			<point x="96.193" y="1399.5"/>
			<point x="85" y="1388.307"/>
			<point x="85" y="1374.5" type="curve"/>
			<point x="85" y="3" type="line"/>
			<point x="85" y="-10.807"/>
			<point x="96.193" y="-22"/>
			<point x="110" y="-22" type="curve"/>
			<point x="123.807" y="-22"/>
			<point x="135" y="-10.807"/>
		</contour>
	</outline>
</glyph>
<glyph name="asciitilde" format="2">
	<advance width="768"/>
	<unicode hex="007E"/>
	<outline>
		<contour>
			<point x="636.436" y="746.653" type="curve"/>
			<point x="573.186" y="638.856"/>
			<point x="494.424" y="643.489"/>
			<point x="399.641" y="719.503" type="curve"/>
			<point x="288.991" y="808.242"/>
			<point x="168.501" y="815.098"/>
			<point x="88.436" y="678.653" type="curve"/>
			<point x="86.252" y="674.942"/>
			<point x="85" y="670.617"/>
			<point x="85" y="666" type="curve"/>
			<point x="85" y="652.193"/>
			<point x="96.193" y="641"/>
			<point x="110" y="641" type="curve"/>
			<point x="119.19" y="641"/>
			<point x="127.221" y="645.958"/>
			<point x="131.564" y="653.347" type="curve"/>
			<point x="194.814" y="761.144"/>
			<point x="273.576" y="756.511"/>
			<point x="368.359" y="680.497" type="curve"/>
			<point x="479.009" y="591.758"/>
			<point x="599.499" y="584.902"/>
			<point x="679.564" y="721.347" type="curve"/>
			<point x="681.748" y="725.058"/>
			<point x="683" y="729.383"/>
			<point x="683" y="734" type="curve"/>
			<point x="683" y="747.807"/>
			<point x="671.807" y="759"/>
			<point x="658" y="759" type="curve"/>
			<point x="648.81" y="759"/>
			<point x="640.779" y="754.042"/>
		</contour>
	</outline>
</glyph>
<glyph name="exclamdown" format="2">
	<advance width="245"/>
	<unicode hex="00A1"/>
	<outline>
		<contour>
			<point x="122" y="1400" type="curve" smooth="yes"/>
			<point x="102" y="1400"/>
			<point x="85" y="1383"/>
			<point x="85" y="1362" type="curve" smooth="yes"/>
			<point x="85" y="1342"/>
			<point x="102" y="1325"/>
			<point x="122" y="1325" type="curve" smooth="yes"/>
			<point x="143" y="1325"/>
			<point x="160" y="1342"/>
			<point x="160" y="1362" type="curve" smooth="yes"/>
			<point x="160" y="1383"/>
			<point x="143" y="1400"/>
		</contour>
		<contour>
			<point x="97" y="1018.5" type="curve"/>
			<point x="97" y="25.5" type="line"/>
			<point x="97" y="11.693"/>
			<point x="108.193" y="0.5"/>
			<point x="122" y="0.5" type="curve"/>
			<point x="135.807" y="0.5"/>
			<point x="147" y="11.693"/>
			<point x="147" y="25.5" type="curve"/>
			<point x="147" y="1018.5" type="line"/>
			<point x="147" y="1032.307"/>
			<point x="135.807" y="1043.5"/>
			<point x="122" y="1043.5" type="curve"/>
			<point x="108.193" y="1043.5"/>
			<point x="97" y="1032.307"/>
		</contour>
	</outline>
</glyph>
<glyph name="cent" format="2">
	<advance width="795"/>
	<unicode hex="00A2"/>
	<outline>
		<contour>
			<point x="494" y="270" type="curve" smooth="yes"/>
			<point x="726" y="270" type="line" smooth="yes"/>
			<point x="740" y="270"/>
			<point x="751" y="281"/>
			<point x="751" y="295" type="curve" smooth="yes"/>
			<point x="751" y="309"/>
			<point x="740" y="320"/>
			<point x="726" y="320" type="curve" smooth="yes"/>
			<point x="494" y="320" type="line" smooth="yes"/>
			<point x="284" y="320"/>
			<point x="114" y="490"/>
			<point x="114" y="700" type="curve" smooth="yes"/>
			<point x="114" y="903"/>
			<point x="273" y="1068"/>
			<point x="473" y="1079" type="curve" smooth="yes"/>
			<point x="486" y="1080"/>
			<point x="497" y="1091"/>
			<point x="497" y="1104" type="curve" smooth="yes"/>
			<point x="497" y="1120"/>
			<point x="483" y="1130"/>
			<point x="470" y="1129" type="curve" smooth="yes"/>
			<point x="244" y="1117"/>
			<point x="64" y="930"/>
			<point x="64" y="700" type="curve" smooth="yes"/>
			<point x="64" y="462"/>
			<point x="256" y="270"/>
		</contour>
		<contour>
			<point x="499" y="-107.5" type="curve"/>
			<point x="499" y="95.5" type="line"/>
			<point x="499" y="109.307"/>
			<point x="487.807" y="120.5"/>
			<point x="474" y="120.5" type="curve"/>
			<point x="460.193" y="120.5"/>
			<point x="449" y="109.307"/>
			<point x="449" y="95.5" type="curve"/>
			<point x="449" y="-107.5" type="line"/>
			<point x="449" y="-121.307"/>
			<point x="460.193" y="-132.5"/>
			<point x="474" y="-132.5" type="curve"/>
			<point x="487.807" y="-132.5"/>
			<point x="499" y="-121.307"/>
		</contour>
		<contour>
			<point x="499" y="1304.5" type="curve"/>
			<point x="499" y="1507.5" type="line"/>
			<point x="499" y="1521.307"/>
			<point x="487.807" y="1532.5"/>
			<point x="474" y="1532.5" type="curve"/>
			<point x="460.193" y="1532.5"/>
			<point x="449" y="1521.307"/>
			<point x="449" y="1507.5" type="curve"/>
			<point x="449" y="1304.5" type="line"/>
			<point x="449" y="1290.693"/>
			<point x="460.193" y="1279.5"/>
			<point x="474" y="1279.5" type="curve"/>
			<point x="487.807" y="1279.5"/>
			<point x="499" y="1290.693"/>
		</contour>
		<contour>
			<point x="726" y="1080" type="curve" smooth="yes"/>
			<point x="740" y="1080"/>
			<point x="751" y="1091"/>
			<point x="751" y="1105" type="curve" smooth="yes"/>
			<point x="751" y="1119"/>
			<point x="740" y="1130"/>
			<point x="726" y="1130" type="curve" smooth="yes"/>
			<point x="712" y="1130"/>
			<point x="701" y="1119"/>
			<point x="701" y="1105" type="curve" smooth="yes"/>
			<point x="701" y="1091"/>
			<point x="712" y="1080"/>
		</contour>
	</outline>
</glyph>
<glyph name="sterling" format="2">
	<advance width="1330"/>
	<unicode hex="00A3"/>
	<outline>
		<contour>
			<point x="110" y="1" type="curve" smooth="yes"/>
			<point x="1220" y="0" type="line" smooth="yes"/>
			<point x="1233" y="0"/>
			<point x="1245" y="11"/>
			<point x="1245" y="25" type="curve" smooth="yes"/>
			<point x="1245" y="39"/>
			<point x="1233" y="50"/>
			<point x="1220" y="50" type="curve" smooth="yes"/>
			<point x="110" y="51" type="line" smooth="yes"/>
			<point x="96" y="51"/>
			<point x="85" y="40"/>
			<point x="85" y="26" type="curve" smooth="yes"/>
			<point x="85" y="12"/>
			<point x="96" y="1"/>
		</contour>
		<contour>
			<point x="110" y="458" type="curve" smooth="yes"/>
			<point x="492" y="458" type="line" smooth="yes"/>
			<point x="506" y="458"/>
			<point x="517" y="469"/>
			<point x="517" y="483" type="curve" smooth="yes"/>
			<point x="517" y="497"/>
			<point x="506" y="508"/>
			<point x="492" y="508" type="curve" smooth="yes"/>
			<point x="110" y="508" type="line" smooth="yes"/>
			<point x="96" y="508"/>
			<point x="85" y="497"/>
			<point x="85" y="483" type="curve" smooth="yes"/>
			<point x="85" y="469"/>
			<point x="96" y="458"/>
		</contour>
		<contour>
			<point x="251" y="902" type="curve" smooth="yes"/>
			<point x="251" y="1150"/>
			<point x="451" y="1350"/>
			<point x="699" y="1350" type="curve" smooth="yes"/>
			<point x="946" y="1350"/>
			<point x="1146" y="1150"/>
			<point x="1146" y="902" type="curve" smooth="yes"/>
			<point x="1146" y="888"/>
			<point x="1157" y="877"/>
			<point x="1171" y="877" type="curve" smooth="yes"/>
			<point x="1185" y="877"/>
			<point x="1196" y="888"/>
			<point x="1196" y="902" type="curve" smooth="yes"/>
			<point x="1196" y="1178"/>
			<point x="974" y="1400"/>
			<point x="699" y="1400" type="curve" smooth="yes"/>
			<point x="423" y="1400"/>
			<point x="201" y="1178"/>
			<point x="201" y="902" type="curve" smooth="yes"/>
			<point x="201" y="888"/>
			<point x="212" y="877"/>
			<point x="226" y="877" type="curve" smooth="yes"/>
			<point x="240" y="877"/>
			<point x="251" y="888"/>
		</contour>
	</outline>
</glyph>
<glyph name="yen" format="2">
	<advance width="1210"/>
	<unicode hex="00A5"/>
	<outline>
		<contour>
			<point x="236" y="238" type="curve"/>
			<point x="974" y="238" type="line"/>
			<point x="987.807" y="238"/>
			<point x="999" y="249.193"/>
			<point x="999" y="263" type="curve"/>
			<point x="999" y="276.807"/>
			<point x="987.807" y="288"/>
			<point x="974" y="288" type="curve"/>
			<point x="236" y="288" type="line"/>
			<point x="222.193" y="288"/>
			<point x="211" y="276.807"/>
			<point x="211" y="263" type="curve"/>
			<point x="211" y="249.193"/>
			<point x="222.193" y="238"/>
		</contour>
		<contour>
			<point x="236" y="498" type="curve"/>
			<point x="974" y="498" type="line"/>
			<point x="987.807" y="498"/>
			<point x="999" y="509.193"/>
			<point x="999" y="523" type="curve"/>
			<point x="999" y="536.807"/>
			<point x="987.807" y="548"/>
			<point x="974" y="548" type="curve"/>
			<point x="236" y="548" type="line"/>
			<point x="222.193" y="548"/>
			<point x="211" y="536.807"/>
			<point x="211" y="523" type="curve"/>
			<point x="211" y="509.193"/>
			<point x="222.193" y="498"/>
		</contour>
		<contour>
			<point x="388.047" y="1094.3" type="curve"/>
			<point x="102.62" y="1392.055" type="line"/>
			<point x="98.069" y="1396.802"/>
			<point x="91.665" y="1399.757"/>
			<point x="84.57" y="1399.757" type="curve"/>
			<point x="70.763" y="1399.757"/>
			<point x="59.57" y="1388.565"/>
			<point x="59.57" y="1374.757" type="curve"/>
			<point x="59.57" y="1368.044"/>
			<point x="62.216" y="1361.948"/>
			<point x="67.08" y="1356.876" type="curve"/>
			<point x="351.953" y="1059.7" type="line"/>
			<point x="356.503" y="1054.954"/>
			<point x="362.906" y="1052"/>
			<point x="370" y="1052" type="curve"/>
			<point x="383.807" y="1052"/>
			<point x="395" y="1063.193"/>
			<point x="395" y="1077" type="curve"/>
			<point x="395" y="1083.714"/>
			<point x="392.354" y="1089.809"/>
		</contour>
		<contour>
			<point x="1108.249" y="1393.895" type="curve"/>
			<point x="586.94" y="849.286" type="line"/>
			<point x="582.641" y="844.797"/>
			<point x="580" y="838.707"/>
			<point x="580" y="832" type="curve"/>
			<point x="580" y="818.193"/>
			<point x="591.193" y="807"/>
			<point x="605" y="807" type="curve"/>
			<point x="612.1" y="807"/>
			<point x="618.51" y="809.96"/>
			<point x="623.06" y="814.714" type="curve"/>
			<point x="1143.505" y="1358.462" type="line"/>
			<point x="1147.802" y="1362.951"/>
			<point x="1150.442" y="1369.04"/>
			<point x="1150.442" y="1375.746" type="curve"/>
			<point x="1150.442" y="1389.553"/>
			<point x="1139.249" y="1400.746"/>
			<point x="1125.442" y="1400.746" type="curve"/>
			<point x="1118.782" y="1400.746"/>
			<point x="1112.73" y="1398.141"/>
		</contour>
	</outline>
</glyph>
<glyph name="brokenbar" format="2">
	<advance width="220"/>
	<unicode hex="00A6"/>
	<outline>
		<contour>
			<point x="135" y="25.5" type="curve"/>
			<point x="135" y="350" type="line"/>
			<point x="135" y="363.807"/>
			<point x="123.807" y="375"/>
			<point x="110" y="375" type="curve"/>
			<point x="96.193" y="375"/>
			<point x="85" y="363.807"/>
			<point x="85" y="350" type="curve"/>
			<point x="85" y="25.5" type="line"/>
			<point x="85" y="11.693"/>
			<point x="96.193" y="0.5"/>
			<point x="110" y="0.5" type="curve"/>
			<point x="123.807" y="0.5"/>
			<point x="135" y="11.693"/>
		</contour>
		<contour>
			<point x="135" y="1050" type="curve"/>
			<point x="135" y="1374.5" type="line"/>
			<point x="135" y="1388.307"/>
			<point x="123.807" y="1399.5"/>
			<point x="110" y="1399.5" type="curve"/>
			<point x="96.193" y="1399.5"/>
			<point x="85" y="1388.307"/>
			<point x="85" y="1374.5" type="curve"/>
			<point x="85" y="1050" type="line"/>
			<point x="85" y="1036.193"/>
			<point x="96.193" y="1025"/>
			<point x="110" y="1025" type="curve"/>
			<point x="123.807" y="1025"/>
			<point x="135" y="1036.193"/>
		</contour>
	</outline>
</glyph>
<glyph name="section" format="2">
	<advance width="869"/>
	<unicode hex="00A7"/>
	<outline>
		<contour>
			<point x="435" y="519" type="curve"/>
			<point x="336" y="519"/>
			<point x="254" y="601"/>
			<point x="254" y="700" type="curve"/>
			<point x="254" y="799"/>
			<point x="336" y="881"/>
			<point x="435" y="881" type="curve"/>
			<point x="533" y="881"/>
			<point x="615" y="799"/>
			<point x="615" y="700" type="curve"/>
			<point x="615" y="601"/>
			<point x="533" y="519"/>
		</contour>
		<contour>
			<point x="435" y="469" type="curve"/>
			<point x="560.511" y="469"/>
			<point x="665" y="573.489"/>
			<point x="665" y="700" type="curve"/>
			<point x="665" y="826.511"/>
			<point x="560.511" y="931"/>
			<point x="435" y="931" type="curve"/>
			<point x="308.489" y="931"/>
			<point x="204" y="826.511"/>
			<point x="204" y="700" type="curve"/>
			<point x="204" y="573.489"/>
			<point x="308.489" y="469"/>
		</contour>
		<contour>
			<point x="731" y="305" type="curve"/>
			<point x="731" y="164"/>
			<point x="616" y="50"/>
			<point x="475" y="50" type="curve"/>
			<point x="109.5" y="50" type="line"/>
			<point x="95.693" y="50"/>
			<point x="84.5" y="38.807"/>
			<point x="84.5" y="25" type="curve"/>
			<point x="84.5" y="11.193"/>
			<point x="95.693" y="0"/>
			<point x="109.5" y="0" type="curve"/>
			<point x="475" y="0" type="line"/>
			<point x="643.383" y="0"/>
			<point x="781" y="136.361"/>
			<point x="781" y="305" type="curve"/>
			<point x="781" y="318.807"/>
			<point x="769.807" y="330"/>
			<point x="756" y="330" type="curve"/>
			<point x="742.193" y="330"/>
			<point x="731" y="318.807"/>
		</contour>
		<contour>
			<point x="137" y="1095" type="curve"/>
			<point x="137" y="1236"/>
			<point x="252" y="1350"/>
			<point x="393" y="1350" type="curve"/>
			<point x="758.5" y="1350" type="line"/>
			<point x="772.307" y="1350"/>
			<point x="783.5" y="1361.193"/>
			<point x="783.5" y="1375" type="curve"/>
			<point x="783.5" y="1388.807"/>
			<point x="772.307" y="1400"/>
			<point x="758.5" y="1400" type="curve"/>
			<point x="393" y="1400" type="line"/>
			<point x="224.617" y="1400"/>
			<point x="87" y="1263.639"/>
			<point x="87" y="1095" type="curve"/>
			<point x="87" y="1081.193"/>
			<point x="98.193" y="1070"/>
			<point x="112" y="1070" type="curve"/>
			<point x="125.807" y="1070"/>
			<point x="137" y="1081.193"/>
		</contour>
	</outline>
</glyph>
<glyph name="copyright" format="2">
	<advance width="1528"/>
	<unicode hex="00A9"/>
	<outline>
		<contour>
			<point x="1004" y="1019" type="curve" smooth="yes"/>
			<point x="1018" y="1019"/>
			<point x="1029" y="1030"/>
			<point x="1029" y="1044" type="curve" smooth="yes"/>
			<point x="1029" y="1058"/>
			<point x="1018" y="1069"/>
			<point x="1004" y="1069" type="curve" smooth="yes"/>
			<point x="991" y="1069"/>
			<point x="979" y="1058"/>
			<point x="979" y="1044" type="curve" smooth="yes"/>
			<point x="979" y="1030"/>
			<point x="991" y="1019"/>
		</contour>
		<contour>
			<point x="1006.5" y="377" type="curve"/>
			<point x="772" y="377" type="line"/>
			<point x="595" y="377"/>
			<point x="451" y="521"/>
			<point x="451" y="698" type="curve"/>
			<point x="451" y="875"/>
			<point x="595" y="1019"/>
			<point x="772" y="1019" type="curve"/>
			<point x="785.807" y="1019"/>
			<point x="797" y="1030.193"/>
			<point x="797" y="1044" type="curve"/>
			<point x="797" y="1057.807"/>
			<point x="785.807" y="1069"/>
			<point x="772" y="1069" type="curve"/>
			<point x="567.489" y="1069"/>
			<point x="401" y="902.511"/>
			<point x="401" y="698" type="curve"/>
			<point x="401" y="493.489"/>
			<point x="567.489" y="327"/>
			<point x="772" y="327" type="curve"/>
			<point x="1006.5" y="327" type="line"/>
			<point x="1020.307" y="327"/>
			<point x="1031.5" y="338.193"/>
			<point x="1031.5" y="352" type="curve"/>
			<point x="1031.5" y="365.807"/>
			<point x="1020.307" y="377"/>
		</contour>
		<contour>
			<point x="1259" y="1171" type="curve" smooth="yes"/>
			<point x="1273" y="1171"/>
			<point x="1284" y="1182"/>
			<point x="1284" y="1196" type="curve" smooth="yes"/>
			<point x="1284" y="1210"/>
			<point x="1273" y="1221"/>
			<point x="1259" y="1221" type="curve" smooth="yes"/>
			<point x="1245" y="1221"/>
			<point x="1234" y="1210"/>
			<point x="1234" y="1196" type="curve" smooth="yes"/>
			<point x="1234" y="1182"/>
			<point x="1245" y="1171"/>
		</contour>
		<contour>
			<point x="1414" y="700" type="curve"/>
			<point x="1414" y="341"/>
			<point x="1123" y="50"/>
			<point x="764" y="50" type="curve"/>
			<point x="405" y="50"/>
			<point x="114" y="341"/>
			<point x="114" y="700" type="curve"/>
			<point x="114" y="1059"/>
			<point x="405" y="1350"/>
			<point x="764" y="1350" type="curve"/>
			<point x="777.807" y="1350"/>
			<point x="789" y="1361.193"/>
			<point x="789" y="1375" type="curve"/>
			<point x="789" y="1388.807"/>
			<point x="777.807" y="1400"/>
			<point x="764" y="1400" type="curve"/>
			<point x="377.489" y="1400"/>
			<point x="64" y="1086.511"/>
			<point x="64" y="700" type="curve"/>
			<point x="64" y="313.489"/>
			<point x="377.489" y="0"/>
			<point x="764" y="0" type="curve"/>
			<point x="1150.511" y="0"/>
			<point x="1464" y="313.489"/>
			<point x="1464" y="700" type="curve"/>
			<point x="1464" y="713.807"/>
			<point x="1452.807" y="725"/>
			<point x="1439" y="725" type="curve"/>
			<point x="1425.193" y="725"/>
			<point x="1414" y="713.807"/>
		</contour>
	</outline>
</glyph>
<glyph name="ordfeminine" format="2">
	<advance width="632"/>
	<unicode hex="00AA"/>
	<outline>
		<contour>
			<point x="108" y="850" type="curve" smooth="yes"/>
			<point x="210" y="1091" type="line" smooth="yes"/>
			<point x="211" y="1094"/>
			<point x="212" y="1098"/>
			<point x="212" y="1101" type="curve" smooth="yes"/>
			<point x="212" y="1115"/>
			<point x="201" y="1126"/>
			<point x="187" y="1126" type="curve" smooth="yes"/>
			<point x="177" y="1126"/>
			<point x="168" y="1120"/>
			<point x="164" y="1112" type="curve" smooth="yes"/>
			<point x="62" y="871" type="line" smooth="yes"/>
			<point x="61" y="868"/>
			<point x="60" y="864"/>
			<point x="60" y="861" type="curve" smooth="yes"/>
			<point x="60" y="847"/>
			<point x="71" y="836"/>
			<point x="85" y="836" type="curve" smooth="yes"/>
			<point x="95" y="836"/>
			<point x="104" y="842"/>
		</contour>
		<contour>
			<point x="570" y="871" type="curve" smooth="yes"/>
			<point x="349" y="1386" type="line" smooth="yes"/>
			<point x="345" y="1394"/>
			<point x="336" y="1400"/>
			<point x="326" y="1400" type="curve" smooth="yes"/>
			<point x="312" y="1400"/>
			<point x="301" y="1389"/>
			<point x="301" y="1375" type="curve" smooth="yes"/>
			<point x="301" y="1372"/>
			<point x="302" y="1368"/>
			<point x="303" y="1365" type="curve" smooth="yes"/>
			<point x="524" y="850" type="line" smooth="yes"/>
			<point x="528" y="842"/>
			<point x="537" y="836"/>
			<point x="547" y="836" type="curve" smooth="yes"/>
			<point x="561" y="836"/>
			<point x="572" y="847"/>
			<point x="572" y="861" type="curve" smooth="yes"/>
			<point x="572" y="864"/>
			<point x="571" y="868"/>
		</contour>
	</outline>
</glyph>
<glyph name="logicalnot" format="2">
	<advance width="981"/>
	<unicode hex="00AC"/>
	<outline>
		<contour>
			<point x="889" y="855" type="curve" smooth="yes"/>
			<point x="79" y="855" type="line" smooth="yes"/>
			<point x="65" y="855"/>
			<point x="54" y="844"/>
			<point x="54" y="830" type="curve" smooth="yes"/>
			<point x="54" y="816"/>
			<point x="65" y="805"/>
			<point x="79" y="805" type="curve" smooth="yes"/>
			<point x="889" y="805" type="line" smooth="yes"/>
			<point x="902" y="805"/>
			<point x="914" y="816"/>
			<point x="914" y="830" type="curve" smooth="yes"/>
			<point x="914" y="844"/>
			<point x="902" y="855"/>
		</contour>
		<contour>
			<point x="914" y="393" type="curve" smooth="yes"/>
			<point x="914" y="830" type="line"/>
			<point x="864" y="830" type="line"/>
			<point x="864" y="393" type="line" smooth="yes"/>
			<point x="864" y="379"/>
			<point x="875" y="368"/>
			<point x="889" y="368" type="curve" smooth="yes"/>
			<point x="903" y="368"/>
			<point x="914" y="379"/>
		</contour>
	</outline>
</glyph>
<glyph name="registered" format="2">
	<advance width="1528"/>
	<unicode hex="00AE"/>
	<outline>
		<contour>
			<point x="582" y="378" type="curve" smooth="yes"/>
			<point x="582" y="687" type="line" smooth="yes"/>
			<point x="582" y="701"/>
			<point x="571" y="712"/>
			<point x="557" y="712" type="curve" smooth="yes"/>
			<point x="543" y="712"/>
			<point x="532" y="701"/>
			<point x="532" y="687" type="curve" smooth="yes"/>
			<point x="532" y="378" type="line" smooth="yes"/>
			<point x="532" y="364"/>
			<point x="543" y="353"/>
			<point x="557" y="353" type="curve" smooth="yes"/>
			<point x="571" y="353"/>
			<point x="582" y="364"/>
		</contour>
		<contour>
			<point x="1006" y="389" type="curve"/>
			<point x="783" y="671" type="line"/>
			<point x="778" y="676"/>
			<point x="771" y="680"/>
			<point x="763" y="680" type="curve" smooth="yes"/>
			<point x="749" y="680"/>
			<point x="738" y="669"/>
			<point x="738" y="655" type="curve" smooth="yes"/>
			<point x="738" y="649"/>
			<point x="740" y="644"/>
			<point x="743" y="639" type="curve"/>
			<point x="968" y="358" type="line" smooth="yes"/>
			<point x="972" y="352"/>
			<point x="979" y="349"/>
			<point x="987" y="349" type="curve" smooth="yes"/>
			<point x="1001" y="349"/>
			<point x="1012" y="360"/>
			<point x="1012" y="374" type="curve" smooth="yes"/>
			<point x="1012" y="380"/>
			<point x="1010" y="385"/>
		</contour>
		<component base="O"/>
		<contour>
			<point x="763" y="630" type="curve" smooth="yes"/>
			<point x="804" y="630" type="line" smooth="yes"/>
			<point x="920" y="630"/>
			<point x="1013" y="725"/>
			<point x="1013" y="839" type="curve" smooth="yes"/>
			<point x="1013" y="955"/>
			<point x="919" y="1047"/>
			<point x="804" y="1047" type="curve" smooth="yes"/>
			<point x="557" y="1047" type="line" smooth="yes"/>
			<point x="543" y="1047"/>
			<point x="532" y="1036"/>
			<point x="532" y="1022" type="curve" smooth="yes"/>
			<point x="532" y="1008"/>
			<point x="543" y="997"/>
			<point x="557" y="997" type="curve" smooth="yes"/>
			<point x="804" y="997" type="line" smooth="yes"/>
			<point x="892" y="997"/>
			<point x="963" y="927"/>
			<point x="963" y="839" type="curve" smooth="yes"/>
			<point x="963" y="752"/>
			<point x="892" y="680"/>
			<point x="804" y="680" type="curve" smooth="yes"/>
			<point x="763" y="680" type="line" smooth="yes"/>
			<point x="749" y="680"/>
			<point x="738" y="669"/>
			<point x="738" y="655" type="curve" smooth="yes"/>
			<point x="738" y="641"/>
			<point x="749" y="630"/>
		</contour>
	</outline>
</glyph>
<glyph name="plusminus" format="2">
	<advance width="981"/>
	<unicode hex="00B1"/>
	<outline>
		<contour>
			<point x="88.5" y="252" type="curve"/>
			<point x="918.5" y="252" type="line"/>
			<point x="932.307" y="252"/>
			<point x="943.5" y="263.193"/>
			<point x="943.5" y="277" type="curve"/>
			<point x="943.5" y="290.807"/>
			<point x="932.307" y="302"/>
			<point x="918.5" y="302" type="curve"/>
			<point x="88.5" y="302" type="line"/>
			<point x="74.693" y="302"/>
			<point x="63.5" y="290.807"/>
			<point x="63.5" y="277" type="curve"/>
			<point x="63.5" y="263.193"/>
			<point x="74.693" y="252"/>
		</contour>
		<contour>
			<point x="88.5" y="775" type="curve"/>
			<point x="306.5" y="775" type="line"/>
			<point x="320.307" y="775"/>
			<point x="331.5" y="786.193"/>
			<point x="331.5" y="800" type="curve"/>
			<point x="331.5" y="813.807"/>
			<point x="320.307" y="825"/>
			<point x="306.5" y="825" type="curve"/>
			<point x="88.5" y="825" type="line"/>
			<point x="74.693" y="825"/>
			<point x="63.5" y="813.807"/>
			<point x="63.5" y="800" type="curve"/>
			<point x="63.5" y="786.193"/>
			<point x="74.693" y="775"/>
		</contour>
		<contour>
			<point x="529" y="445.5" type="curve"/>
			<point x="529" y="1155.5" type="line"/>
			<point x="529" y="1169.307"/>
			<point x="517.807" y="1180.5"/>
			<point x="504" y="1180.5" type="curve"/>
			<point x="490.193" y="1180.5"/>
			<point x="479" y="1169.307"/>
			<point x="479" y="1155.5" type="curve"/>
			<point x="479" y="445.5" type="line"/>
			<point x="479" y="431.693"/>
			<point x="490.193" y="420.5"/>
			<point x="504" y="420.5" type="curve"/>
			<point x="517.807" y="420.5"/>
			<point x="529" y="431.693"/>
		</contour>
		<contour>
			<point x="701.5" y="775" type="curve"/>
			<point x="919.5" y="775" type="line"/>
			<point x="933.307" y="775"/>
			<point x="944.5" y="786.193"/>
			<point x="944.5" y="800" type="curve"/>
			<point x="944.5" y="813.807"/>
			<point x="933.307" y="825"/>
			<point x="919.5" y="825" type="curve"/>
			<point x="701.5" y="825" type="line"/>
			<point x="687.693" y="825"/>
			<point x="676.5" y="813.807"/>
			<point x="676.5" y="800" type="curve"/>
			<point x="676.5" y="786.193"/>
			<point x="687.693" y="775"/>
		</contour>
	</outline>
</glyph>
<glyph name="twosuperior" format="2">
	<advance width="468"/>
	<unicode hex="00B2"/>
	<outline>
		<contour>
			<point x="74.5" y="1024" type="curve"/>
			<point x="393.5" y="1024" type="line"/>
			<point x="407.307" y="1024"/>
			<point x="418.5" y="1035.193"/>
			<point x="418.5" y="1049" type="curve"/>
			<point x="418.5" y="1062.807"/>
			<point x="407.307" y="1074"/>
			<point x="393.5" y="1074" type="curve"/>
			<point x="74.5" y="1074" type="line"/>
			<point x="60.693" y="1074"/>
			<point x="49.5" y="1062.807"/>
			<point x="49.5" y="1049" type="curve"/>
			<point x="49.5" y="1035.193"/>
			<point x="60.693" y="1024"/>
		</contour>
		<contour>
			<point x="96.154" y="1036.209" type="curve"/>
			<point x="262.643" y="1279.896" type="line"/>
			<point x="265.392" y="1283.91"/>
			<point x="267" y="1288.767"/>
			<point x="267" y="1294" type="curve"/>
			<point x="267" y="1307.807"/>
			<point x="255.807" y="1319"/>
			<point x="242" y="1319" type="curve"/>
			<point x="233.425" y="1319"/>
			<point x="225.859" y="1314.683"/>
			<point x="221.357" y="1308.104" type="curve"/>
			<point x="55.232" y="1064.947" type="line"/>
			<point x="52.372" y="1060.882"/>
			<point x="50.693" y="1055.926"/>
			<point x="50.693" y="1050.578" type="curve"/>
			<point x="50.693" y="1036.771"/>
			<point x="61.885" y="1025.578"/>
			<point x="75.693" y="1025.578" type="curve"/>
			<point x="84.152" y="1025.578"/>
			<point x="91.63" y="1029.779"/>
		</contour>
		<contour>
			<point x="100" y="1616" type="curve"/>
			<point x="100" y="1690"/>
			<point x="160" y="1750"/>
			<point x="234" y="1750" type="curve"/>
			<point x="308" y="1750"/>
			<point x="368" y="1690"/>
			<point x="368" y="1616" type="curve"/>
			<point x="368" y="1602.193"/>
			<point x="379.193" y="1591"/>
			<point x="393" y="1591" type="curve"/>
			<point x="406.807" y="1591"/>
			<point x="418" y="1602.193"/>
			<point x="418" y="1616" type="curve"/>
			<point x="418" y="1717.511"/>
			<point x="335.511" y="1800"/>
			<point x="234" y="1800" type="curve"/>
			<point x="132.489" y="1800"/>
			<point x="50" y="1717.511"/>
			<point x="50" y="1616" type="curve"/>
			<point x="50" y="1602.193"/>
			<point x="61.193" y="1591"/>
			<point x="75" y="1591" type="curve"/>
			<point x="88.807" y="1591"/>
			<point x="100" y="1602.193"/>
		</contour>
	</outline>
</glyph>
<glyph name="uni00B2" format="2">
	<advance width="468"/>
	<unicode hex="00B2"/>
	<outline>
		<contour>
			<point x="75" y="1024" type="curve" smooth="yes"/>
			<point x="394" y="1024" type="line" smooth="yes"/>
			<point x="407" y="1024"/>
			<point x="419" y="1035"/>
			<point x="419" y="1049" type="curve" smooth="yes"/>
			<point x="419" y="1063"/>
			<point x="407" y="1074"/>
			<point x="394" y="1074" type="curve" smooth="yes"/>
			<point x="75" y="1074" type="line" smooth="yes"/>
			<point x="61" y="1074"/>
			<point x="50" y="1063"/>
			<point x="50" y="1049" type="curve" smooth="yes"/>
			<point x="50" y="1035"/>
			<point x="61" y="1024"/>
		</contour>
		<contour>
			<point x="96" y="1036" type="curve" smooth="yes"/>
			<point x="263" y="1280" type="line"/>
			<point x="265" y="1284"/>
			<point x="267" y="1289"/>
			<point x="267" y="1294" type="curve" smooth="yes"/>
			<point x="267" y="1308"/>
			<point x="256" y="1319"/>
			<point x="242" y="1319" type="curve" smooth="yes"/>
			<point x="233" y="1319"/>
			<point x="226" y="1315"/>
			<point x="221" y="1308" type="curve" smooth="yes"/>
			<point x="55" y="1065" type="line" smooth="yes"/>
			<point x="52" y="1061"/>
			<point x="51" y="1056"/>
			<point x="51" y="1051" type="curve" smooth="yes"/>
			<point x="51" y="1037"/>
			<point x="62" y="1026"/>
			<point x="76" y="1026" type="curve" smooth="yes"/>
			<point x="84" y="1026"/>
			<point x="92" y="1030"/>
		</contour>
		<contour>
			<point x="100" y="1616" type="curve" smooth="yes"/>
			<point x="100" y="1690"/>
			<point x="160" y="1750"/>
			<point x="234" y="1750" type="curve" smooth="yes"/>
			<point x="308" y="1750"/>
			<point x="368" y="1690"/>
			<point x="368" y="1616" type="curve" smooth="yes"/>
			<point x="368" y="1602"/>
			<point x="379" y="1591"/>
			<point x="393" y="1591" type="curve" smooth="yes"/>
			<point x="407" y="1591"/>
			<point x="418" y="1602"/>
			<point x="418" y="1616" type="curve" smooth="yes"/>
			<point x="418" y="1718"/>
			<point x="336" y="1800"/>
			<point x="234" y="1800" type="curve" smooth="yes"/>
			<point x="132" y="1800"/>
			<point x="50" y="1718"/>
			<point x="50" y="1616" type="curve" smooth="yes"/>
			<point x="50" y="1602"/>
			<point x="61" y="1591"/>
			<point x="75" y="1591" type="curve" smooth="yes"/>
			<point x="89" y="1591"/>
			<point x="100" y="1602"/>
		</contour>
	</outline>
</glyph>
<glyph name="threesuperior" format="2">
	<advance width="468"/>
	<unicode hex="00B3"/>
	<outline>
		<contour>
			<point x="368" y="1208" type="curve"/>
			<point x="368" y="1134"/>
			<point x="308" y="1074"/>
			<point x="234" y="1074" type="curve"/>
			<point x="160" y="1074"/>
			<point x="100" y="1134"/>
			<point x="100" y="1208" type="curve"/>
			<point x="100" y="1221.807"/>
			<point x="88.807" y="1233"/>
			<point x="75" y="1233" type="curve"/>
			<point x="61.193" y="1233"/>
			<point x="50" y="1221.807"/>
			<point x="50" y="1208" type="curve"/>
			<point x="50" y="1106.489"/>
			<point x="132.489" y="1024"/>
			<point x="234" y="1024" type="curve"/>
			<point x="335.511" y="1024"/>
			<point x="418" y="1106.489"/>
			<point x="418" y="1208" type="curve"/>
			<point x="418" y="1221.807"/>
			<point x="406.807" y="1233"/>
			<point x="393" y="1233" type="curve"/>
			<point x="379.193" y="1233"/>
			<point x="368" y="1221.807"/>
		</contour>
		<contour>
			<point x="100" y="1616" type="curve"/>
			<point x="100" y="1690"/>
			<point x="160" y="1750"/>
			<point x="234" y="1750" type="curve"/>
			<point x="308" y="1750"/>
			<point x="368" y="1690"/>
			<point x="368" y="1616" type="curve"/>
			<point x="368" y="1543"/>
			<point x="308" y="1483"/>
			<point x="234" y="1483" type="curve"/>
			<point x="220.193" y="1483"/>
			<point x="209" y="1471.807"/>
			<point x="209" y="1458" type="curve"/>
			<point x="209" y="1444.193"/>
			<point x="220.193" y="1433"/>
			<point x="234" y="1433" type="curve"/>
			<point x="335.511" y="1433"/>
			<point x="418" y="1515.489"/>
			<point x="418" y="1616" type="curve"/>
			<point x="418" y="1717.511"/>
			<point x="335.511" y="1800"/>
			<point x="234" y="1800" type="curve"/>
			<point x="132.489" y="1800"/>
			<point x="50" y="1717.511"/>
			<point x="50" y="1616" type="curve"/>
			<point x="50" y="1602.193"/>
			<point x="61.193" y="1591"/>
			<point x="75" y="1591" type="curve"/>
			<point x="88.807" y="1591"/>
			<point x="100" y="1602.193"/>
		</contour>
	</outline>
</glyph>
<glyph name="uni00B3" format="2">
	<advance width="468"/>
	<unicode hex="00B3"/>
	<outline>
		<contour>
			<point x="368" y="1208" type="curve" smooth="yes"/>
			<point x="368" y="1134"/>
			<point x="308" y="1074"/>
			<point x="234" y="1074" type="curve" smooth="yes"/>
			<point x="160" y="1074"/>
			<point x="100" y="1134"/>
			<point x="100" y="1208" type="curve" smooth="yes"/>
			<point x="100" y="1222"/>
			<point x="89" y="1233"/>
			<point x="75" y="1233" type="curve" smooth="yes"/>
			<point x="61" y="1233"/>
			<point x="50" y="1222"/>
			<point x="50" y="1208" type="curve" smooth="yes"/>
			<point x="50" y="1106"/>
			<point x="132" y="1024"/>
			<point x="234" y="1024" type="curve" smooth="yes"/>
			<point x="336" y="1024"/>
			<point x="418" y="1106"/>
			<point x="418" y="1208" type="curve" smooth="yes"/>
			<point x="418" y="1222"/>
			<point x="407" y="1233"/>
			<point x="393" y="1233" type="curve" smooth="yes"/>
			<point x="379" y="1233"/>
			<point x="368" y="1222"/>
		</contour>
		<contour>
			<point x="100" y="1616" type="curve" smooth="yes"/>
			<point x="100" y="1690"/>
			<point x="160" y="1750"/>
			<point x="234" y="1750" type="curve" smooth="yes"/>
			<point x="308" y="1750"/>
			<point x="368" y="1690"/>
			<point x="368" y="1616" type="curve" smooth="yes"/>
			<point x="368" y="1543"/>
			<point x="308" y="1483"/>
			<point x="234" y="1483" type="curve" smooth="yes"/>
			<point x="220" y="1483"/>
			<point x="209" y="1472"/>
			<point x="209" y="1458" type="curve" smooth="yes"/>
			<point x="209" y="1444"/>
			<point x="220" y="1433"/>
			<point x="234" y="1433" type="curve" smooth="yes"/>
			<point x="336" y="1433"/>
			<point x="418" y="1515"/>
			<point x="418" y="1616" type="curve" smooth="yes"/>
			<point x="418" y="1718"/>
			<point x="336" y="1800"/>
			<point x="234" y="1800" type="curve" smooth="yes"/>
			<point x="132" y="1800"/>
			<point x="50" y="1718"/>
			<point x="50" y="1616" type="curve" smooth="yes"/>
			<point x="50" y="1602"/>
			<point x="61" y="1591"/>
			<point x="75" y="1591" type="curve" smooth="yes"/>
			<point x="89" y="1591"/>
			<point x="100" y="1602"/>
		</contour>
	</outline>
</glyph>
<glyph name="micro" format="2">
	<advance width="1060"/>
	<unicode hex="00B5"/>
	<outline>
		<contour>
			<point x="135" y="-371.5" type="curve"/>
			<point x="135" y="100" type="line"/>
			<point x="135" y="113.807"/>
			<point x="123.807" y="125"/>
			<point x="110" y="125" type="curve"/>
			<point x="96.193" y="125"/>
			<point x="85" y="113.807"/>
			<point x="85" y="100" type="curve"/>
			<point x="85" y="-371.5" type="line"/>
			<point x="85" y="-385.307"/>
			<point x="96.193" y="-396.5"/>
			<point x="110" y="-396.5" type="curve"/>
			<point x="123.807" y="-396.5"/>
			<point x="135" y="-385.307"/>
		</contour>
		<contour>
			<point x="135" y="500" type="curve"/>
			<point x="135" y="971.5" type="line"/>
			<point x="135" y="985.307"/>
			<point x="123.807" y="996.5"/>
			<point x="110" y="996.5" type="curve"/>
			<point x="96.193" y="996.5"/>
			<point x="85" y="985.307"/>
			<point x="85" y="971.5" type="curve"/>
			<point x="85" y="500" type="line"/>
			<point x="85" y="486.193"/>
			<point x="96.193" y="475"/>
			<point x="110" y="475" type="curve"/>
			<point x="123.807" y="475"/>
			<point x="135" y="486.193"/>
		</contour>
		<contour>
			<point x="516" y="0" type="curve"/>
			<point x="769.591" y="0"/>
			<point x="975" y="206.569"/>
			<point x="975" y="460" type="curve"/>
			<point x="975" y="973.5" type="line"/>
			<point x="975" y="987.307"/>
			<point x="963.807" y="998.5"/>
			<point x="950" y="998.5" type="curve"/>
			<point x="936.193" y="998.5"/>
			<point x="925" y="987.307"/>
			<point x="925" y="973.5" type="curve"/>
			<point x="925" y="460" type="line"/>
			<point x="925" y="234"/>
			<point x="742" y="50"/>
			<point x="516" y="50" type="curve"/>
			<point x="502.193" y="50"/>
			<point x="491" y="38.807"/>
			<point x="491" y="25" type="curve"/>
			<point x="491" y="11.193"/>
			<point x="502.193" y="0"/>
		</contour>
	</outline>
</glyph>
<glyph name="uni00B5" format="2">
	<advance width="1060"/>
	<unicode hex="00B5"/>
	<unicode hex="03BC"/>
	<outline>
		<contour>
			<point x="135" y="-372" type="curve" smooth="yes"/>
			<point x="135" y="100" type="line" smooth="yes"/>
			<point x="135" y="114"/>
			<point x="124" y="125"/>
			<point x="110" y="125" type="curve" smooth="yes"/>
			<point x="96" y="125"/>
			<point x="85" y="114"/>
			<point x="85" y="100" type="curve" smooth="yes"/>
			<point x="85" y="-372" type="line" smooth="yes"/>
			<point x="85" y="-385"/>
			<point x="96" y="-397"/>
			<point x="110" y="-397" type="curve" smooth="yes"/>
			<point x="124" y="-397"/>
			<point x="135" y="-385"/>
		</contour>
		<contour>
			<point x="135" y="500" type="curve" smooth="yes"/>
			<point x="135" y="972" type="line" smooth="yes"/>
			<point x="135" y="985"/>
			<point x="124" y="997"/>
			<point x="110" y="997" type="curve" smooth="yes"/>
			<point x="96" y="997"/>
			<point x="85" y="985"/>
			<point x="85" y="972" type="curve" smooth="yes"/>
			<point x="85" y="500" type="line" smooth="yes"/>
			<point x="85" y="486"/>
			<point x="96" y="475"/>
			<point x="110" y="475" type="curve" smooth="yes"/>
			<point x="124" y="475"/>
			<point x="135" y="486"/>
		</contour>
		<contour>
			<point x="516" y="0" type="curve" smooth="yes"/>
			<point x="770" y="0"/>
			<point x="975" y="207"/>
			<point x="975" y="460" type="curve" smooth="yes"/>
			<point x="975" y="974" type="line" smooth="yes"/>
			<point x="975" y="987"/>
			<point x="964" y="999"/>
			<point x="950" y="999" type="curve" smooth="yes"/>
			<point x="936" y="999"/>
			<point x="925" y="987"/>
			<point x="925" y="974" type="curve" smooth="yes"/>
			<point x="925" y="460" type="line" smooth="yes"/>
			<point x="925" y="234"/>
			<point x="742" y="50"/>
			<point x="516" y="50" type="curve" smooth="yes"/>
			<point x="502" y="50"/>
			<point x="491" y="39"/>
			<point x="491" y="25" type="curve" smooth="yes"/>
			<point x="491" y="11"/>
			<point x="502" y="0"/>
		</contour>
	</outline>
</glyph>
<glyph name="paragraph" format="2">
	<advance width="979"/>
	<unicode hex="00B6"/>
	<outline>
		<contour>
			<point x="411" y="700" type="curve" smooth="yes"/>
			<point x="424" y="699"/>
			<point x="438" y="710"/>
			<point x="438" y="725" type="curve" smooth="yes"/>
			<point x="438" y="738"/>
			<point x="427" y="749"/>
			<point x="414" y="750" type="curve" smooth="yes"/>
			<point x="258" y="760"/>
			<point x="135" y="891"/>
			<point x="135" y="1050" type="curve" smooth="yes"/>
			<point x="135" y="1209"/>
			<point x="258" y="1340"/>
			<point x="414" y="1350" type="curve" smooth="yes"/>
			<point x="427" y="1351"/>
			<point x="438" y="1362"/>
			<point x="438" y="1375" type="curve" smooth="yes"/>
			<point x="438" y="1390"/>
			<point x="424" y="1401"/>
			<point x="411" y="1400" type="curve" smooth="yes"/>
			<point x="229" y="1388"/>
			<point x="85" y="1235"/>
			<point x="85" y="1050" type="curve" smooth="yes"/>
			<point x="85" y="865"/>
			<point x="229" y="712"/>
		</contour>
		<contour>
			<point x="599" y="26" type="curve" smooth="yes"/>
			<point x="599" y="1375" type="line" smooth="yes"/>
			<point x="599" y="1388"/>
			<point x="588" y="1400"/>
			<point x="574" y="1400" type="curve" smooth="yes"/>
			<point x="560" y="1400"/>
			<point x="549" y="1388"/>
			<point x="549" y="1375" type="curve" smooth="yes"/>
			<point x="549" y="26" type="line" smooth="yes"/>
			<point x="549" y="12"/>
			<point x="560" y="1"/>
			<point x="574" y="1" type="curve" smooth="yes"/>
			<point x="588" y="1"/>
			<point x="599" y="12"/>
		</contour>
		<contour>
			<point x="899" y="26" type="curve" smooth="yes"/>
			<point x="899" y="1375" type="line" smooth="yes"/>
			<point x="899" y="1388"/>
			<point x="888" y="1400"/>
			<point x="874" y="1400" type="curve" smooth="yes"/>
			<point x="860" y="1400"/>
			<point x="849" y="1388"/>
			<point x="849" y="1375" type="curve" smooth="yes"/>
			<point x="849" y="26" type="line" smooth="yes"/>
			<point x="849" y="12"/>
			<point x="860" y="1"/>
			<point x="874" y="1" type="curve" smooth="yes"/>
			<point x="888" y="1"/>
			<point x="899" y="12"/>
		</contour>
	</outline>
</glyph>
<glyph name="onesuperior" format="2">
	<advance width="468"/>
	<unicode hex="00B9"/>
	<outline>
		<contour>
			<point x="279" y="1049.5" type="curve"/>
			<point x="279" y="1268" type="line"/>
			<point x="279" y="1281.807"/>
			<point x="267.807" y="1293"/>
			<point x="254" y="1293" type="curve"/>
			<point x="240.193" y="1293"/>
			<point x="229" y="1281.807"/>
			<point x="229" y="1268" type="curve"/>
			<point x="229" y="1049.5" type="line"/>
			<point x="229" y="1035.693"/>
			<point x="240.193" y="1024.5"/>
			<point x="254" y="1024.5" type="curve"/>
			<point x="267.807" y="1024.5"/>
			<point x="279" y="1035.693"/>
		</contour>
		<contour>
			<point x="238.528" y="1794.638" type="curve"/>
			<point x="73.528" y="1664.638" type="line"/>
			<point x="67.725" y="1660.06"/>
			<point x="64" y="1652.965"/>
			<point x="64" y="1645" type="curve"/>
			<point x="64" y="1631.193"/>
			<point x="75.193" y="1620"/>
			<point x="89" y="1620" type="curve"/>
			<point x="94.842" y="1620"/>
			<point x="100.216" y="1622.004"/>
			<point x="104.472" y="1625.362" type="curve"/>
			<point x="269.472" y="1755.362" type="line"/>
			<point x="275.275" y="1759.94"/>
			<point x="279" y="1767.035"/>
			<point x="279" y="1775" type="curve"/>
			<point x="279" y="1788.807"/>
			<point x="267.807" y="1800"/>
			<point x="254" y="1800" type="curve"/>
			<point x="248.158" y="1800"/>
			<point x="242.784" y="1797.996"/>
		</contour>
		<contour>
			<point x="279" y="1489" type="curve"/>
			<point x="279" y="1774.5" type="line"/>
			<point x="279" y="1788.307"/>
			<point x="267.807" y="1799.5"/>
			<point x="254" y="1799.5" type="curve"/>
			<point x="240.193" y="1799.5"/>
			<point x="229" y="1788.307"/>
			<point x="229" y="1774.5" type="curve"/>
			<point x="229" y="1489" type="line"/>
			<point x="229" y="1475.193"/>
			<point x="240.193" y="1464"/>
			<point x="254" y="1464" type="curve"/>
			<point x="267.807" y="1464"/>
			<point x="279" y="1475.193"/>
		</contour>
	</outline>
</glyph>
<glyph name="uni00B9" format="2">
	<advance width="468"/>
	<unicode hex="00B9"/>
	<outline>
		<contour>
			<point x="279" y="1050" type="curve" smooth="yes"/>
			<point x="279" y="1268" type="line" smooth="yes"/>
			<point x="279" y="1282"/>
			<point x="268" y="1293"/>
			<point x="254" y="1293" type="curve" smooth="yes"/>
			<point x="240" y="1293"/>
			<point x="229" y="1282"/>
			<point x="229" y="1268" type="curve" smooth="yes"/>
			<point x="229" y="1050" type="line" smooth="yes"/>
			<point x="229" y="1036"/>
			<point x="240" y="1025"/>
			<point x="254" y="1025" type="curve" smooth="yes"/>
			<point x="268" y="1025"/>
			<point x="279" y="1036"/>
		</contour>
		<contour>
			<point x="239" y="1795" type="curve" smooth="yes"/>
			<point x="74" y="1665" type="line" smooth="yes"/>
			<point x="68" y="1660"/>
			<point x="64" y="1653"/>
			<point x="64" y="1645" type="curve" smooth="yes"/>
			<point x="64" y="1631"/>
			<point x="75" y="1620"/>
			<point x="89" y="1620" type="curve" smooth="yes"/>
			<point x="95" y="1620"/>
			<point x="100" y="1622"/>
			<point x="104" y="1625" type="curve" smooth="yes"/>
			<point x="269" y="1755" type="line" smooth="yes"/>
			<point x="275" y="1760"/>
			<point x="279" y="1767"/>
			<point x="279" y="1775" type="curve" smooth="yes"/>
			<point x="279" y="1789"/>
			<point x="268" y="1800"/>
			<point x="254" y="1800" type="curve" smooth="yes"/>
			<point x="248" y="1800"/>
			<point x="243" y="1798"/>
		</contour>
		<contour>
			<point x="279" y="1489" type="curve" smooth="yes"/>
			<point x="279" y="1775" type="line" smooth="yes"/>
			<point x="279" y="1788"/>
			<point x="268" y="1800"/>
			<point x="254" y="1800" type="curve" smooth="yes"/>
			<point x="240" y="1800"/>
			<point x="229" y="1788"/>
			<point x="229" y="1775" type="curve" smooth="yes"/>
			<point x="229" y="1489" type="line" smooth="yes"/>
			<point x="229" y="1475"/>
			<point x="240" y="1464"/>
			<point x="254" y="1464" type="curve" smooth="yes"/>
			<point x="268" y="1464"/>
			<point x="279" y="1475"/>
		</contour>
	</outline>
</glyph>
<glyph name="ordmasculine" format="2">
	<advance width="740"/>
	<unicode hex="00BA"/>
	<outline>
		<contour>
			<point x="172" y="1263" type="curve" smooth="yes"/>
			<point x="186" y="1263"/>
			<point x="197" y="1274"/>
			<point x="197" y="1288" type="curve" smooth="yes"/>
			<point x="197" y="1302"/>
			<point x="186" y="1313"/>
			<point x="172" y="1313" type="curve" smooth="yes"/>
			<point x="158" y="1313"/>
			<point x="147" y="1302"/>
			<point x="147" y="1288" type="curve" smooth="yes"/>
			<point x="147" y="1274"/>
			<point x="158" y="1263"/>
		</contour>
		<contour>
			<point x="370" y="1350" type="curve"/>
			<point x="514" y="1350"/>
			<point x="630" y="1234"/>
			<point x="630" y="1090" type="curve"/>
			<point x="630" y="946"/>
			<point x="514" y="830"/>
			<point x="370" y="830" type="curve"/>
			<point x="226" y="830"/>
			<point x="110" y="946"/>
			<point x="110" y="1090" type="curve"/>
			<point x="110" y="1103.807"/>
			<point x="98.807" y="1115"/>
			<point x="85" y="1115" type="curve"/>
			<point x="71.193" y="1115"/>
			<point x="60" y="1103.807"/>
			<point x="60" y="1090" type="curve"/>
			<point x="60" y="918.489"/>
			<point x="198.489" y="780"/>
			<point x="370" y="780" type="curve"/>
			<point x="541.511" y="780"/>
			<point x="680" y="918.489"/>
			<point x="680" y="1090" type="curve"/>
			<point x="680" y="1261.511"/>
			<point x="541.511" y="1400"/>
			<point x="370" y="1400" type="curve"/>
			<point x="356.193" y="1400"/>
			<point x="345" y="1388.807"/>
			<point x="345" y="1375" type="curve"/>
			<point x="345" y="1361.193"/>
			<point x="356.193" y="1350"/>
		</contour>
	</outline>
</glyph>
<glyph name="AE" format="2">
	<advance width="1638"/>
	<unicode hex="00C6"/>
	<unicode hex="00E6"/>
	<outline>
		<contour>
			<point x="108" y="14" type="curve" smooth="yes"/>
			<point x="707" y="1364" type="line" smooth="yes"/>
			<point x="708" y="1367"/>
			<point x="709" y="1371"/>
			<point x="709" y="1374" type="curve" smooth="yes"/>
			<point x="709" y="1388"/>
			<point x="698" y="1399"/>
			<point x="684" y="1399" type="curve" smooth="yes"/>
			<point x="674" y="1399"/>
			<point x="665" y="1394"/>
			<point x="661" y="1385" type="curve" smooth="yes"/>
			<point x="62" y="35" type="line" smooth="yes"/>
			<point x="61" y="32"/>
			<point x="60" y="28"/>
			<point x="60" y="25" type="curve" smooth="yes"/>
			<point x="60" y="11"/>
			<point x="71" y="0"/>
			<point x="85" y="0" type="curve" smooth="yes"/>
			<point x="95" y="0"/>
			<point x="104" y="5"/>
		</contour>
		<contour>
			<point x="1543" y="50" type="curve" smooth="yes"/>
			<point x="870" y="50" type="line" smooth="yes"/>
			<point x="856" y="50"/>
			<point x="845" y="39"/>
			<point x="845" y="25" type="curve" smooth="yes"/>
			<point x="845" y="11"/>
			<point x="856" y="0"/>
			<point x="870" y="0" type="curve" smooth="yes"/>
			<point x="1543" y="0" type="line" smooth="yes"/>
			<point x="1556" y="0"/>
			<point x="1568" y="11"/>
			<point x="1568" y="25" type="curve" smooth="yes"/>
			<point x="1568" y="39"/>
			<point x="1556" y="50"/>
		</contour>
		<contour>
			<point x="895" y="28" type="line"/>
			<point x="895" y="736" type="line" smooth="yes"/>
			<point x="895" y="749"/>
			<point x="884" y="761"/>
			<point x="870" y="761" type="curve" smooth="yes"/>
			<point x="856" y="761"/>
			<point x="845" y="749"/>
			<point x="845" y="736" type="curve" smooth="yes"/>
			<point x="845" y="28" type="line"/>
		</contour>
		<contour>
			<point x="1166" y="675" type="curve" smooth="yes"/>
			<point x="1543" y="675" type="line" smooth="yes"/>
			<point x="1556" y="675"/>
			<point x="1568" y="686"/>
			<point x="1568" y="700" type="curve" smooth="yes"/>
			<point x="1568" y="714"/>
			<point x="1556" y="725"/>
			<point x="1543" y="725" type="curve" smooth="yes"/>
			<point x="1166" y="725" type="line" smooth="yes"/>
			<point x="1152" y="725"/>
			<point x="1141" y="714"/>
			<point x="1141" y="700" type="curve" smooth="yes"/>
			<point x="1141" y="686"/>
			<point x="1152" y="675"/>
		</contour>
		<contour>
			<point x="684" y="1350" type="curve" smooth="yes"/>
			<point x="1543" y="1350" type="line" smooth="yes"/>
			<point x="1556" y="1350"/>
			<point x="1568" y="1361"/>
			<point x="1568" y="1375" type="curve" smooth="yes"/>
			<point x="1568" y="1389"/>
			<point x="1556" y="1400"/>
			<point x="1543" y="1400" type="curve" smooth="yes"/>
			<point x="684" y="1400" type="line" smooth="yes"/>
			<point x="670" y="1400"/>
			<point x="659" y="1389"/>
			<point x="659" y="1375" type="curve" smooth="yes"/>
			<point x="659" y="1361"/>
			<point x="670" y="1350"/>
		</contour>
	</outline>
</glyph>
<glyph name="Eth" format="2">
	<advance width="1391"/>
	<unicode hex="00D0"/>
	<unicode hex="00F0"/>
	<anchor x="744" y="0" name="bottom"/>
	<anchor x="744" y="700" name="center"/>
	<anchor x="694" y="1400" name="top"/>
	<outline>
		<contour>
			<point x="208" y="468.5" type="curve"/>
			<point x="208" y="25.5" type="line"/>
			<point x="208" y="11.693"/>
			<point x="219.193" y="0.5"/>
			<point x="233" y="0.5" type="curve"/>
			<point x="246.807" y="0.5"/>
			<point x="258" y="11.693"/>
			<point x="258" y="25.5" type="curve"/>
			<point x="258" y="468.5" type="line"/>
			<point x="258" y="482.307"/>
			<point x="246.807" y="493.5"/>
			<point x="233" y="493.5" type="curve"/>
			<point x="219.193" y="493.5"/>
			<point x="208" y="482.307"/>
		</contour>
		<contour>
			<point x="565.5" y="725" type="curve"/>
			<point x="24.5" y="725" type="line"/>
			<point x="10.693" y="725"/>
			<point x="-0.5" y="713.807"/>
			<point x="-0.5" y="700" type="curve"/>
			<point x="-0.5" y="686.193"/>
			<point x="10.693" y="675"/>
			<point x="24.5" y="675" type="curve"/>
			<point x="565.5" y="675" type="line"/>
			<point x="579.307" y="675"/>
			<point x="590.5" y="686.193"/>
			<point x="590.5" y="700" type="curve"/>
			<point x="590.5" y="713.807"/>
			<point x="579.307" y="725"/>
		</contour>
		<contour>
			<point x="627" y="0" type="curve"/>
			<point x="1013.511" y="0"/>
			<point x="1327" y="313.489"/>
			<point x="1327" y="700" type="curve"/>
			<point x="1327" y="1086.511"/>
			<point x="1013.511" y="1400"/>
			<point x="627" y="1400" type="curve"/>
			<point x="230.5" y="1400" type="line"/>
			<point x="216.693" y="1400"/>
			<point x="205.5" y="1388.807"/>
			<point x="205.5" y="1375" type="curve"/>
			<point x="205.5" y="1361.193"/>
			<point x="216.693" y="1350"/>
			<point x="230.5" y="1350" type="curve"/>
			<point x="627" y="1350" type="line"/>
			<point x="986" y="1350"/>
			<point x="1277" y="1059"/>
			<point x="1277" y="700" type="curve"/>
			<point x="1277" y="341"/>
			<point x="986" y="50"/>
			<point x="627" y="50" type="curve"/>
			<point x="613.193" y="50"/>
			<point x="602" y="38.807"/>
			<point x="602" y="25" type="curve"/>
			<point x="602" y="11.193"/>
			<point x="613.193" y="0"/>
		</contour>
	</outline>
</glyph>
<glyph name="multiply" format="2">
	<advance width="981"/>
	<unicode hex="00D7"/>
	<outline>
		<contour>
			<point x="612.025" y="542.692" type="curve"/>
			<point x="813.416" y="342.16" type="line"/>
			<point x="817.938" y="337.658"/>
			<point x="824.172" y="334.876"/>
			<point x="831.056" y="334.876" type="curve"/>
			<point x="844.863" y="334.876"/>
			<point x="856.056" y="346.068"/>
			<point x="856.056" y="359.876" type="curve"/>
			<point x="856.056" y="366.655"/>
			<point x="853.357" y="372.805"/>
			<point x="848.976" y="377.308" type="curve"/>
			<point x="647.584" y="577.84" type="line"/>
			<point x="643.063" y="582.342"/>
			<point x="636.828" y="585.124"/>
			<point x="629.944" y="585.124" type="curve"/>
			<point x="616.137" y="585.124"/>
			<point x="604.944" y="573.932"/>
			<point x="604.944" y="560.124" type="curve"/>
			<point x="604.944" y="553.345"/>
			<point x="607.643" y="547.195"/>
		</contour>
		<contour>
			<point x="168.592" y="342.259" type="curve"/>
			<point x="848.791" y="1023.414" type="line"/>
			<point x="853.308" y="1027.937"/>
			<point x="856.101" y="1034.182"/>
			<point x="856.101" y="1041.079" type="curve"/>
			<point x="856.101" y="1054.886"/>
			<point x="844.909" y="1066.079"/>
			<point x="831.101" y="1066.079" type="curve"/>
			<point x="824.19" y="1066.079"/>
			<point x="817.933" y="1063.274"/>
			<point x="813.408" y="1058.741" type="curve"/>
			<point x="133.209" y="377.586" type="line"/>
			<point x="128.692" y="373.063"/>
			<point x="125.899" y="366.818"/>
			<point x="125.899" y="359.921" type="curve"/>
			<point x="125.899" y="346.114"/>
			<point x="137.091" y="334.921"/>
			<point x="150.899" y="334.921" type="curve"/>
			<point x="157.81" y="334.921"/>
			<point x="164.067" y="337.726"/>
		</contour>
		<contour>
			<point x="132.025" y="1023.692" type="curve"/>
			<point x="333.416" y="823.16" type="line"/>
			<point x="337.938" y="818.658"/>
			<point x="344.172" y="815.876"/>
			<point x="351.056" y="815.876" type="curve"/>
			<point x="364.863" y="815.876"/>
			<point x="376.056" y="827.068"/>
			<point x="376.056" y="840.876" type="curve"/>
			<point x="376.056" y="847.655"/>
			<point x="373.357" y="853.805"/>
			<point x="368.976" y="858.308" type="curve"/>
			<point x="167.584" y="1058.84" type="line"/>
			<point x="163.063" y="1063.342"/>
			<point x="156.828" y="1066.124"/>
			<point x="149.944" y="1066.124" type="curve"/>
			<point x="136.137" y="1066.124"/>
			<point x="124.944" y="1054.932"/>
			<point x="124.944" y="1041.124" type="curve"/>
			<point x="124.944" y="1034.345"/>
			<point x="127.643" y="1028.195"/>
		</contour>
	</outline>
</glyph>
<glyph name="Oslash" format="2">
	<advance width="1528"/>
	<unicode hex="00D8"/>
	<unicode hex="00F8"/>
	<outline>
		<contour>
			<point x="121" y="0" type="curve" smooth="yes"/>
			<point x="127" y="0"/>
			<point x="133" y="3"/>
			<point x="138" y="7" type="curve"/>
			<point x="1426" y="1357" type="line" smooth="yes"/>
			<point x="1430" y="1362"/>
			<point x="1432" y="1368"/>
			<point x="1432" y="1375" type="curve" smooth="yes"/>
			<point x="1432" y="1389"/>
			<point x="1421" y="1400"/>
			<point x="1407" y="1400" type="curve" smooth="yes"/>
			<point x="1401" y="1400"/>
			<point x="1395" y="1397"/>
			<point x="1390" y="1393" type="curve"/>
			<point x="102" y="43" type="line" smooth="yes"/>
			<point x="98" y="38"/>
			<point x="96" y="32"/>
			<point x="96" y="25" type="curve" smooth="yes"/>
			<point x="96" y="11"/>
			<point x="107" y="0"/>
		</contour>
		<contour>
			<point x="132" y="437" type="curve" smooth="yes"/>
			<point x="150" y="437"/>
			<point x="161" y="455"/>
			<point x="155" y="470" type="curve" smooth="yes"/>
			<point x="128" y="543"/>
			<point x="113" y="621"/>
			<point x="113" y="700" type="curve" smooth="yes"/>
			<point x="113" y="1049"/>
			<point x="397" y="1350"/>
			<point x="764" y="1350" type="curve" smooth="yes"/>
			<point x="840" y="1350"/>
			<point x="917" y="1337"/>
			<point x="992" y="1308" type="curve" smooth="yes"/>
			<point x="1007" y="1302"/>
			<point x="1026" y="1313"/>
			<point x="1026" y="1331" type="curve" smooth="yes"/>
			<point x="1026" y="1342"/>
			<point x="1019" y="1351"/>
			<point x="1010" y="1355" type="curve" smooth="yes"/>
			<point x="929" y="1385"/>
			<point x="845" y="1400"/>
			<point x="764" y="1400" type="curve" smooth="yes"/>
			<point x="369" y="1400"/>
			<point x="63" y="1076"/>
			<point x="63" y="700" type="curve" smooth="yes"/>
			<point x="63" y="616"/>
			<point x="79" y="531"/>
			<point x="108" y="453" type="curve" smooth="yes"/>
			<point x="112" y="443"/>
			<point x="121" y="437"/>
		</contour>
		<contour>
			<point x="764" y="0" type="curve" smooth="yes"/>
			<point x="1159" y="0"/>
			<point x="1465" y="324"/>
			<point x="1465" y="700" type="curve" smooth="yes"/>
			<point x="1465" y="784"/>
			<point x="1449" y="869"/>
			<point x="1420" y="947" type="curve" smooth="yes"/>
			<point x="1416" y="957"/>
			<point x="1407" y="963"/>
			<point x="1396" y="963" type="curve" smooth="yes"/>
			<point x="1378" y="963"/>
			<point x="1367" y="945"/>
			<point x="1373" y="930" type="curve" smooth="yes"/>
			<point x="1400" y="857"/>
			<point x="1415" y="779"/>
			<point x="1415" y="700" type="curve" smooth="yes"/>
			<point x="1415" y="351"/>
			<point x="1131" y="50"/>
			<point x="764" y="50" type="curve" smooth="yes"/>
			<point x="688" y="50"/>
			<point x="611" y="63"/>
			<point x="536" y="92" type="curve" smooth="yes"/>
			<point x="521" y="98"/>
			<point x="502" y="87"/>
			<point x="502" y="69" type="curve" smooth="yes"/>
			<point x="502" y="58"/>
			<point x="509" y="49"/>
			<point x="518" y="45" type="curve" smooth="yes"/>
			<point x="599" y="15"/>
			<point x="683" y="0"/>
		</contour>
	</outline>
</glyph>
<glyph name="Thorn" format="2">
	<advance width="1041"/>
	<unicode hex="00DE"/>
	<unicode hex="00FE"/>
	<outline>
		<contour>
			<point x="135" y="28.5" type="curve"/>
			<point x="135" y="345" type="line"/>
			<point x="135" y="358.807"/>
			<point x="123.807" y="370"/>
			<point x="110" y="370" type="curve"/>
			<point x="96.193" y="370"/>
			<point x="85" y="358.807"/>
			<point x="85" y="345" type="curve"/>
			<point x="85" y="28.5" type="line"/>
			<point x="85" y="14.693"/>
			<point x="96.193" y="3.5"/>
			<point x="110" y="3.5" type="curve"/>
			<point x="123.807" y="3.5"/>
			<point x="135" y="14.693"/>
		</contour>
		<contour>
			<point x="85" y="1371.5" type="curve"/>
			<point x="85" y="687" type="line"/>
			<point x="85" y="673.193"/>
			<point x="96.193" y="662"/>
			<point x="110" y="662" type="curve"/>
			<point x="123.807" y="662"/>
			<point x="135" y="673.193"/>
			<point x="135" y="687" type="curve"/>
			<point x="135" y="1371.5" type="line"/>
			<point x="135" y="1385.307"/>
			<point x="123.807" y="1396.5"/>
			<point x="110" y="1396.5" type="curve"/>
			<point x="96.193" y="1396.5"/>
			<point x="85" y="1385.307"/>
		</contour>
		<contour>
			<point x="110" y="320" type="curve"/>
			<point x="593" y="320" type="line"/>
			<point x="803.412" y="320"/>
			<point x="975" y="490.391"/>
			<point x="975" y="701" type="curve"/>
			<point x="975" y="912.511"/>
			<point x="803.511" y="1084"/>
			<point x="593" y="1084" type="curve"/>
			<point x="378" y="1084" type="line"/>
			<point x="364.193" y="1084"/>
			<point x="353" y="1072.807"/>
			<point x="353" y="1059" type="curve"/>
			<point x="353" y="1045.193"/>
			<point x="364.193" y="1034"/>
			<point x="378" y="1034" type="curve"/>
			<point x="593" y="1034" type="line"/>
			<point x="776" y="1034"/>
			<point x="925" y="885"/>
			<point x="925" y="701" type="curve"/>
			<point x="925" y="518"/>
			<point x="776" y="370"/>
			<point x="593" y="370" type="curve"/>
			<point x="110" y="370" type="line"/>
			<point x="96.193" y="370"/>
			<point x="85" y="358.807"/>
			<point x="85" y="345" type="curve"/>
			<point x="85" y="331.193"/>
			<point x="96.193" y="320"/>
		</contour>
	</outline>
</glyph>
<glyph name="divide" format="2">
	<advance width="981"/>
	<unicode hex="00F7"/>
	<outline>
		<contour>
			<point x="504" y="1006" type="curve" smooth="yes"/>
			<point x="525" y="1006"/>
			<point x="542" y="1022"/>
			<point x="542" y="1043" type="curve" smooth="yes"/>
			<point x="542" y="1064"/>
			<point x="525" y="1081"/>
			<point x="504" y="1081" type="curve" smooth="yes"/>
			<point x="483" y="1081"/>
			<point x="467" y="1064"/>
			<point x="467" y="1043" type="curve" smooth="yes"/>
			<point x="467" y="1022"/>
			<point x="483" y="1006"/>
		</contour>
		<contour>
			<point x="504" y="320" type="curve" smooth="yes"/>
			<point x="525" y="320"/>
			<point x="542" y="336"/>
			<point x="542" y="357" type="curve" smooth="yes"/>
			<point x="542" y="378"/>
			<point x="525" y="395"/>
			<point x="504" y="395" type="curve" smooth="yes"/>
			<point x="483" y="395"/>
			<point x="467" y="378"/>
			<point x="467" y="357" type="curve" smooth="yes"/>
			<point x="467" y="336"/>
			<point x="483" y="320"/>
		</contour>
		<contour>
			<point x="88.5" y="676" type="curve"/>
			<point x="918.5" y="676" type="line"/>
			<point x="932.307" y="676"/>
			<point x="943.5" y="687.193"/>
			<point x="943.5" y="701" type="curve"/>
			<point x="943.5" y="714.807"/>
			<point x="932.307" y="726"/>
			<point x="918.5" y="726" type="curve"/>
			<point x="88.5" y="726" type="line"/>
			<point x="74.693" y="726"/>
			<point x="63.5" y="714.807"/>
			<point x="63.5" y="701" type="curve"/>
			<point x="63.5" y="687.193"/>
			<point x="74.693" y="676"/>
		</contour>
	</outline>
</glyph>
<glyph name="Idotaccent" format="2">
	<advance width="220"/>
	<unicode hex="0130"/>
	<anchor x="110" y="1400" name="_top"/>
	<anchor x="110" y="1669" name="top"/>
	<outline>
		<contour>
			<point x="110" y="1594" type="curve" smooth="yes"/>
			<point x="130" y="1594"/>
			<point x="148" y="1612"/>
			<point x="148" y="1632" type="curve" smooth="yes"/>
			<point x="148" y="1652"/>
			<point x="130" y="1669"/>
			<point x="110" y="1669" type="curve" smooth="yes"/>
			<point x="90" y="1669"/>
			<point x="73" y="1652"/>
			<point x="73" y="1632" type="curve" smooth="yes"/>
			<point x="73" y="1612"/>
			<point x="90" y="1594"/>
		</contour>
		<component base="I"/>
	</outline>
</glyph>
<glyph name="Lslash" format="2">
	<advance width="1213"/>
	<unicode hex="0141"/>
	<unicode hex="0142"/>
	<outline>
		<contour>
			<point x="258" y="28.5" type="curve"/>
			<point x="258" y="451.5" type="line"/>
			<point x="258" y="465.307"/>
			<point x="246.807" y="476.5"/>
			<point x="233" y="476.5" type="curve"/>
			<point x="219.193" y="476.5"/>
			<point x="208" y="465.307"/>
			<point x="208" y="451.5" type="curve"/>
			<point x="208" y="28.5" type="line"/>
			<point x="208" y="14.693"/>
			<point x="219.193" y="3.5"/>
			<point x="233" y="3.5" type="curve"/>
			<point x="246.807" y="3.5"/>
			<point x="258" y="14.693"/>
		</contour>
		<contour>
			<point x="1128" y="50" type="curve"/>
			<point x="233" y="50" type="line"/>
			<point x="219.193" y="50"/>
			<point x="208" y="38.807"/>
			<point x="208" y="25" type="curve"/>
			<point x="208" y="11.193"/>
			<point x="219.193" y="0"/>
			<point x="233" y="0" type="curve"/>
			<point x="1128" y="0" type="line"/>
			<point x="1141.807" y="0"/>
			<point x="1153" y="11.193"/>
			<point x="1153" y="25" type="curve"/>
			<point x="1153" y="38.807"/>
			<point x="1141.807" y="50"/>
		</contour>
		<contour>
			<point x="432.721" y="840.472" type="curve"/>
			<point x="11.896" y="602.615" type="line"/>
			<point x="4.529" y="598.266"/>
			<point x="-0.412" y="590.246"/>
			<point x="-0.412" y="581.071" type="curve"/>
			<point x="-0.412" y="567.264"/>
			<point x="10.78" y="556.071"/>
			<point x="24.588" y="556.071" type="curve"/>
			<point x="29.22" y="556.071"/>
			<point x="33.559" y="557.331"/>
			<point x="37.279" y="559.528" type="curve"/>
			<point x="458.104" y="797.385" type="line"/>
			<point x="465.471" y="801.734"/>
			<point x="470.412" y="809.754"/>
			<point x="470.412" y="818.929" type="curve"/>
			<point x="470.412" y="832.736"/>
			<point x="459.22" y="843.929"/>
			<point x="445.412" y="843.929" type="curve"/>
			<point x="440.78" y="843.929"/>
			<point x="436.441" y="842.669"/>
		</contour>
		<contour>
			<point x="258" y="948.5" type="curve"/>
			<point x="258" y="1371.5" type="line"/>
			<point x="258" y="1385.307"/>
			<point x="246.807" y="1396.5"/>
			<point x="233" y="1396.5" type="curve"/>
			<point x="219.193" y="1396.5"/>
			<point x="208" y="1385.307"/>
			<point x="208" y="1371.5" type="curve"/>
			<point x="208" y="948.5" type="line"/>
			<point x="208" y="934.693"/>
			<point x="219.193" y="923.5"/>
			<point x="233" y="923.5" type="curve"/>
			<point x="246.807" y="923.5"/>
			<point x="258" y="934.693"/>
		</contour>
	</outline>
</glyph>
<glyph name="OE" format="2">
	<advance width="1738"/>
	<unicode hex="0152"/>
	<unicode hex="0153"/>
	<outline>
		<contour>
			<point x="1642.5" y="50" type="curve"/>
			<point x="970" y="50" type="line"/>
			<point x="956.193" y="50"/>
			<point x="945" y="38.807"/>
			<point x="945" y="25" type="curve"/>
			<point x="945" y="11.193"/>
			<point x="956.193" y="0"/>
			<point x="970" y="0" type="curve"/>
			<point x="1642.5" y="0" type="line"/>
			<point x="1656.307" y="0"/>
			<point x="1667.5" y="11.193"/>
			<point x="1667.5" y="25" type="curve"/>
			<point x="1667.5" y="38.807"/>
			<point x="1656.307" y="50"/>
		</contour>
		<contour>
			<point x="995" y="28" type="line"/>
			<point x="995" y="735.5" type="line"/>
			<point x="995" y="749.307"/>
			<point x="983.807" y="760.5"/>
			<point x="970" y="760.5" type="curve"/>
			<point x="956.193" y="760.5"/>
			<point x="945" y="749.307"/>
			<point x="945" y="735.5" type="curve"/>
			<point x="945" y="28" type="line"/>
		</contour>
		<contour>
			<point x="764" y="50" type="curve"/>
			<point x="405" y="50"/>
			<point x="114" y="341"/>
			<point x="114" y="700" type="curve"/>
			<point x="114" y="1059"/>
			<point x="405" y="1350"/>
			<point x="764" y="1350" type="curve"/>
			<point x="1642.5" y="1350" type="line"/>
			<point x="1656.307" y="1350"/>
			<point x="1667.5" y="1361.193"/>
			<point x="1667.5" y="1375" type="curve"/>
			<point x="1667.5" y="1388.807"/>
			<point x="1656.307" y="1400"/>
			<point x="1642.5" y="1400" type="curve"/>
			<point x="764" y="1400" type="line"/>
			<point x="377.489" y="1400"/>
			<point x="64" y="1086.511"/>
			<point x="64" y="700" type="curve"/>
			<point x="64" y="313.489"/>
			<point x="377.489" y="0"/>
			<point x="764" y="0" type="curve"/>
			<point x="777.807" y="0"/>
			<point x="789" y="11.193"/>
			<point x="789" y="25" type="curve"/>
			<point x="789" y="38.807"/>
			<point x="777.807" y="50"/>
		</contour>
		<contour>
			<point x="1265.5" y="675" type="curve"/>
			<point x="1642.5" y="675" type="line"/>
			<point x="1656.307" y="675"/>
			<point x="1667.5" y="686.193"/>
			<point x="1667.5" y="700" type="curve"/>
			<point x="1667.5" y="713.807"/>
			<point x="1656.307" y="725"/>
			<point x="1642.5" y="725" type="curve"/>
			<point x="1265.5" y="725" type="line"/>
			<point x="1251.693" y="725"/>
			<point x="1240.5" y="713.807"/>
			<point x="1240.5" y="700" type="curve"/>
			<point x="1240.5" y="686.193"/>
			<point x="1251.693" y="675"/>
		</contour>
	</outline>
</glyph>
<glyph name="Schwa" format="2">
	<advance width="1528"/>
	<unicode hex="018F"/>
	<unicode hex="0259"/>
	<anchor x="764" y="0" name="bottom"/>
	<anchor x="764" y="700" name="center"/>
	<anchor x="1375" y="10" name="ogonek"/>
	<anchor x="764" y="1400" name="top"/>
	<anchor x="20" y="1400" name="topleft"/>
	<anchor x="1508" y="1400" name="topright"/>
	<outline>
		<contour>
			<point x="764" y="1350" type="curve"/>
			<point x="1123" y="1350"/>
			<point x="1414" y="1059"/>
			<point x="1414" y="700" type="curve"/>
			<point x="1414" y="341"/>
			<point x="1123" y="50"/>
			<point x="764" y="50" type="curve"/>
			<point x="405" y="50"/>
			<point x="114" y="341"/>
			<point x="114" y="700" type="curve"/>
			<point x="114" y="713.807"/>
			<point x="102.807" y="725"/>
			<point x="89" y="725" type="curve"/>
			<point x="75.193" y="725"/>
			<point x="64" y="713.807"/>
			<point x="64" y="700" type="curve"/>
			<point x="64" y="313.489"/>
			<point x="377.489" y="0"/>
			<point x="764" y="0" type="curve"/>
			<point x="1150.511" y="0"/>
			<point x="1464" y="313.489"/>
			<point x="1464" y="700" type="curve"/>
			<point x="1464" y="1086.511"/>
			<point x="1150.511" y="1400"/>
			<point x="764" y="1400" type="curve"/>
			<point x="750.193" y="1400"/>
			<point x="739" y="1388.807"/>
			<point x="739" y="1375" type="curve"/>
			<point x="739" y="1361.193"/>
			<point x="750.193" y="1350"/>
		</contour>
		<contour>
			<point x="89.5" y="675" type="curve"/>
			<point x="1064" y="675" type="line"/>
			<point x="1077.807" y="675"/>
			<point x="1089" y="686.193"/>
			<point x="1089" y="700" type="curve"/>
			<point x="1089" y="713.807"/>
			<point x="1077.807" y="725"/>
			<point x="1064" y="725" type="curve"/>
			<point x="89.5" y="725" type="line"/>
			<point x="75.693" y="725"/>
			<point x="64.5" y="713.807"/>
			<point x="64.5" y="700" type="curve"/>
			<point x="64.5" y="686.193"/>
			<point x="75.693" y="675"/>
		</contour>
	</outline>
</glyph>
<glyph name="uni018F" format="2">
	<advance width="1528"/>
	<unicode hex="018F"/>
	<unicode hex="0259"/>
	<anchor x="764" y="0" name="bottom"/>
	<anchor x="764" y="700" name="center"/>
	<anchor x="1375" y="10" name="ogonek"/>
	<anchor x="764" y="1400" name="top"/>
	<anchor x="20" y="1400" name="topleft"/>
	<anchor x="1508" y="1400" name="topright"/>
	<outline>
		<contour>
			<point x="764" y="1350" type="curve" smooth="yes"/>
			<point x="1123" y="1350"/>
			<point x="1414" y="1059"/>
			<point x="1414" y="700" type="curve" smooth="yes"/>
			<point x="1414" y="341"/>
			<point x="1123" y="50"/>
			<point x="764" y="50" type="curve" smooth="yes"/>
			<point x="405" y="50"/>
			<point x="114" y="341"/>
			<point x="114" y="700" type="curve" smooth="yes"/>
			<point x="114" y="714"/>
			<point x="103" y="725"/>
			<point x="89" y="725" type="curve" smooth="yes"/>
			<point x="75" y="725"/>
			<point x="64" y="714"/>
			<point x="64" y="700" type="curve" smooth="yes"/>
			<point x="64" y="313"/>
			<point x="377" y="0"/>
			<point x="764" y="0" type="curve" smooth="yes"/>
			<point x="1151" y="0"/>
			<point x="1464" y="313"/>
			<point x="1464" y="700" type="curve" smooth="yes"/>
			<point x="1464" y="1087"/>
			<point x="1151" y="1400"/>
			<point x="764" y="1400" type="curve" smooth="yes"/>
			<point x="750" y="1400"/>
			<point x="739" y="1389"/>
			<point x="739" y="1375" type="curve" smooth="yes"/>
			<point x="739" y="1361"/>
			<point x="750" y="1350"/>
		</contour>
		<contour>
			<point x="90" y="675" type="curve" smooth="yes"/>
			<point x="1064" y="675" type="line" smooth="yes"/>
			<point x="1078" y="675"/>
			<point x="1089" y="686"/>
			<point x="1089" y="700" type="curve" smooth="yes"/>
			<point x="1089" y="714"/>
			<point x="1078" y="725"/>
			<point x="1064" y="725" type="curve" smooth="yes"/>
			<point x="90" y="725" type="line" smooth="yes"/>
			<point x="76" y="725"/>
			<point x="65" y="714"/>
			<point x="65" y="700" type="curve" smooth="yes"/>
			<point x="65" y="686"/>
			<point x="76" y="675"/>
		</contour>
	</outline>
</glyph>
<glyph name="florin" format="2">
	<advance width="783"/>
	<unicode hex="0192"/>
	<outline>
		<contour>
			<point x="338" y="372" type="curve"/>
			<point x="338" y="-122" type="line"/>
			<point x="338" y="-248"/>
			<point x="236" y="-350"/>
			<point x="110" y="-350" type="curve"/>
			<point x="96.193" y="-350"/>
			<point x="85" y="-361.193"/>
			<point x="85" y="-375" type="curve"/>
			<point x="85" y="-388.807"/>
			<point x="96.193" y="-400"/>
			<point x="110" y="-400" type="curve"/>
			<point x="263.511" y="-400"/>
			<point x="388" y="-275.511"/>
			<point x="388" y="-122" type="curve"/>
			<point x="388" y="372" type="line"/>
			<point x="388" y="385.807"/>
			<point x="376.807" y="397"/>
			<point x="363" y="397" type="curve"/>
			<point x="349.193" y="397"/>
			<point x="338" y="385.807"/>
		</contour>
		<contour>
			<point x="123.5" y="675" type="curve"/>
			<point x="672.5" y="675" type="line"/>
			<point x="686.307" y="675"/>
			<point x="697.5" y="686.193"/>
			<point x="697.5" y="700" type="curve"/>
			<point x="697.5" y="713.807"/>
			<point x="686.307" y="725"/>
			<point x="672.5" y="725" type="curve"/>
			<point x="123.5" y="725" type="line"/>
			<point x="109.693" y="725"/>
			<point x="98.5" y="713.807"/>
			<point x="98.5" y="700" type="curve"/>
			<point x="98.5" y="686.193"/>
			<point x="109.693" y="675"/>
		</contour>
		<contour>
			<point x="388" y="1122" type="curve"/>
			<point x="388" y="1248"/>
			<point x="490" y="1350"/>
			<point x="616" y="1350" type="curve"/>
			<point x="629.807" y="1350"/>
			<point x="641" y="1361.193"/>
			<point x="641" y="1375" type="curve"/>
			<point x="641" y="1388.807"/>
			<point x="629.807" y="1400"/>
			<point x="616" y="1400" type="curve"/>
			<point x="462.489" y="1400"/>
			<point x="338" y="1275.511"/>
			<point x="338" y="1122" type="curve"/>
			<point x="338" y="1108.193"/>
			<point x="349.193" y="1097"/>
			<point x="363" y="1097" type="curve"/>
			<point x="376.807" y="1097"/>
			<point x="388" y="1108.193"/>
		</contour>
	</outline>
</glyph>
<glyph name="gravecomb" format="2">
	<advance width="0"/>
	<unicode hex="0300"/>
	<anchor x="0" y="1400" name="_top"/>
	<anchor x="0" y="1839" name="top"/>
	<outline>
		<contour>
			<point x="-322" y="1802" type="curve" smooth="yes"/>
			<point x="-27" y="1572" type="line" smooth="yes"/>
			<point x="-23" y="1569"/>
			<point x="-19" y="1568"/>
			<point x="-14" y="1568" type="curve" smooth="yes"/>
			<point x="-2" y="1568"/>
			<point x="7" y="1577"/>
			<point x="7" y="1589" type="curve" smooth="yes"/>
			<point x="7" y="1595"/>
			<point x="4" y="1601"/>
			<point x="-1" y="1605" type="curve" smooth="yes"/>
			<point x="-296" y="1835" type="line" smooth="yes"/>
			<point x="-300" y="1838"/>
			<point x="-304" y="1839"/>
			<point x="-309" y="1839" type="curve" smooth="yes"/>
			<point x="-321" y="1839"/>
			<point x="-330" y="1830"/>
			<point x="-330" y="1818" type="curve" smooth="yes"/>
			<point x="-330" y="1812"/>
			<point x="-327" y="1806"/>
		</contour>
	</outline>
</glyph>
<glyph name="acutecomb" format="2">
	<advance width="1"/>
	<unicode hex="0301"/>
	<anchor x="0" y="1400" name="_top"/>
	<anchor x="0" y="1839" name="top"/>
	<outline>
		<contour>
			<point x="27.965" y="1572.157" type="curve"/>
			<point x="323.138" y="1801.937" type="line"/>
			<point x="327.981" y="1805.784"/>
			<point x="331.086" y="1811.725"/>
			<point x="331.086" y="1818.39" type="curve"/>
			<point x="331.086" y="1829.988"/>
			<point x="321.684" y="1839.39"/>
			<point x="310.086" y="1839.39" type="curve"/>
			<point x="305.154" y="1839.39"/>
			<point x="300.618" y="1837.69"/>
			<point x="297.035" y="1834.843" type="curve"/>
			<point x="1.862" y="1605.063" type="line"/>
			<point x="-2.981" y="1601.216"/>
			<point x="-6.086" y="1595.275"/>
			<point x="-6.086" y="1588.61" type="curve"/>
			<point x="-6.086" y="1577.012"/>
			<point x="3.316" y="1567.61"/>
			<point x="14.914" y="1567.61" type="curve"/>
			<point x="19.846" y="1567.61"/>
			<point x="24.382" y="1569.31"/>
		</contour>
	</outline>
</glyph>
<glyph name="circumflexcomb" format="2">
	<advance width="0"/>
	<unicode hex="0302"/>
	<anchor x="0" y="1400" name="_top"/>
	<anchor x="0" y="1819" name="top"/>
	<anchor x="219" y="1594" name="top_viet"/>
	<anchor x="438" y="1577" name="top_viet_grave"/>
	<outline>
		<contour>
			<point x="-14.2" y="1813.369" type="curve"/>
			<point x="-236.603" y="1605.2" type="line"/>
			<point x="-240.665" y="1601.37"/>
			<point x="-243.201" y="1595.939"/>
			<point x="-243.201" y="1589.915" type="curve"/>
			<point x="-243.201" y="1578.317"/>
			<point x="-233.8" y="1568.915"/>
			<point x="-222.201" y="1568.915" type="curve"/>
			<point x="-216.627" y="1568.915"/>
			<point x="-211.56" y="1571.087"/>
			<point x="-207.8" y="1574.631" type="curve"/>
			<point x="14.603" y="1782.8" type="line"/>
			<point x="18.665" y="1786.63"/>
			<point x="21.201" y="1792.061"/>
			<point x="21.201" y="1798.085" type="curve"/>
			<point x="21.201" y="1809.683"/>
			<point x="11.8" y="1819.085"/>
			<point x="0.201" y="1819.085" type="curve"/>
			<point x="-5.373" y="1819.085"/>
			<point x="-10.44" y="1816.913"/>
		</contour>
		<contour>
			<point x="-13.417" y="1781.731" type="line"/>
			<point x="205.793" y="1574.751" type="line"/>
			<point x="209.559" y="1571.172"/>
			<point x="214.652" y="1568.975"/>
			<point x="220.258" y="1568.975" type="curve"/>
			<point x="231.856" y="1568.975"/>
			<point x="241.258" y="1578.377"/>
			<point x="241.258" y="1589.975" type="curve"/>
			<point x="241.258" y="1595.968"/>
			<point x="238.748" y="1601.374"/>
			<point x="234.722" y="1605.2" type="curve"/>
			<point x="15.417" y="1812.269" type="line"/>
		</contour>
	</outline>
</glyph>
<glyph name="uni0302" format="2">
	<advance width="0"/>
	<unicode hex="0302"/>
	<anchor x="0" y="1400" name="_top"/>
	<anchor x="0" y="1819" name="top"/>
	<anchor x="219" y="1594" name="top_viet"/>
	<anchor x="438" y="1577" name="top_viet_grave"/>
	<outline>
		<contour>
			<point x="-14" y="1813" type="curve" smooth="yes"/>
			<point x="-237" y="1605" type="line" smooth="yes"/>
			<point x="-241" y="1601"/>
			<point x="-243" y="1596"/>
			<point x="-243" y="1590" type="curve" smooth="yes"/>
			<point x="-243" y="1578"/>
			<point x="-234" y="1569"/>
			<point x="-222" y="1569" type="curve" smooth="yes"/>
			<point x="-217" y="1569"/>
			<point x="-212" y="1571"/>
			<point x="-208" y="1575" type="curve" smooth="yes"/>
			<point x="15" y="1783" type="line" smooth="yes"/>
			<point x="19" y="1787"/>
			<point x="21" y="1792"/>
			<point x="21" y="1798" type="curve" smooth="yes"/>
			<point x="21" y="1810"/>
			<point x="12" y="1819"/>
			<point x="0" y="1819" type="curve" smooth="yes"/>
			<point x="-5" y="1819"/>
			<point x="-10" y="1817"/>
		</contour>
		<contour>
			<point x="-13" y="1782" type="line"/>
			<point x="206" y="1575" type="line" smooth="yes"/>
			<point x="210" y="1571"/>
			<point x="215" y="1569"/>
			<point x="220" y="1569" type="curve" smooth="yes"/>
			<point x="232" y="1569"/>
			<point x="241" y="1578"/>
			<point x="241" y="1590" type="curve" smooth="yes"/>
			<point x="241" y="1596"/>
			<point x="239" y="1601"/>
			<point x="235" y="1605" type="curve" smooth="yes"/>
			<point x="15" y="1812" type="line"/>
		</contour>
	</outline>
</glyph>
<glyph name="tildecomb" format="2">
	<advance width="0"/>
	<unicode hex="0303"/>
	<anchor x="0" y="1400" name="_top"/>
	<anchor x="0" y="1746" name="top"/>
	<outline>
		<contour>
			<point x="245.128" y="1719.217" type="curve"/>
			<point x="207.182" y="1641.512"/>
			<point x="118.049" y="1615.102"/>
			<point x="12.457" y="1692.906" type="curve"/>
			<point x="-112.689" y="1785.119"/>
			<point x="-235.326" y="1748.567"/>
			<point x="-282.872" y="1651.217" type="curve"/>
			<point x="-284.236" y="1648.435"/>
			<point x="-285" y="1645.307"/>
			<point x="-285" y="1642" type="curve"/>
			<point x="-285" y="1630.402"/>
			<point x="-275.598" y="1621"/>
			<point x="-264" y="1621" type="curve"/>
			<point x="-255.709" y="1621"/>
			<point x="-248.54" y="1625.805"/>
			<point x="-245.128" y="1632.783" type="curve"/>
			<point x="-207.182" y="1710.488"/>
			<point x="-118.049" y="1736.898"/>
			<point x="-12.457" y="1659.094" type="curve"/>
			<point x="112.689" y="1566.881"/>
			<point x="235.326" y="1603.433"/>
			<point x="282.872" y="1700.783" type="curve"/>
			<point x="284.236" y="1703.565"/>
			<point x="285" y="1706.693"/>
			<point x="285" y="1710" type="curve"/>
			<point x="285" y="1721.598"/>
			<point x="275.598" y="1731"/>
			<point x="264" y="1731" type="curve"/>
			<point x="255.709" y="1731"/>
			<point x="248.54" y="1726.195"/>
		</contour>
	</outline>
</glyph>
<glyph name="macroncomb" format="2">
	<advance width="0"/>
	<unicode hex="0304"/>
	<anchor x="0" y="1400" name="_top"/>
	<anchor x="0" y="1693" name="top"/>
	<outline>
		<contour>
			<point x="-249.1" y="1651" type="curve"/>
			<point x="249.1" y="1651" type="line"/>
			<point x="260.698" y="1651"/>
			<point x="270.1" y="1660.402"/>
			<point x="270.1" y="1672" type="curve"/>
			<point x="270.1" y="1683.598"/>
			<point x="260.698" y="1693"/>
			<point x="249.1" y="1693" type="curve"/>
			<point x="-249.1" y="1693" type="line"/>
			<point x="-260.698" y="1693"/>
			<point x="-270.1" y="1683.598"/>
			<point x="-270.1" y="1672" type="curve"/>
			<point x="-270.1" y="1660.402"/>
			<point x="-260.698" y="1651"/>
		</contour>
	</outline>
</glyph>
<glyph name="uni0304" format="2">
	<advance width="0"/>
	<unicode hex="0304"/>
	<anchor x="0" y="1400" name="_top"/>
	<anchor x="0" y="1693" name="top"/>
	<outline>
		<contour>
			<point x="-249" y="1651" type="curve" smooth="yes"/>
			<point x="249" y="1651" type="line" smooth="yes"/>
			<point x="261" y="1651"/>
			<point x="270" y="1660"/>
			<point x="270" y="1672" type="curve" smooth="yes"/>
			<point x="270" y="1684"/>
			<point x="261" y="1693"/>
			<point x="249" y="1693" type="curve" smooth="yes"/>
			<point x="-249" y="1693" type="line" smooth="yes"/>
			<point x="-261" y="1693"/>
			<point x="-270" y="1684"/>
			<point x="-270" y="1672" type="curve" smooth="yes"/>
			<point x="-270" y="1660"/>
			<point x="-261" y="1651"/>
		</contour>
	</outline>
</glyph>
<glyph name="uni0306" format="2">
	<advance width="0"/>
	<unicode hex="0306"/>
	<anchor x="0" y="1400" name="_top"/>
	<anchor x="0" y="1818" name="top"/>
	<outline>
		<contour>
			<point x="1" y="1552" type="curve" smooth="yes"/>
			<point x="141" y="1552"/>
			<point x="255" y="1660"/>
			<point x="265" y="1798" type="curve" smooth="yes"/>
			<point x="266" y="1810"/>
			<point x="256" y="1820"/>
			<point x="244" y="1820" type="curve" smooth="yes"/>
			<point x="233" y="1820"/>
			<point x="224" y="1812"/>
			<point x="223" y="1801" type="curve" smooth="yes"/>
			<point x="215" y="1682"/>
			<point x="121" y="1594"/>
			<point x="1" y="1594" type="curve" smooth="yes"/>
			<point x="-121" y="1594"/>
			<point x="-215" y="1682"/>
			<point x="-223" y="1801" type="curve" smooth="yes"/>
			<point x="-224" y="1812"/>
			<point x="-233" y="1820"/>
			<point x="-244" y="1820" type="curve" smooth="yes"/>
			<point x="-256" y="1820"/>
			<point x="-266" y="1810"/>
			<point x="-265" y="1798" type="curve" smooth="yes"/>
			<point x="-255" y="1660"/>
			<point x="-141" y="1552"/>
		</contour>
	</outline>
</glyph>
<glyph name="dotaccentcomb" format="2">
	<advance width="0"/>
	<unicode hex="0307"/>
	<anchor x="0" y="1400" name="_top"/>
	<anchor x="0" y="1654" name="top"/>
	<outline>
		<contour>
			<point x="0" y="1594" type="curve" smooth="yes"/>
			<point x="16" y="1594"/>
			<point x="30" y="1608"/>
			<point x="30" y="1624" type="curve" smooth="yes"/>
			<point x="30" y="1640"/>
			<point x="16" y="1654"/>
			<point x="0" y="1654" type="curve" smooth="yes"/>
			<point x="-16" y="1654"/>
			<point x="-30" y="1640"/>
			<point x="-30" y="1624" type="curve" smooth="yes"/>
			<point x="-30" y="1608"/>
			<point x="-16" y="1594"/>
		</contour>
	</outline>
</glyph>
<glyph name="dieresiscomb" format="2">
	<advance width="0"/>
	<unicode hex="0308"/>
	<anchor x="0" y="1400" name="_top"/>
	<anchor x="0" y="1654" name="top"/>
	<outline>
		<contour>
			<point x="180" y="1594" type="curve" smooth="yes"/>
			<point x="196" y="1594"/>
			<point x="210" y="1608"/>
			<point x="210" y="1624" type="curve" smooth="yes"/>
			<point x="210" y="1640"/>
			<point x="196" y="1654"/>
			<point x="180" y="1654" type="curve" smooth="yes"/>
			<point x="164" y="1654"/>
			<point x="150" y="1640"/>
			<point x="150" y="1624" type="curve" smooth="yes"/>
			<point x="150" y="1608"/>
			<point x="164" y="1594"/>
		</contour>
		<contour>
			<point x="-180" y="1594" type="curve" smooth="yes"/>
			<point x="-164" y="1594"/>
			<point x="-150" y="1608"/>
			<point x="-150" y="1624" type="curve" smooth="yes"/>
			<point x="-150" y="1640"/>
			<point x="-164" y="1654"/>
			<point x="-180" y="1654" type="curve" smooth="yes"/>
			<point x="-196" y="1654"/>
			<point x="-210" y="1640"/>
			<point x="-210" y="1624" type="curve" smooth="yes"/>
			<point x="-210" y="1608"/>
			<point x="-196" y="1594"/>
		</contour>
	</outline>
</glyph>
<glyph name="hookabovecomb" format="2">
	<advance width="0"/>
	<unicode hex="0309"/>
	<anchor x="0" y="1400" name="_top"/>
	<anchor x="0" y="1853" name="top"/>
	<outline>
		<contour>
			<point x="-63" y="1811" type="curve" smooth="yes"/>
			<point x="1" y="1811"/>
			<point x="53" y="1759"/>
			<point x="53" y="1695" type="curve" smooth="yes"/>
			<point x="53" y="1631"/>
			<point x="1" y="1579"/>
			<point x="-63" y="1579" type="curve" smooth="yes"/>
			<point x="-75" y="1579"/>
			<point x="-84" y="1570"/>
			<point x="-84" y="1558" type="curve" smooth="yes"/>
			<point x="-84" y="1546"/>
			<point x="-75" y="1537"/>
			<point x="-63" y="1537" type="curve" smooth="yes"/>
			<point x="24" y="1537"/>
			<point x="95" y="1608"/>
			<point x="95" y="1695" type="curve" smooth="yes"/>
			<point x="95" y="1782"/>
			<point x="24" y="1853"/>
			<point x="-63" y="1853" type="curve" smooth="yes"/>
			<point x="-75" y="1853"/>
			<point x="-84" y="1844"/>
			<point x="-84" y="1832" type="curve" smooth="yes"/>
			<point x="-84" y="1820"/>
			<point x="-75" y="1811"/>
		</contour>
	</outline>
</glyph>
<glyph name="ringcomb" format="2">
	<advance width="0"/>
	<unicode hex="030A"/>
	<anchor x="0" y="1400" name="_top"/>
	<anchor x="0" y="1853" name="top"/>
	<outline>
		<contour>
			<point x="0" y="1579" type="curve"/>
			<point x="-64" y="1579"/>
			<point x="-116" y="1631"/>
			<point x="-116" y="1695" type="curve"/>
			<point x="-116" y="1759"/>
			<point x="-64" y="1811"/>
			<point x="0" y="1811" type="curve"/>
			<point x="64" y="1811"/>
			<point x="116" y="1759"/>
			<point x="116" y="1695" type="curve"/>
			<point x="116" y="1631"/>
			<point x="64" y="1579"/>
		</contour>
		<contour>
			<point x="0" y="1537" type="curve"/>
			<point x="87.397" y="1537"/>
			<point x="158" y="1607.603"/>
			<point x="158" y="1695" type="curve"/>
			<point x="158" y="1782.397"/>
			<point x="87.397" y="1853"/>
			<point x="0" y="1853" type="curve"/>
			<point x="-87.397" y="1853"/>
			<point x="-158" y="1782.397"/>
			<point x="-158" y="1695" type="curve"/>
			<point x="-158" y="1607.603"/>
			<point x="-87.397" y="1537"/>
		</contour>
	</outline>
</glyph>
<glyph name="uni030A" format="2">
	<advance width="0"/>
	<unicode hex="030A"/>
	<anchor x="0" y="1400" name="_top"/>
	<anchor x="0" y="1853" name="top"/>
	<outline>
		<contour>
			<point x="0" y="1579" type="curve" smooth="yes"/>
			<point x="-64" y="1579"/>
			<point x="-116" y="1631"/>
			<point x="-116" y="1695" type="curve" smooth="yes"/>
			<point x="-116" y="1759"/>
			<point x="-64" y="1811"/>
			<point x="0" y="1811" type="curve" smooth="yes"/>
			<point x="64" y="1811"/>
			<point x="116" y="1759"/>
			<point x="116" y="1695" type="curve" smooth="yes"/>
			<point x="116" y="1631"/>
			<point x="64" y="1579"/>
		</contour>
		<contour>
			<point x="0" y="1537" type="curve" smooth="yes"/>
			<point x="87" y="1537"/>
			<point x="158" y="1608"/>
			<point x="158" y="1695" type="curve" smooth="yes"/>
			<point x="158" y="1782"/>
			<point x="87" y="1853"/>
			<point x="0" y="1853" type="curve" smooth="yes"/>
			<point x="-87" y="1853"/>
			<point x="-158" y="1782"/>
			<point x="-158" y="1695" type="curve" smooth="yes"/>
			<point x="-158" y="1608"/>
			<point x="-87" y="1537"/>
		</contour>
	</outline>
</glyph>
<glyph name="hungarumlautcomb" format="2">
	<advance width="0"/>
	<unicode hex="030B"/>
	<anchor x="-100" y="1400" name="_top"/>
	<anchor x="0" y="1837" name="top"/>
	<outline>
		<contour>
			<point x="-48.745" y="1831.33" type="curve"/>
			<point x="-281.099" y="1605.232" type="line"/>
			<point x="-285.019" y="1601.417"/>
			<point x="-287.455" y="1596.083"/>
			<point x="-287.455" y="1590.181" type="curve"/>
			<point x="-287.455" y="1578.583"/>
			<point x="-278.053" y="1569.181"/>
			<point x="-266.455" y="1569.181" type="curve"/>
			<point x="-260.759" y="1569.181"/>
			<point x="-255.592" y="1571.448"/>
			<point x="-251.217" y="1575.706" type="curve"/>
			<point x="-18.901" y="1801.768" type="line"/>
			<point x="-14.981" y="1805.583"/>
			<point x="-12.545" y="1810.917"/>
			<point x="-12.545" y="1816.819" type="curve"/>
			<point x="-12.545" y="1828.417"/>
			<point x="-21.947" y="1837.819"/>
			<point x="-33.545" y="1837.819" type="curve"/>
			<point x="-39.241" y="1837.819"/>
			<point x="-44.408" y="1835.552"/>
		</contour>
		<contour>
			<point x="251.255" y="1831.33" type="curve"/>
			<point x="18.901" y="1605.232" type="line"/>
			<point x="14.981" y="1601.417"/>
			<point x="12.545" y="1596.083"/>
			<point x="12.545" y="1590.181" type="curve"/>
			<point x="12.545" y="1578.583"/>
			<point x="21.947" y="1569.181"/>
			<point x="33.545" y="1569.181" type="curve"/>
			<point x="39.241" y="1569.181"/>
			<point x="44.408" y="1571.448"/>
			<point x="48.783" y="1575.706" type="curve"/>
			<point x="281.099" y="1801.768" type="line"/>
			<point x="285.019" y="1805.583"/>
			<point x="287.455" y="1810.917"/>
			<point x="287.455" y="1816.819" type="curve"/>
			<point x="287.455" y="1828.417"/>
			<point x="278.053" y="1837.819"/>
			<point x="266.455" y="1837.819" type="curve"/>
			<point x="260.759" y="1837.819"/>
			<point x="255.592" y="1835.552"/>
		</contour>
	</outline>
</glyph>
<glyph name="uni030B" format="2">
	<advance width="0"/>
	<unicode hex="030B"/>
	<anchor x="0" y="1400" name="_top"/>
	<anchor x="0" y="1837" name="top"/>
	<outline>
		<contour>
			<point x="-49" y="1831" type="curve" smooth="yes"/>
			<point x="-281" y="1605" type="line" smooth="yes"/>
			<point x="-285" y="1601"/>
			<point x="-287" y="1596"/>
			<point x="-287" y="1590" type="curve" smooth="yes"/>
			<point x="-287" y="1579"/>
			<point x="-278" y="1569"/>
			<point x="-266" y="1569" type="curve" smooth="yes"/>
			<point x="-261" y="1569"/>
			<point x="-256" y="1571"/>
			<point x="-251" y="1576" type="curve" smooth="yes"/>
			<point x="-19" y="1802" type="line" smooth="yes"/>
			<point x="-15" y="1806"/>
			<point x="-13" y="1811"/>
			<point x="-13" y="1817" type="curve" smooth="yes"/>
			<point x="-13" y="1828"/>
			<point x="-22" y="1838"/>
			<point x="-34" y="1838" type="curve" smooth="yes"/>
			<point x="-39" y="1838"/>
			<point x="-44" y="1836"/>
		</contour>
		<contour>
			<point x="251" y="1831" type="curve" smooth="yes"/>
			<point x="19" y="1605" type="line" smooth="yes"/>
			<point x="15" y="1601"/>
			<point x="13" y="1596"/>
			<point x="13" y="1590" type="curve" smooth="yes"/>
			<point x="13" y="1579"/>
			<point x="22" y="1569"/>
			<point x="34" y="1569" type="curve" smooth="yes"/>
			<point x="39" y="1569"/>
			<point x="44" y="1571"/>
			<point x="49" y="1576" type="curve" smooth="yes"/>
			<point x="281" y="1802" type="line" smooth="yes"/>
			<point x="285" y="1806"/>
			<point x="287" y="1811"/>
			<point x="287" y="1817" type="curve" smooth="yes"/>
			<point x="287" y="1828"/>
			<point x="278" y="1838"/>
			<point x="266" y="1838" type="curve" smooth="yes"/>
			<point x="261" y="1838"/>
			<point x="256" y="1836"/>
		</contour>
	</outline>
</glyph>
<glyph name="horncomb" format="2">
	<advance width="0"/>
	<unicode hex="031B"/>
	<anchor x="-170" y="1396" name="_topright"/>
	<anchor x="98" y="1560" name="topright"/>
	<outline>
		<contour>
			<point x="-131.1" y="1375.984" type="curve"/>
			<point x="93.546" y="1526.891" type="line"/>
			<point x="100.058" y="1531.404"/>
			<point x="104.323" y="1538.931"/>
			<point x="104.323" y="1547.454" type="curve"/>
			<point x="104.323" y="1561.261"/>
			<point x="93.13" y="1572.454"/>
			<point x="79.323" y="1572.454" type="curve"/>
			<point x="74.038" y="1572.454"/>
			<point x="69.137" y="1570.814"/>
			<point x="65.1" y="1568.016" type="curve"/>
			<point x="-159.546" y="1417.109" type="line"/>
			<point x="-166.058" y="1412.596"/>
			<point x="-170.323" y="1405.069"/>
			<point x="-170.323" y="1396.546" type="curve"/>
			<point x="-170.323" y="1382.739"/>
			<point x="-159.13" y="1371.546"/>
			<point x="-145.323" y="1371.546" type="curve"/>
			<point x="-140.038" y="1371.546"/>
			<point x="-135.137" y="1373.186"/>
		</contour>
	</outline>
</glyph>
<glyph name="uni031B" format="2">
	<advance width="0"/>
	<unicode hex="031B"/>
	<anchor x="-170" y="1396" name="_topright"/>
	<anchor x="98" y="1560" name="topright"/>
	<outline>
		<contour>
			<point x="-131" y="1376" type="curve" smooth="yes"/>
			<point x="94" y="1527" type="line" smooth="yes"/>
			<point x="100" y="1531"/>
			<point x="104" y="1539"/>
			<point x="104" y="1547" type="curve" smooth="yes"/>
			<point x="104" y="1561"/>
			<point x="93" y="1572"/>
			<point x="79" y="1572" type="curve" smooth="yes"/>
			<point x="74" y="1572"/>
			<point x="69" y="1571"/>
			<point x="65" y="1568" type="curve" smooth="yes"/>
			<point x="-160" y="1417" type="line" smooth="yes"/>
			<point x="-166" y="1413"/>
			<point x="-170" y="1405"/>
			<point x="-170" y="1397" type="curve" smooth="yes"/>
			<point x="-170" y="1383"/>
			<point x="-159" y="1372"/>
			<point x="-145" y="1372" type="curve" smooth="yes"/>
			<point x="-140" y="1372"/>
			<point x="-135" y="1373"/>
		</contour>
	</outline>
</glyph>
<glyph name="dotbelowcomb" format="2">
	<advance width="0"/>
	<unicode hex="0323"/>
	<outline>
		<contour>
			<point x="0" y="-206" type="curve" smooth="yes"/>
			<point x="16" y="-206"/>
			<point x="30" y="-192"/>
			<point x="30" y="-176" type="curve" smooth="yes"/>
			<point x="30" y="-160"/>
			<point x="16" y="-146"/>
			<point x="0" y="-146" type="curve" smooth="yes"/>
			<point x="-16" y="-146"/>
			<point x="-30" y="-160"/>
			<point x="-30" y="-176" type="curve" smooth="yes"/>
			<point x="-30" y="-192"/>
			<point x="-16" y="-206"/>
		</contour>
	</outline>
</glyph>
<glyph name="uni0328" format="2">
	<advance width="0"/>
	<unicode hex="0328"/>
	<anchor x="31" y="0" name="_ogonek"/>
	<outline>
		<contour>
			<point x="-79" y="-323" type="curve" smooth="yes"/>
			<point x="-69" y="-323"/>
			<point x="-61" y="-317"/>
			<point x="-59" y="-309" type="curve"/>
			<point x="55" y="17" type="line" smooth="yes"/>
			<point x="60" y="29"/>
			<point x="51" y="45"/>
			<point x="36" y="45" type="curve" smooth="yes"/>
			<point x="26" y="45"/>
			<point x="18" y="39"/>
			<point x="16" y="31" type="curve"/>
			<point x="-98" y="-295" type="line" smooth="yes"/>
			<point x="-103" y="-307"/>
			<point x="-94" y="-323"/>
		</contour>
	</outline>
</glyph>
